  0
SECTION
  2
HEADER
  9
$ACADVER
  1
AC1014
  9
$HANDSEED
  5
FFFF
  9
$MEASUREMENT
 70
     1
  0
ENDSEC
  0
SECTION
  2
TABLES
  0
TABLE
  2
VPORT
  5
8
330
0
100
AcDbSymbolTable
 70
     4
  0
VPORT
  5
2E
330
8
100
AcDbSymbolTableRecord
100
AcDbViewportTableRecord
  2
*ACTIVE
 70
     0
 10
0.0
 20
0.0
 11
1.0
 21
1.0
 12
210.0
 22
148.5
 13
0.0
 23
0.0
 14
10.0
 24
10.0
 15
10.0
 25
10.0
 16
0.0
 26
0.0
 36
1.0
 17
0.0
 27
0.0
 37
0.0
 40
341.0
 41
1.24
 42
50.0
 43
0.0
 44
0.0
 50
0.0
 51
0.0
 71
     0
 72
   100
 73
     1
 74
     3
 75
     0
 76
     0
 77
     0
 78
     0
  0
ENDTAB
  0
TABLE
  2
LTYPE
  5
5
330
0
100
AcDbSymbolTable
 70
     1
  0
LTYPE
  5
14
330
5
100
AcDbSymbolTableRecord
100
AcDbLinetypeTableRecord
  2
BYBLOCK
 70
     0
  3

 72
    65
 73
     0
 40
0.0
  0
LTYPE
  5
15
330
5
100
AcDbSymbolTableRecord
100
AcDbLinetypeTableRecord
  2
BYLAYER
 70
     0
  3

 72
    65
 73
     0
 40
0.0
  0
LTYPE
  5
16
330
5
100
AcDbSymbolTableRecord
100
AcDbLinetypeTableRecord
  2
CONTINUOUS
 70
     0
  3
Solid line
 72
    65
 73
     0
 40
0.0
  0
ENDTAB
  0
TABLE
  2
LAYER
  5
2
100
AcDbSymbolTable
 70
2
  0
LAYER
  5
50
100
AcDbSymbolTableRecord
100
AcDbLayerTableRecord
  2
0
 70
0
  6
CONTINUOUS
  0
LAYER
  5
51
100
AcDbSymbolTableRecord
100
AcDbLayerTableRecord
  2
Layer_1
 70
0
  6
CONTINUOUS
  0
ENDTAB
  0
TABLE
  2
STYLE
  5
3
330
0
100
AcDbSymbolTable
 70
     1
  0
STYLE
  5
11
330
3
100
AcDbSymbolTableRecord
100
AcDbTextStyleTableRecord
  2
STANDARD
 70
     0
 40
0.0
 41
1.0
 50
0.0
 71
     0
 42
2.5
  3
txt
  4

  0
ENDTAB
  0
TABLE
  2
VIEW
  5
6
330
0
100
AcDbSymbolTable
 70
     0
  0
ENDTAB
  0
TABLE
  2
UCS
  5
7
330
0
100
AcDbSymbolTable
 70
     0
  0
ENDTAB
  0
TABLE
  2
APPID
  5
9
330
0
100
AcDbSymbolTable
 70
     2
  0
APPID
  5
12
330
9
100
AcDbSymbolTableRecord
100
AcDbRegAppTableRecord
  2
ACAD
 70
     0
  0
ENDTAB
  0
TABLE
  2
DIMSTYLE
  5
A
330
0
100
AcDbSymbolTable
 70
     1
  0
DIMSTYLE
105
27
330
A
100
AcDbSymbolTableRecord
100
AcDbDimStyleTableRecord
  2
ISO-25
 70
     0
  3

  4

  5

  6

  7

 40
1.0
 41
2.5
 42
0.625
 43
3.75
 44
1.25
 45
0.0
 46
0.0
 47
0.0
 48
0.0
140
2.5
141
2.5
142
0.0
143
0.03937007874016
144
1.0
145
0.0
146
1.0
147
0.625
 71
     0
 72
     0
 73
     0
 74
     0
 75
     0
 76
     0
 77
     1
 78
     8
170
     0
171
     3
172
     1
173
     0
174
     0
175
     0
176
     0
177
     0
178
     0
270
     2
271
     2
272
     2
273
     2
274
     3
340
11
275
     0
280
     0
281
     0
282
     0
283
     0
284
     8
285
     0
286
     0
287
     3
288
     0
  0
ENDTAB
  0
TABLE
  2
BLOCK_RECORD
  5
1
330
0
100
AcDbSymbolTable
 70
     1
  0
BLOCK_RECORD
  5
1F
330
1
100
AcDbSymbolTableRecord
100
AcDbBlockTableRecord
  2
*MODEL_SPACE
  0
BLOCK_RECORD
  5
1B
330
1
100
AcDbSymbolTableRecord
100
AcDbBlockTableRecord
  2
*PAPER_SPACE
  0
ENDTAB
  0
ENDSEC
  0
SECTION
  2
BLOCKS
  0
BLOCK
  5
20
330
1F
100
AcDbEntity
  8
0
100
AcDbBlockBegin
  2
*MODEL_SPACE
 70
     0
 10
0.0
 20
0.0
 30
0.0
  3
*MODEL_SPACE
  1

  0
ENDBLK
  5
21
330
1F
100
AcDbEntity
  8
0
100
AcDbBlockEnd
  0
BLOCK
  5
1C
330
1B
100
AcDbEntity
 67
     1
  8
0
100
AcDbBlockBegin
  2
*PAPER_SPACE
  1

  0
ENDBLK
  5
1D
330
1B
100
AcDbEntity
 67
     1
  8
0
100
AcDbBlockEnd
  0
ENDSEC
  0
SECTION
  2
ENTITIES
  0
SPLINE
  5
100
100
AcDbEntity
  8
Layer_1
 62
1
100
AcDbSpline
 70
0
 71
3
 72
16
 73
12
 74
10
 40
0.000000
 40
0.000000
 40
0.000000
 40
0.000000
 40
0.014016
 40
0.028032
 40
0.042048
 40
0.056052
 40
0.070057
 40
0.084061
 40
0.098053
 40
0.112046
 40
0.126038
 40
0.126038
 40
0.126038
 40
0.126038
 10
4.471566
 20
0.519587
 30
0.0
 10
4.473273
 20
0.515238
 30
0.0
 10
4.476687
 20
0.506540
 30
0.0
 10
4.481809
 20
0.493494
 30
0.0
 10
4.486935
 20
0.480453
 30
0.0
 10
4.492065
 20
0.467418
 30
0.0
 10
4.497200
 20
0.454389
 30
0.0
 10
4.502337
 20
0.441365
 30
0.0
 10
4.507477
 20
0.428347
 30
0.0
 10
4.512619
 20
0.415333
 30
0.0
 10
4.516047
 20
0.406658
 30
0.0
 10
4.517761
 20
0.402321
 30
0.0
 11
4.471566
 21
0.519587
 31
0.0
 11
4.476687
 21
0.506541
 31
0.0
 11
4.481810
 21
0.493495
 31
0.0
 11
4.486937
 21
0.480450
 31
0.0
 11
4.492066
 21
0.467418
 31
0.0
 11
4.497200
 21
0.454389
 31
0.0
 11
4.502339
 21
0.441361
 31
0.0
 11
4.507478
 21
0.428347
 31
0.0
 11
4.512619
 21
0.415334
 31
0.0
 11
4.517761
 21
0.402321
 31
0.0
  0
LINE
  5
101
100
AcDbEntity
  8
Layer_1
 62
1
100
AcDbLine
 10
11.736639
 20
0.540054
 30
0.0
 11
15.392069
 21
0.540054
 31
0.0
  0
LINE
  5
102
100
AcDbEntity
  8
Layer_1
 62
1
100
AcDbLine
 10
15.392069
 20
0.540054
 30
0.0
 11
15.392069
 21
1.174233
 31
0.0
  0
LINE
  5
103
100
AcDbEntity
  8
Layer_1
 62
1
100
AcDbLine
 10
15.392069
 20
1.174233
 30
0.0
 11
15.392069
 21
3.932812
 31
0.0
  0
LINE
  5
104
100
AcDbEntity
  8
Layer_1
 62
1
100
AcDbLine
 10
15.392069
 20
3.932812
 30
0.0
 11
17.342682
 21
5.883426
 31
0.0
  0
LINE
  5
105
100
AcDbEntity
  8
Layer_1
 62
1
100
AcDbLine
 10
17.342682
 20
5.883426
 30
0.0
 11
17.791118
 21
6.331842
 31
0.0
  0
LINE
  5
106
100
AcDbEntity
  8
Layer_1
 62
1
100
AcDbLine
 10
17.791118
 20
6.331842
 30
0.0
 11
17.342682
 21
6.780277
 31
0.0
  0
LINE
  5
107
100
AcDbEntity
  8
Layer_1
 62
1
100
AcDbLine
 10
17.342682
 20
6.780277
 30
0.0
 11
15.206325
 21
8.916635
 31
0.0
  0
LINE
  5
108
100
AcDbEntity
  8
Layer_1
 62
1
100
AcDbLine
 10
15.206325
 20
8.916635
 30
0.0
 11
14.757908
 21
8.468200
 31
0.0
  0
LINE
  5
109
100
AcDbEntity
  8
Layer_1
 62
1
100
AcDbLine
 10
14.757908
 20
8.468200
 30
0.0
 11
16.894267
 21
6.331842
 31
0.0
  0
LINE
  5
10a
100
AcDbEntity
  8
Layer_1
 62
1
100
AcDbLine
 10
16.894267
 20
6.331842
 30
0.0
 11
14.757908
 21
4.195484
 31
0.0
  0
LINE
  5
10b
100
AcDbEntity
  8
Layer_1
 62
1
100
AcDbLine
 10
14.757908
 20
4.195484
 30
0.0
 11
14.757908
 21
1.174233
 31
0.0
  0
LINE
  5
10c
100
AcDbEntity
  8
Layer_1
 62
1
100
AcDbLine
 10
14.757908
 20
1.174233
 30
0.0
 11
11.956826
 21
1.184102
 31
0.0
  0
LINE
  5
10d
100
AcDbEntity
  8
Layer_1
 62
1
100
AcDbLine
 10
11.956826
 20
1.184102
 30
0.0
 11
11.828598
 21
2.851611
 31
0.0
  0
LINE
  5
10e
100
AcDbEntity
  8
Layer_1
 62
1
100
AcDbLine
 10
11.828598
 20
2.851611
 30
0.0
 11
13.964955
 21
4.987969
 31
0.0
  0
LINE
  5
10f
100
AcDbEntity
  8
Layer_1
 62
1
100
AcDbLine
 10
13.964955
 20
4.987969
 30
0.0
 11
14.413372
 21
5.436385
 31
0.0
  0
LINE
  5
110
100
AcDbEntity
  8
Layer_1
 62
1
100
AcDbLine
 10
14.413372
 20
5.436385
 30
0.0
 11
11.828598
 21
8.021178
 31
0.0
  0
LINE
  5
111
100
AcDbEntity
  8
Layer_1
 62
1
100
AcDbLine
 10
11.828598
 20
8.021178
 30
0.0
 11
11.380164
 21
7.572743
 31
0.0
  0
LINE
  5
112
100
AcDbEntity
  8
Layer_1
 62
1
100
AcDbLine
 10
11.380164
 20
7.572743
 30
0.0
 11
9.877985
 21
6.070546
 31
0.0
  0
LINE
  5
113
100
AcDbEntity
  8
Layer_1
 62
1
100
AcDbLine
 10
9.877985
 20
6.070546
 30
0.0
 11
9.877985
 21
9.091816
 31
0.0
  0
LINE
  5
114
100
AcDbEntity
  8
Layer_1
 62
1
100
AcDbLine
 10
9.877985
 20
9.091816
 30
0.0
 11
9.243824
 21
9.091816
 31
0.0
  0
LINE
  5
115
100
AcDbEntity
  8
Layer_1
 62
1
100
AcDbLine
 10
9.243824
 20
9.091816
 30
0.0
 11
9.243824
 21
5.436385
 31
0.0
  0
LINE
  5
116
100
AcDbEntity
  8
Layer_1
 62
1
100
AcDbLine
 10
9.243824
 20
5.436385
 30
0.0
 11
9.692240
 21
4.987969
 31
0.0
  0
LINE
  5
117
100
AcDbEntity
  8
Layer_1
 62
1
100
AcDbLine
 10
9.692240
 20
4.987969
 30
0.0
 11
11.828579
 21
7.124308
 31
0.0
  0
LINE
  5
118
100
AcDbEntity
  8
Layer_1
 62
1
100
AcDbLine
 10
11.828579
 20
7.124308
 30
0.0
 11
13.516521
 21
5.436385
 31
0.0
  0
LINE
  5
119
100
AcDbEntity
  8
Layer_1
 62
1
100
AcDbLine
 10
13.516521
 20
5.436385
 30
0.0
 11
11.407247
 21
3.409467
 31
0.0
  0
LINE
  5
11a
100
AcDbEntity
  8
Layer_1
 62
1
100
AcDbLine
 10
11.407247
 20
3.409467
 30
0.0
 11
10.859894
 21
3.764193
 31
0.0
  0
SPLINE
  5
11b
100
AcDbEntity
  8
Layer_1
 62
1
100
AcDbSpline
 70
0
 71
3
 72
16
 73
12
 74
10
 40
0.000000
 40
0.000000
 40
0.000000
 40
0.000000
 40
0.821620
 40
1.643235
 40
2.464846
 40
3.232535
 40
4.000228
 40
4.767922
 40
5.567241
 40
6.366558
 40
7.165874
 40
7.165874
 40
7.165874
 40
7.165874
 10
4.517761
 20
0.402321
 30
0.0
 10
4.791622
 20
0.404937
 30
0.0
 10
5.339342
 20
0.410171
 30
0.0
 10
6.160930
 20
0.416932
 30
0.0
 10
6.964558
 20
0.421417
 30
0.0
 10
7.750222
 20
0.422783
 30
0.0
 10
8.517915
 20
0.421736
 30
0.0
 10
9.296145
 20
0.418735
 30
0.0
 10
10.084909
 20
0.414175
 30
0.0
 10
10.884206
 20
0.408509
 30
0.0
 10
11.417068
 20
0.404384
 30
0.0
 10
11.683499
 20
0.402321
 30
0.0
 11
4.517761
 21
0.402321
 31
0.0
 11
5.339345
 21
0.409989
 31
0.0
 11
6.160934
 21
0.416570
 31
0.0
 11
6.982533
 21
0.420974
 31
0.0
 11
7.750221
 21
0.422386
 31
0.0
 11
8.517913
 21
0.421417
 31
0.0
 11
9.285602
 21
0.418534
 31
0.0
 11
10.084908
 21
0.414001
 31
0.0
 11
10.884206
 21
0.408422
 31
0.0
 11
11.683499
 21
0.402321
 31
0.0
  0
SPLINE
  5
11c
100
AcDbEntity
  8
Layer_1
 62
1
100
AcDbSpline
 70
0
 71
3
 72
25
 73
21
 74
19
 40
0.000000
 40
0.000000
 40
0.000000
 40
0.000000
 40
0.009930
 40
0.019860
 40
0.029791
 40
0.039736
 40
0.049682
 40
0.059626
 40
0.069583
 40
0.079541
 40
0.089502
 40
0.096738
 40
0.103972
 40
0.111203
 40
0.116110
 40
0.121020
 40
0.125928
 40
0.133184
 40
0.140443
 40
0.147705
 40
0.147705
 40
0.147705
 40
0.147705
 10
11.683499
 20
0.402321
 30
0.0
 10
11.684759
 20
0.405381
 30
0.0
 10
11.687280
 20
0.411503
 30
0.0
 10
11.691059
 20
0.420686
 30
0.0
 10
11.694831
 20
0.429878
 30
0.0
 10
11.698594
 20
0.439078
 30
0.0
 10
11.702355
 20
0.448284
 30
0.0
 10
11.706122
 20
0.457493
 30
0.0
 10
11.709901
 20
0.466701
 30
0.0
 10
11.713666
 20
0.475920
 30
0.0
 10
11.717050
 20
0.484315
 30
0.0
 10
11.720046
 20
0.491888
 30
0.0
 10
11.722593
 20
0.498659
 30
0.0
 10
11.724695
 20
0.504766
 30
0.0
 10
11.726362
 20
0.510199
 30
0.0
 10
11.727759
 20
0.514905
 30
0.0
 10
11.729423
 20
0.520347
 30
0.0
 10
11.731515
 20
0.526476
 30
0.0
 10
11.734036
 20
0.533284
 30
0.0
 10
11.735775
 20
0.537801
 30
0.0
 10
11.736645
 20
0.540060
 30
0.0
 11
11.683499
 21
0.402321
 31
0.0
 11
11.687280
 21
0.411503
 31
0.0
 11
11.691057
 21
0.420687
 31
0.0
 11
11.694827
 21
0.429874
 31
0.0
 11
11.698594
 21
0.439079
 31
0.0
 11
11.702356
 21
0.448284
 31
0.0
 11
11.706122
 21
0.457488
 31
0.0
 11
11.709898
 21
0.466702
 31
0.0
 11
11.713658
 21
0.475922
 31
0.0
 11
11.717378
 21
0.485162
 31
0.0
 11
11.720027
 21
0.491896
 31
0.0
 11
11.722562
 21
0.498671
 31
0.0
 11
11.724901
 21
0.505513
 31
0.0
 11
11.726355
 21
0.510201
 31
0.0
 11
11.727765
 21
0.514903
 31
0.0
 11
11.729215
 21
0.519593
 31
0.0
 11
11.731544
 21
0.526465
 31
0.0
 11
11.734050
 21
0.533277
 31
0.0
 11
11.736645
 21
0.540060
 31
0.0
  0
LINE
  5
11d
100
AcDbEntity
  8
Layer_1
 62
1
100
AcDbLine
 10
5.329314
 20
3.765490
 30
0.0
 11
4.792609
 21
3.406310
 31
0.0
  0
LINE
  5
11e
100
AcDbEntity
  8
Layer_1
 62
1
100
AcDbLine
 10
4.792609
 20
3.406310
 30
0.0
 11
2.676406
 21
5.434410
 31
0.0
  0
LINE
  5
11f
100
AcDbEntity
  8
Layer_1
 62
1
100
AcDbLine
 10
2.676406
 20
5.434410
 30
0.0
 11
4.364347
 21
7.122334
 31
0.0
  0
LINE
  5
120
100
AcDbEntity
  8
Layer_1
 62
1
100
AcDbLine
 10
4.364347
 20
7.122334
 30
0.0
 11
6.500686
 21
4.985994
 31
0.0
  0
LINE
  5
121
100
AcDbEntity
  8
Layer_1
 62
1
100
AcDbLine
 10
6.500686
 20
4.985994
 30
0.0
 11
6.949121
 21
5.434410
 31
0.0
  0
LINE
  5
122
100
AcDbEntity
  8
Layer_1
 62
1
100
AcDbLine
 10
6.949121
 20
5.434410
 30
0.0
 11
6.949121
 21
9.089841
 31
0.0
  0
LINE
  5
123
100
AcDbEntity
  8
Layer_1
 62
1
100
AcDbLine
 10
6.949121
 20
9.089841
 30
0.0
 11
6.314941
 21
9.089841
 31
0.0
  0
LINE
  5
124
100
AcDbEntity
  8
Layer_1
 62
1
100
AcDbLine
 10
6.314941
 20
9.089841
 30
0.0
 11
6.314941
 21
6.068591
 31
0.0
  0
LINE
  5
125
100
AcDbEntity
  8
Layer_1
 62
1
100
AcDbLine
 10
6.314941
 20
6.068591
 30
0.0
 11
4.364328
 21
8.019184
 31
0.0
  0
LINE
  5
126
100
AcDbEntity
  8
Layer_1
 62
1
100
AcDbLine
 10
4.364328
 20
8.019184
 30
0.0
 11
3.915911
 21
7.570768
 31
0.0
  0
LINE
  5
127
100
AcDbEntity
  8
Layer_1
 62
1
100
AcDbLine
 10
3.915911
 20
7.570768
 30
0.0
 11
1.779554
 21
5.434410
 31
0.0
  0
LINE
  5
128
100
AcDbEntity
  8
Layer_1
 62
1
100
AcDbLine
 10
1.779554
 20
5.434410
 30
0.0
 11
4.364328
 21
2.849636
 31
0.0
  0
LINE
  5
129
100
AcDbEntity
  8
Layer_1
 62
1
100
AcDbLine
 10
4.364328
 20
2.849636
 30
0.0
 11
4.235170
 21
1.172436
 31
0.0
  0
LINE
  5
12a
100
AcDbEntity
  8
Layer_1
 62
1
100
AcDbLine
 10
4.235170
 20
1.172436
 30
0.0
 11
1.450311
 21
1.153762
 31
0.0
  0
LINE
  5
12b
100
AcDbEntity
  8
Layer_1
 62
1
100
AcDbLine
 10
1.450311
 20
1.153762
 30
0.0
 11
1.450311
 21
4.175014
 31
0.0
  0
LINE
  5
12c
100
AcDbEntity
  8
Layer_1
 62
1
100
AcDbLine
 10
1.450311
 20
4.175014
 30
0.0
 11
-0.686048
 21
6.311371
 31
0.0
  0
LINE
  5
12d
100
AcDbEntity
  8
Layer_1
 62
1
100
AcDbLine
 10
-0.686048
 20
6.311371
 30
0.0
 11
1.450311
 21
8.447729
 31
0.0
  0
LINE
  5
12e
100
AcDbEntity
  8
Layer_1
 62
1
100
AcDbLine
 10
1.450311
 20
8.447729
 30
0.0
 11
1.001875
 21
8.896164
 31
0.0
  0
LINE
  5
12f
100
AcDbEntity
  8
Layer_1
 62
1
100
AcDbLine
 10
1.001875
 20
8.896164
 30
0.0
 11
-1.134483
 21
6.759807
 31
0.0
  0
LINE
  5
130
100
AcDbEntity
  8
Layer_1
 62
1
100
AcDbLine
 10
-1.134483
 20
6.759807
 30
0.0
 11
-1.582900
 21
6.311371
 31
0.0
  0
LINE
  5
131
100
AcDbEntity
  8
Layer_1
 62
1
100
AcDbLine
 10
-1.582900
 20
6.311371
 30
0.0
 11
-1.134483
 21
5.862955
 31
0.0
  0
LINE
  5
132
100
AcDbEntity
  8
Layer_1
 62
1
100
AcDbLine
 10
-1.134483
 20
5.862955
 30
0.0
 11
0.816130
 21
3.912341
 31
0.0
  0
LINE
  5
133
100
AcDbEntity
  8
Layer_1
 62
1
100
AcDbLine
 10
0.816130
 20
3.912341
 30
0.0
 11
0.816130
 21
1.153762
 31
0.0
  0
LINE
  5
134
100
AcDbEntity
  8
Layer_1
 62
1
100
AcDbLine
 10
0.816130
 20
1.153762
 30
0.0
 11
0.816130
 21
0.519583
 31
0.0
  0
LINE
  5
135
100
AcDbEntity
  8
Layer_1
 62
1
100
AcDbLine
 10
0.816130
 20
0.519583
 30
0.0
 11
1.450311
 21
0.519583
 31
0.0
  0
LINE
  5
136
100
AcDbEntity
  8
Layer_1
 62
1
100
AcDbLine
 10
1.450311
 20
0.519583
 30
0.0
 11
4.471561
 21
0.519583
 31
0.0
  0
LINE
  5
137
100
AcDbEntity
  8
Layer_1
 62
7
100
AcDbLine
 10
0.427304
 20
10.370291
 30
0.0
 11
0.497584
 21
10.370291
 31
0.0
  0
LINE
  5
138
100
AcDbEntity
  8
Layer_1
 62
7
100
AcDbLine
 10
0.497584
 20
10.370291
 30
0.0
 11
0.497584
 21
10.569762
 31
0.0
  0
LINE
  5
139
100
AcDbEntity
  8
Layer_1
 62
7
100
AcDbLine
 10
0.497584
 20
10.569762
 30
0.0
 11
0.425444
 21
10.554879
 31
0.0
  0
LINE
  5
13a
100
AcDbEntity
  8
Layer_1
 62
7
100
AcDbLine
 10
0.425444
 20
10.554879
 30
0.0
 11
0.425444
 21
10.609036
 31
0.0
  0
LINE
  5
13b
100
AcDbEntity
  8
Layer_1
 62
7
100
AcDbLine
 10
0.425444
 20
10.609036
 30
0.0
 11
0.497171
 21
10.623919
 31
0.0
  0
LINE
  5
13c
100
AcDbEntity
  8
Layer_1
 62
7
100
AcDbLine
 10
0.497171
 20
10.623919
 30
0.0
 11
0.572825
 21
10.623919
 31
0.0
  0
LINE
  5
13d
100
AcDbEntity
  8
Layer_1
 62
7
100
AcDbLine
 10
0.572825
 20
10.623919
 30
0.0
 11
0.572825
 21
10.370291
 31
0.0
  0
LINE
  5
13e
100
AcDbEntity
  8
Layer_1
 62
7
100
AcDbLine
 10
0.572825
 20
10.370291
 30
0.0
 11
0.643105
 21
10.370291
 31
0.0
  0
LINE
  5
13f
100
AcDbEntity
  8
Layer_1
 62
7
100
AcDbLine
 10
0.643105
 20
10.370291
 30
0.0
 11
0.643105
 21
10.315307
 31
0.0
  0
LINE
  5
140
100
AcDbEntity
  8
Layer_1
 62
7
100
AcDbLine
 10
0.643105
 20
10.315307
 30
0.0
 11
0.427304
 21
10.315307
 31
0.0
  0
LINE
  5
141
100
AcDbEntity
  8
Layer_1
 62
7
100
AcDbLine
 10
0.427304
 20
10.315307
 30
0.0
 11
0.427304
 21
10.370291
 31
0.0
  0
LINE
  5
142
100
AcDbEntity
  8
Layer_1
 62
7
100
AcDbLine
 10
0.427304
 20
10.370291
 30
0.0
 11
0.427304
 21
10.370291
 31
0.0
  0
LINE
  5
143
100
AcDbEntity
  8
Layer_1
 62
7
100
AcDbLine
 10
0.714419
 20
10.322129
 30
0.0
 11
0.714419
 21
10.379180
 31
0.0
  0
SPLINE
  5
144
100
AcDbEntity
  8
Layer_1
 62
1
100
AcDbSpline
 70
0
 71
3
 72
16
 73
12
 74
10
 40
0.000000
 40
0.000000
 40
0.000000
 40
0.000000
 40
0.208928
 40
0.418018
 40
0.627467
 40
0.956795
 40
1.285473
 40
1.612011
 40
2.049209
 40
2.490204
 40
2.934669
 40
2.934669
 40
2.934669
 40
2.934669
 10
10.859894
 20
3.764193
 30
0.0
 10
10.796248
 20
3.792465
 30
0.0
 10
10.668907
 20
3.849032
 30
0.0
 10
10.478409
 20
3.935391
 30
0.0
 10
10.252931
 20
4.041766
 30
0.0
 10
9.995091
 20
4.172679
 30
0.0
 10
9.700631
 20
4.317613
 30
0.0
 10
9.364268
 20
4.458508
 30
0.0
 10
8.975683
 20
4.564640
 30
0.0
 10
8.540743
 20
4.638539
 30
0.0
 10
8.247717
 20
4.674064
 30
0.0
 10
8.100630
 20
4.691895
 30
0.0
 11
10.859894
 21
3.764193
 31
0.0
 11
10.669064
 21
3.849251
 31
0.0
 11
10.478738
 21
3.935822
 31
0.0
 11
10.289420
 21
4.025421
 31
0.0
 11
9.994594
 21
4.172166
 31
0.0
 11
9.698536
 21
4.314922
 31
0.0
 11
9.396297
 21
4.438528
 31
0.0
 11
8.975540
 21
4.557292
 31
0.0
 11
8.541424
 21
4.634886
 31
0.0
 11
8.100630
 21
4.691895
 31
0.0
  0
SPLINE
  5
145
100
AcDbEntity
  8
Layer_1
 62
1
100
AcDbSpline
 70
0
 71
3
 72
16
 73
12
 74
10
 40
0.000000
 40
0.000000
 40
0.000000
 40
0.000000
 40
0.449917
 40
0.896529
 40
1.339540
 40
1.666523
 40
1.995478
 40
2.324989
 40
2.531370
 40
2.737451
 40
2.943402
 40
2.943402
 40
2.943402
 40
2.943402
 10
8.100630
 20
4.691895
 30
0.0
 10
7.951898
 20
4.672585
 30
0.0
 10
7.655526
 20
4.634107
 30
0.0
 10
7.215599
 20
4.556100
 30
0.0
 10
6.823726
 20
4.447215
 30
0.0
 10
6.485392
 20
4.305508
 30
0.0
 10
6.190093
 20
4.161630
 30
0.0
 10
5.932036
 20
4.033071
 30
0.0
 10
5.707265
 20
3.929823
 30
0.0
 10
5.518559
 20
3.846854
 30
0.0
 10
5.392382
 20
3.792606
 30
0.0
 10
5.329314
 20
3.765490
 30
0.0
 11
8.100630
 21
4.691895
 31
0.0
 11
7.654922
 21
4.630508
 31
0.0
 11
7.215832
 21
4.548881
 31
0.0
 11
6.789980
 21
4.426776
 31
0.0
 11
6.487338
 21
4.302982
 31
0.0
 11
6.190469
 21
4.161276
 31
0.0
 11
5.894374
 21
4.016692
 31
0.0
 11
5.706946
 21
3.930296
 31
0.0
 11
5.518408
 21
3.847095
 31
0.0
 11
5.329314
 21
3.765490
 31
0.0
  0
LINE
  5
146
100
AcDbEntity
  8
Layer_1
 62
7
100
AcDbLine
 10
0.714419
 20
10.322129
 30
0.0
 11
0.714419
 21
10.322129
 31
0.0
  0
LINE
  5
147
100
AcDbEntity
  8
Layer_1
 62
7
100
AcDbLine
 10
0.812604
 20
10.470750
 30
0.0
 11
0.812604
 21
10.470750
 31
0.0
  0
LINE
  5
148
100
AcDbEntity
  8
Layer_1
 62
7
100
AcDbLine
 10
1.009594
 20
10.395303
 30
0.0
 11
1.084008
 21
10.395303
 31
0.0
  0
LINE
  5
149
100
AcDbEntity
  8
Layer_1
 62
7
100
AcDbLine
 10
1.084008
 20
10.395303
 30
0.0
 11
1.084008
 21
10.315307
 31
0.0
  0
LINE
  5
14a
100
AcDbEntity
  8
Layer_1
 62
7
100
AcDbLine
 10
1.084008
 20
10.315307
 30
0.0
 11
1.009594
 21
10.315307
 31
0.0
  0
LINE
  5
14b
100
AcDbEntity
  8
Layer_1
 62
7
100
AcDbLine
 10
1.009594
 20
10.315307
 30
0.0
 11
1.009594
 21
10.395303
 31
0.0
  0
LINE
  5
14c
100
AcDbEntity
  8
Layer_1
 62
7
100
AcDbLine
 10
1.009594
 20
10.395303
 30
0.0
 11
1.009594
 21
10.395303
 31
0.0
  0
LINE
  5
14d
100
AcDbEntity
  8
Layer_1
 62
7
100
AcDbLine
 10
1.283479
 20
10.558393
 30
0.0
 11
1.196250
 21
10.429202
 31
0.0
  0
LINE
  5
14e
100
AcDbEntity
  8
Layer_1
 62
7
100
AcDbLine
 10
1.196250
 20
10.429202
 30
0.0
 11
1.283479
 21
10.429202
 31
0.0
  0
LINE
  5
14f
100
AcDbEntity
  8
Layer_1
 62
7
100
AcDbLine
 10
1.283479
 20
10.429202
 30
0.0
 11
1.283479
 21
10.558393
 31
0.0
  0
LINE
  5
150
100
AcDbEntity
  8
Layer_1
 62
7
100
AcDbLine
 10
1.283479
 20
10.558393
 30
0.0
 11
1.283479
 21
10.558393
 31
0.0
  0
LINE
  5
151
100
AcDbEntity
  8
Layer_1
 62
7
100
AcDbLine
 10
1.270250
 20
10.623919
 30
0.0
 11
1.358720
 21
10.623919
 31
0.0
  0
LINE
  5
152
100
AcDbEntity
  8
Layer_1
 62
7
100
AcDbLine
 10
1.358720
 20
10.623919
 30
0.0
 11
1.358720
 21
10.429202
 31
0.0
  0
LINE
  5
153
100
AcDbEntity
  8
Layer_1
 62
7
100
AcDbLine
 10
1.358720
 20
10.429202
 30
0.0
 11
1.402749
 21
10.429202
 31
0.0
  0
LINE
  5
154
100
AcDbEntity
  8
Layer_1
 62
7
100
AcDbLine
 10
1.402749
 20
10.429202
 30
0.0
 11
1.402749
 21
10.371531
 31
0.0
  0
LINE
  5
155
100
AcDbEntity
  8
Layer_1
 62
7
100
AcDbLine
 10
1.402749
 20
10.371531
 30
0.0
 11
1.358720
 21
10.371531
 31
0.0
  0
LINE
  5
156
100
AcDbEntity
  8
Layer_1
 62
7
100
AcDbLine
 10
1.358720
 20
10.371531
 30
0.0
 11
1.358720
 21
10.315307
 31
0.0
  0
LINE
  5
157
100
AcDbEntity
  8
Layer_1
 62
7
100
AcDbLine
 10
1.358720
 20
10.315307
 30
0.0
 11
1.283479
 21
10.315307
 31
0.0
  0
LINE
  5
158
100
AcDbEntity
  8
Layer_1
 62
7
100
AcDbLine
 10
1.283479
 20
10.315307
 30
0.0
 11
1.283479
 21
10.371531
 31
0.0
  0
LINE
  5
159
100
AcDbEntity
  8
Layer_1
 62
7
100
AcDbLine
 10
1.283479
 20
10.371531
 30
0.0
 11
1.146640
 21
10.371531
 31
0.0
  0
LINE
  5
15a
100
AcDbEntity
  8
Layer_1
 62
7
100
AcDbLine
 10
1.146640
 20
10.371531
 30
0.0
 11
1.146640
 21
10.439744
 31
0.0
  0
LINE
  5
15b
100
AcDbEntity
  8
Layer_1
 62
7
100
AcDbLine
 10
1.146640
 20
10.439744
 30
0.0
 11
1.270250
 21
10.623919
 31
0.0
  0
LINE
  5
15c
100
AcDbEntity
  8
Layer_1
 62
7
100
AcDbLine
 10
1.270250
 20
10.623919
 30
0.0
 11
1.270250
 21
10.623919
 31
0.0
  0
LINE
  5
15d
100
AcDbEntity
  8
Layer_1
 62
7
100
AcDbLine
 10
1.663198
 20
10.433750
 30
0.0
 11
1.579689
 21
10.546818
 31
0.0
  0
LINE
  5
15e
100
AcDbEntity
  8
Layer_1
 62
7
100
AcDbLine
 10
1.579689
 20
10.546818
 30
0.0
 11
1.658030
 21
10.546818
 31
0.0
  0
LINE
  5
15f
100
AcDbEntity
  8
Layer_1
 62
7
100
AcDbLine
 10
1.658030
 20
10.546818
 30
0.0
 11
1.705366
 21
10.478192
 31
0.0
  0
LINE
  5
160
100
AcDbEntity
  8
Layer_1
 62
7
100
AcDbLine
 10
1.705366
 20
10.478192
 30
0.0
 11
1.753322
 21
10.546818
 31
0.0
  0
LINE
  5
161
100
AcDbEntity
  8
Layer_1
 62
7
100
AcDbLine
 10
1.753322
 20
10.546818
 30
0.0
 11
1.831663
 21
10.546818
 31
0.0
  0
LINE
  5
162
100
AcDbEntity
  8
Layer_1
 62
7
100
AcDbLine
 10
1.831663
 20
10.546818
 30
0.0
 11
1.748154
 21
10.434163
 31
0.0
  0
LINE
  5
163
100
AcDbEntity
  8
Layer_1
 62
7
100
AcDbLine
 10
1.748154
 20
10.434163
 30
0.0
 11
1.835797
 21
10.315307
 31
0.0
  0
LINE
  5
164
100
AcDbEntity
  8
Layer_1
 62
7
100
AcDbLine
 10
1.835797
 20
10.315307
 30
0.0
 11
1.757456
 21
10.315307
 31
0.0
  0
LINE
  5
165
100
AcDbEntity
  8
Layer_1
 62
7
100
AcDbLine
 10
1.757456
 20
10.315307
 30
0.0
 11
1.705366
 21
10.388481
 31
0.0
  0
LINE
  5
166
100
AcDbEntity
  8
Layer_1
 62
7
100
AcDbLine
 10
1.705366
 20
10.388481
 30
0.0
 11
1.653896
 21
10.315307
 31
0.0
  0
LINE
  5
167
100
AcDbEntity
  8
Layer_1
 62
7
100
AcDbLine
 10
1.653896
 20
10.315307
 30
0.0
 11
1.575555
 21
10.315307
 31
0.0
  0
LINE
  5
168
100
AcDbEntity
  8
Layer_1
 62
7
100
AcDbLine
 10
1.575555
 20
10.315307
 30
0.0
 11
1.663198
 21
10.433750
 31
0.0
  0
LINE
  5
169
100
AcDbEntity
  8
Layer_1
 62
7
100
AcDbLine
 10
1.663198
 20
10.433750
 30
0.0
 11
1.663198
 21
10.433750
 31
0.0
  0
SPLINE
  5
16a
100
AcDbEntity
  8
Layer_1
 62
7
100
AcDbSpline
 70
0
 71
3
 72
151
 73
147
 74
145
 40
0.000000
 40
0.000000
 40
0.000000
 40
0.000000
 40
0.004543
 40
0.009086
 40
0.013629
 40
0.017939
 40
0.022249
 40
0.026559
 40
0.030649
 40
0.034741
 40
0.038833
 40
0.042761
 40
0.046688
 40
0.050613
 40
0.054456
 40
0.058300
 40
0.062145
 40
0.065932
 40
0.069718
 40
0.073504
 40
0.080860
 40
0.088221
 40
0.095604
 40
0.102183
 40
0.108743
 40
0.115260
 40
0.121410
 40
0.127594
 40
0.133812
 40
0.140217
 40
0.146598
 40
0.152954
 40
0.159968
 40
0.167016
 40
0.174074
 40
0.182137
 40
0.190188
 40
0.198242
 40
0.202069
 40
0.205894
 40
0.209716
 40
0.213466
 40
0.217217
 40
0.220970
 40
0.224691
 40
0.228410
 40
0.232129
 40
0.235890
 40
0.239652
 40
0.243415
 40
0.247295
 40
0.251175
 40
0.255054
 40
0.259094
 40
0.263135
 40
0.267176
 40
0.277078
 40
0.286988
 40
0.296922
 40
0.306011
 40
0.315077
 40
0.324094
 40
0.332840
 40
0.341629
 40
0.350459
 40
0.359170
 40
0.367838
 40
0.376463
 40
0.385155
 40
0.393896
 40
0.402654
 40
0.412119
 40
0.421564
 40
0.431007
 40
0.441422
 40
0.451843
 40
0.462288
 40
0.471919
 40
0.481527
 40
0.491076
 40
0.500544
 40
0.510062
 40
0.519632
 40
0.529446
 40
0.539214
 40
0.548934
 40
0.559124
 40
0.569370
 40
0.579640
 40
0.590996
 40
0.602327
 40
0.613665
 40
0.626193
 40
0.638718
 40
0.651239
 40
0.662607
 40
0.673976
 40
0.685334
 40
0.696627
 40
0.707930
 40
0.719235
 40
0.731252
 40
0.743268
 40
0.755282
 40
0.768614
 40
0.781949
 40
0.795290
 40
0.810649
 40
0.826003
 40
0.841356
 40
0.857213
 40
0.873072
 40
0.888969
 40
0.903098
 40
0.917193
 40
0.931208
 40
0.944241
 40
0.957337
 40
0.970493
 40
0.983171
 40
0.995777
 40
1.008311
 40
1.021033
 40
1.033839
 40
1.046677
 40
1.060738
 40
1.074764
 40
1.088777
 40
1.093534
 40
1.098290
 40
1.103046
 40
1.107679
 40
1.112310
 40
1.116941
 40
1.121461
 40
1.125981
 40
1.130503
 40
1.134957
 40
1.139411
 40
1.143864
 40
1.148310
 40
1.152757
 40
1.157202
 40
1.161653
 40
1.166105
 40
1.170556
 40
1.170556
 40
1.170556
 40
1.170556
 10
0.714419
 20
10.379180
 30
0.0
 10
0.715800
 20
10.378559
 30
0.0
 10
0.718563
 20
10.377319
 30
0.0
 10
0.722721
 20
10.375488
 30
0.0
 10
0.726835
 20
10.373751
 30
0.0
 10
0.730913
 20
10.372132
 30
0.0
 10
0.734955
 20
10.370634
 30
0.0
 10
0.738965
 20
10.369264
 30
0.0
 10
0.742937
 20
10.368015
 30
0.0
 10
0.746868
 20
10.366882
 30
0.0
 10
0.750730
 20
10.365696
 30
0.0
 10
0.754633
 20
10.364890
 30
0.0
 10
0.758467
 20
10.364044
 30
0.0
 10
0.762298
 20
10.363317
 30
0.0
 10
0.766122
 20
10.362715
 30
0.0
 10
0.769937
 20
10.362238
 30
0.0
 10
0.773745
 20
10.361870
 30
0.0
 10
0.777543
 20
10.361603
 30
0.0
 10
0.781326
 20
10.361439
 30
0.0
 10
0.786302
 20
10.361366
 30
0.0
 10
0.792471
 20
10.361551
 30
0.0
 10
0.799810
 20
10.362254
 30
0.0
 10
0.806824
 20
10.363445
 30
0.0
 10
0.813471
 20
10.365090
 30
0.0
 10
0.819679
 20
10.367218
 30
0.0
 10
0.825489
 20
10.369957
 30
0.0
 10
0.830818
 20
10.373322
 30
0.0
 10
0.835664
 20
10.377147
 30
0.0
 10
0.840793
 20
10.380844
 30
0.0
 10
0.844533
 20
10.386026
 30
0.0
 10
0.848518
 20
10.390993
 30
0.0
 10
0.852140
 20
10.396513
 30
0.0
 10
0.855238
 20
10.402578
 30
0.0
 10
0.857803
 20
10.409178
 30
0.0
 10
0.859833
 20
10.416170
 30
0.0
 10
0.861734
 20
10.424163
 30
0.0
 10
0.861991
 20
10.430445
 30
0.0
 10
0.866022
 20
10.442175
 30
0.0
 10
0.860538
 20
10.437269
 30
0.0
 10
0.857592
 20
10.435517
 30
0.0
 10
0.854312
 20
10.433396
 30
0.0
 10
0.851045
 20
10.431559
 30
0.0
 10
0.847705
 20
10.429833
 30
0.0
 10
0.844317
 20
10.428246
 30
0.0
 10
0.840887
 20
10.426777
 30
0.0
 10
0.837418
 20
10.425434
 30
0.0
 10
0.833888
 20
10.424214
 30
0.0
 10
0.830301
 20
10.423127
 30
0.0
 10
0.826662
 20
10.422171
 30
0.0
 10
0.822951
 20
10.421340
 30
0.0
 10
0.819174
 20
10.420637
 30
0.0
 10
0.815336
 20
10.420065
 30
0.0
 10
0.811427
 20
10.419620
 30
0.0
 10
0.807452
 20
10.419307
 30
0.0
 10
0.803415
 20
10.419121
 30
0.0
 10
0.797421
 20
10.419025
 30
0.0
 10
0.789467
 20
10.419263
 30
0.0
 10
0.779594
 20
10.420265
 30
0.0
 10
0.770089
 20
10.421952
 30
0.0
 10
0.761010
 20
10.424278
 30
0.0
 10
0.752447
 20
10.427274
 30
0.0
 10
0.744344
 20
10.431099
 30
0.0
 10
0.736805
 20
10.435781
 30
0.0
 10
0.729843
 20
10.441124
 30
0.0
 10
0.722635
 20
10.446237
 30
0.0
 10
0.717175
 20
10.453131
 30
0.0
 10
0.711569
 20
10.459728
 30
0.0
 10
0.706656
 20
10.466891
 30
0.0
 10
0.702627
 20
10.474607
 30
0.0
 10
0.699454
 20
10.482758
 30
0.0
 10
0.696988
 20
10.491412
 30
0.0
 10
0.695228
 20
10.500477
 30
0.0
 10
0.694190
 20
10.509881
 30
0.0
 10
0.693838
 20
10.519650
 30
0.0
 10
0.694180
 20
10.529747
 30
0.0
 10
0.695349
 20
10.540119
 30
0.0
 10
0.697334
 20
10.550102
 30
0.0
 10
0.700089
 20
10.559618
 30
0.0
 10
0.703620
 20
10.568560
 30
0.0
 10
0.708104
 20
10.577006
 30
0.0
 10
0.713581
 20
10.584818
 30
0.0
 10
0.719825
 20
10.591987
 30
0.0
 10
0.725947
 20
10.599509
 30
0.0
 10
0.734008
 20
10.605054
 30
0.0
 10
0.741826
 20
10.610888
 30
0.0
 10
0.750321
 20
10.616008
 30
0.0
 10
0.759487
 20
10.620183
 30
0.0
 10
0.769207
 20
10.623438
 30
0.0
 10
0.779538
 20
10.625957
 30
0.0
 10
0.790380
 20
10.627786
 30
0.0
 10
0.801679
 20
10.628871
 30
0.0
 10
0.813414
 20
10.629215
 30
0.0
 10
0.825547
 20
10.628785
 30
0.0
 10
0.838005
 20
10.627353
 30
0.0
 10
0.849904
 20
10.624854
 30
0.0
 10
0.861123
 20
10.621291
 30
0.0
 10
0.871575
 20
10.616776
 30
0.0
 10
0.881466
 20
10.611182
 30
0.0
 10
0.890638
 20
10.604510
 30
0.0
 10
0.899025
 20
10.596906
 30
0.0
 10
0.906752
 20
10.588307
 30
0.0
 10
0.913703
 20
10.578772
 30
0.0
 10
0.919815
 20
10.568406
 30
0.0
 10
0.925164
 20
10.557143
 30
0.0
 10
0.929660
 20
10.545040
 30
0.0
 10
0.933276
 20
10.532191
 30
0.0
 10
0.936115
 20
10.518460
 30
0.0
 10
0.938152
 20
10.503906
 30
0.0
 10
0.939326
 20
10.488587
 30
0.0
 10
0.939650
 20
10.473062
 30
0.0
 10
0.939196
 20
10.457372
 30
0.0
 10
0.937820
 20
10.441550
 30
0.0
 10
0.935503
 20
10.426420
 30
0.0
 10
0.932294
 20
10.412055
 30
0.0
 10
0.928117
 20
10.398588
 30
0.0
 10
0.922718
 20
10.385952
 30
0.0
 10
0.916081
 20
10.374292
 30
0.0
 10
0.908533
 20
10.363616
 30
0.0
 10
0.901456
 20
10.352620
 30
0.0
 10
0.891587
 20
10.344302
 30
0.0
 10
0.882252
 20
10.335857
 30
0.0
 10
0.871995
 20
10.328434
 30
0.0
 10
0.860822
 20
10.322356
 30
0.0
 10
0.848932
 20
10.317581
 30
0.0
 10
0.836210
 20
10.313868
 30
0.0
 10
0.822809
 20
10.311224
 30
0.0
 10
0.808847
 20
10.309671
 30
0.0
 10
0.797913
 20
10.309275
 30
0.0
 10
0.790071
 20
10.309328
 30
0.0
 10
0.785316
 20
10.309457
 30
0.0
 10
0.780605
 20
10.309667
 30
0.0
 10
0.775940
 20
10.309945
 30
0.0
 10
0.771322
 20
10.310305
 30
0.0
 10
0.766750
 20
10.310761
 30
0.0
 10
0.762227
 20
10.311321
 30
0.0
 10
0.757752
 20
10.311962
 30
0.0
 10
0.753296
 20
10.312587
 30
0.0
 10
0.748892
 20
10.313390
 30
0.0
 10
0.744508
 20
10.314175
 30
0.0
 10
0.740141
 20
10.315038
 30
0.0
 10
0.735797
 20
10.315997
 30
0.0
 10
0.731478
 20
10.317054
 30
0.0
 10
0.727182
 20
10.318209
 30
0.0
 10
0.722912
 20
10.319461
 30
0.0
 10
0.718661
 20
10.320779
 30
0.0
 10
0.715833
 20
10.321679
 30
0.0
 10
0.714419
 20
10.322129
 30
0.0
 11
0.714419
 21
10.379180
 31
0.0
 11
0.718565
 21
10.377324
 31
0.0
 11
0.722726
 21
10.375499
 31
0.0
 11
0.726913
 21
10.373736
 31
0.0
 11
0.730919
 21
10.372147
 31
0.0
 11
0.734962
 21
10.370651
 31
0.0
 11
0.739040
 21
10.369258
 31
0.0
 11
0.742942
 21
10.368031
 31
0.0
 11
0.746865
 21
10.366870
 31
0.0
 11
0.750799
 21
10.365744
 31
0.0
 11
0.754631
 21
10.364881
 31
0.0
 11
0.758472
 21
10.364063
 31
0.0
 11
0.762328
 21
10.363332
 31
0.0
 11
0.766125
 21
10.362735
 31
0.0
 11
0.769939
 21
10.362256
 31
0.0
 11
0.773766
 21
10.361885
 31
0.0
 11
0.777544
 21
10.361620
 31
0.0
 11
0.781327
 21
10.361457
 31
0.0
 11
0.785112
 21
10.361403
 31
0.0
 11
0.792464
 21
10.361631
 31
0.0
 11
0.799791
 21
10.362342
 31
0.0
 11
0.807069
 21
10.363585
 31
0.0
 11
0.813450
 21
10.365184
 31
0.0
 11
0.819647
 21
10.367335
 31
0.0
 11
0.825534
 21
10.370130
 31
0.0
 11
0.830742
 21
10.373401
 31
0.0
 11
0.835691
 21
10.377110
 31
0.0
 11
0.840509
 21
10.381040
 31
0.0
 11
0.844574
 21
10.385990
 31
0.0
 11
0.848444
 21
10.391064
 31
0.0
 11
0.851924
 21
10.396382
 31
0.0
 11
0.855127
 21
10.402622
 31
0.0
 11
0.857697
 21
10.409185
 31
0.0
 11
0.859710
 21
10.415950
 31
0.0
 11
0.861447
 21
10.423824
 31
0.0
 11
0.862762
 21
10.431767
 31
0.0
 11
0.863867
 21
10.439744
 31
0.0
 11
0.860714
 21
10.437574
 31
0.0
 11
0.857532
 21
10.435453
 31
0.0
 11
0.854289
 21
10.433428
 31
0.0
 11
0.851030
 21
10.431576
 31
0.0
 11
0.847696
 21
10.429856
 31
0.0
 11
0.844299
 21
10.428261
 31
0.0
 11
0.840878
 21
10.426797
 31
0.0
 11
0.837409
 21
10.425455
 31
0.0
 11
0.833895
 21
10.424241
 31
0.0
 11
0.830295
 21
10.423149
 31
0.0
 11
0.826656
 21
10.422193
 31
0.0
 11
0.822985
 21
10.421370
 31
0.0
 11
0.819170
 21
10.420660
 31
0.0
 11
0.815333
 21
10.420087
 31
0.0
 11
0.811478
 21
10.419648
 31
0.0
 11
0.807451
 21
10.419329
 31
0.0
 11
0.803415
 21
10.419141
 31
0.0
 11
0.799375
 21
10.419074
 31
0.0
 11
0.789477
 21
10.419380
 31
0.0
 11
0.779618
 21
10.420386
 31
0.0
 11
0.769839
 21
10.422129
 31
0.0
 11
0.761039
 21
10.424405
 31
0.0
 11
0.752491
 21
10.427427
 31
0.0
 11
0.744345
 21
10.431293
 31
0.0
 11
0.736904
 21
10.435889
 31
0.0
 11
0.729811
 21
10.441079
 31
0.0
 11
0.722894
 21
10.446566
 31
0.0
 11
0.717134
 21
10.453102
 31
0.0
 11
0.711675
 21
10.459834
 31
0.0
 11
0.706816
 21
10.466961
 31
0.0
 11
0.702779
 21
10.474658
 31
0.0
 11
0.699586
 21
10.482795
 31
0.0
 11
0.697170
 21
10.491214
 31
0.0
 11
0.695355
 21
10.500503
 31
0.0
 11
0.694307
 21
10.509890
 31
0.0
 11
0.693955
 21
10.519326
 31
0.0
 11
0.694316
 21
10.529735
 31
0.0
 11
0.695493
 21
10.540089
 31
0.0
 11
0.697538
 21
10.550332
 31
0.0
 11
0.700235
 21
10.559578
 31
0.0
 11
0.703791
 21
10.568503
 31
0.0
 11
0.708286
 21
10.576928
 31
0.0
 11
0.713697
 21
10.584697
 31
0.0
 11
0.719781
 21
10.592018
 31
0.0
 11
0.726201
 21
10.599114
 31
0.0
 11
0.733973
 21
10.605106
 31
0.0
 11
0.741933
 21
10.610767
 31
0.0
 11
0.750271
 21
10.615766
 31
0.0
 11
0.759534
 21
10.620010
 31
0.0
 11
0.769239
 21
10.623297
 31
0.0
 11
0.779209
 21
10.625757
 31
0.0
 11
0.790406
 21
10.627653
 31
0.0
 11
0.801685
 21
10.628745
 31
0.0
 11
0.813017
 21
10.629087
 31
0.0
 11
0.825537
 21
10.628620
 31
0.0
 11
0.837976
 21
10.627162
 31
0.0
 11
0.850224
 21
10.624562
 31
0.0
 11
0.861056
 21
10.621113
 31
0.0
 11
0.871488
 21
10.616592
 31
0.0
 11
0.881368
 21
10.610988
 31
0.0
 11
0.890507
 21
10.604355
 31
0.0
 11
0.898887
 21
10.596771
 31
0.0
 11
0.906448
 21
10.588366
 31
0.0
 11
0.913540
 21
10.578665
 31
0.0
 11
0.919657
 21
10.568322
 31
0.0
 11
0.924822
 21
10.557475
 31
0.0
 11
0.929487
 21
10.544986
 31
0.0
 11
0.933123
 21
10.532156
 31
0.0
 11
0.935846
 21
10.519096
 31
0.0
 11
0.937992
 21
10.503888
 31
0.0
 11
0.939183
 21
10.488580
 31
0.0
 11
0.939521
 21
10.473231
 31
0.0
 11
0.939044
 21
10.457381
 31
0.0
 11
0.937650
 21
10.441583
 31
0.0
 11
0.935226
 21
10.425872
 31
0.0
 11
0.932106
 21
10.412092
 31
0.0
 11
0.927881
 21
10.398645
 31
0.0
 11
0.922342
 21
10.385771
 31
0.0
 11
0.915917
 21
10.374432
 31
0.0
 11
0.908612
 21
10.363562
 31
0.0
 11
0.900867
 21
10.352928
 31
0.0
 11
0.891631
 21
10.344242
 31
0.0
 11
0.882082
 21
10.336013
 31
0.0
 11
0.871905
 21
10.328697
 31
0.0
 11
0.860743
 21
10.322593
 31
0.0
 11
0.848875
 21
10.317783
 31
0.0
 11
0.836559
 21
10.314159
 31
0.0
 11
0.822768
 21
10.311417
 31
0.0
 11
0.808831
 21
10.309845
 31
0.0
 11
0.794827
 21
10.309313
 31
0.0
 11
0.790071
 21
10.309344
 31
0.0
 11
0.785316
 21
10.309471
 31
0.0
 11
0.780564
 21
10.309681
 31
0.0
 11
0.775940
 21
10.309959
 31
0.0
 11
0.771323
 21
10.310322
 31
0.0
 11
0.766715
 21
10.310783
 31
0.0
 11
0.762229
 21
10.311335
 31
0.0
 11
0.757752
 21
10.311960
 31
0.0
 11
0.753279
 21
10.312621
 31
0.0
 11
0.748892
 21
10.313388
 31
0.0
 11
0.744510
 21
10.314188
 31
0.0
 11
0.740142
 21
10.315055
 31
0.0
 11
0.735801
 21
10.316013
 31
0.0
 11
0.731482
 21
10.317070
 31
0.0
 11
0.727188
 21
10.318224
 31
0.0
 11
0.722916
 21
10.319472
 31
0.0
 11
0.718662
 21
10.320784
 31
0.0
 11
0.714419
 21
10.322129
 31
0.0
  0
LINE
  5
16b
100
AcDbEntity
  8
Layer_1
 62
7
100
AcDbLine
 10
2.136554
 20
10.453387
 30
0.0
 11
2.136554
 21
10.453387
 31
0.0
  0
SPLINE
  5
16c
100
AcDbEntity
  8
Layer_1
 62
7
100
AcDbSpline
 70
0
 71
3
 72
79
 73
75
 74
73
 40
0.000000
 40
0.000000
 40
0.000000
 40
0.000000
 40
0.004307
 40
0.008597
 40
0.012873
 40
0.016677
 40
0.020493
 40
0.024311
 40
0.028020
 40
0.031726
 40
0.035427
 40
0.039468
 40
0.043515
 40
0.047566
 40
0.052251
 40
0.056931
 40
0.061611
 40
0.067148
 40
0.072686
 40
0.078227
 40
0.083730
 40
0.089229
 40
0.094728
 40
0.099388
 40
0.104047
 40
0.108707
 40
0.112747
 40
0.116786
 40
0.120823
 40
0.124555
 40
0.128289
 40
0.132018
 40
0.135836
 40
0.139658
 40
0.143479
 40
0.147773
 40
0.152068
 40
0.156370
 40
0.160673
 40
0.164968
 40
0.169261
 40
0.173083
 40
0.176905
 40
0.180722
 40
0.184452
 40
0.188185
 40
0.191917
 40
0.195954
 40
0.199993
 40
0.204034
 40
0.208694
 40
0.213353
 40
0.218013
 40
0.223512
 40
0.229011
 40
0.234514
 40
0.240055
 40
0.245592
 40
0.251129
 40
0.255810
 40
0.260490
 40
0.265174
 40
0.269226
 40
0.273273
 40
0.277313
 40
0.281014
 40
0.284721
 40
0.288430
 40
0.292248
 40
0.296064
 40
0.299867
 40
0.304144
 40
0.308434
 40
0.312741
 40
0.312741
 40
0.312741
 40
0.312741
 10
0.812604
 20
10.470750
 30
0.0
 10
0.814037
 20
10.470830
 30
0.0
 10
0.816899
 20
10.470988
 30
0.0
 10
0.821172
 20
10.471399
 30
0.0
 10
0.825238
 20
10.472130
 30
0.0
 10
0.829042
 20
10.473281
 30
0.0
 10
0.832556
 20
10.474777
 30
0.0
 10
0.835855
 20
10.476641
 30
0.0
 10
0.838889
 20
10.478850
 30
0.0
 10
0.841630
 20
10.481354
 30
0.0
 10
0.844152
 20
10.484229
 30
0.0
 10
0.846387
 20
10.487472
 30
0.0
 10
0.848321
 20
10.491033
 30
0.0
 10
0.850012
 20
10.494949
 30
0.0
 10
0.851441
 20
10.499192
 30
0.0
 10
0.852589
 20
10.503735
 30
0.0
 10
0.853488
 20
10.508622
 30
0.0
 10
0.854128
 20
10.513838
 30
0.0
 10
0.854495
 20
10.519367
 30
0.0
 10
0.854601
 20
10.524894
 30
0.0
 10
0.854493
 20
10.530409
 30
0.0
 10
0.854126
 20
10.535900
 30
0.0
 10
0.853487
 20
10.541083
 30
0.0
 10
0.852590
 20
10.545943
 30
0.0
 10
0.851442
 20
10.550463
 30
0.0
 10
0.850011
 20
10.554686
 30
0.0
 10
0.848314
 20
10.558584
 30
0.0
 10
0.846375
 20
10.562134
 30
0.0
 10
0.844142
 20
10.565385
 30
0.0
 10
0.841630
 20
10.568292
 30
0.0
 10
0.838894
 20
10.570840
 30
0.0
 10
0.835863
 20
10.573080
 30
0.0
 10
0.832560
 20
10.574955
 30
0.0
 10
0.829041
 20
10.576462
 30
0.0
 10
0.825238
 20
10.577653
 30
0.0
 10
0.821180
 20
10.578492
 30
0.0
 10
0.816905
 20
10.578970
 30
0.0
 10
0.812604
 20
10.579111
 30
0.0
 10
0.808303
 20
10.578970
 30
0.0
 10
0.804027
 20
10.578491
 30
0.0
 10
0.799969
 20
10.577653
 30
0.0
 10
0.796166
 20
10.576462
 30
0.0
 10
0.792648
 20
10.574955
 30
0.0
 10
0.789344
 20
10.573080
 30
0.0
 10
0.786314
 20
10.570840
 30
0.0
 10
0.783577
 20
10.568292
 30
0.0
 10
0.781066
 20
10.565385
 30
0.0
 10
0.778832
 20
10.562134
 30
0.0
 10
0.776894
 20
10.558584
 30
0.0
 10
0.775196
 20
10.554686
 30
0.0
 10
0.773765
 20
10.550463
 30
0.0
 10
0.772618
 20
10.545943
 30
0.0
 10
0.771721
 20
10.541083
 30
0.0
 10
0.771082
 20
10.535900
 30
0.0
 10
0.770715
 20
10.530409
 30
0.0
 10
0.770607
 20
10.524894
 30
0.0
 10
0.770712
 20
10.519367
 30
0.0
 10
0.771079
 20
10.513838
 30
0.0
 10
0.771720
 20
10.508622
 30
0.0
 10
0.772619
 20
10.503735
 30
0.0
 10
0.773767
 20
10.499192
 30
0.0
 10
0.775196
 20
10.494949
 30
0.0
 10
0.776886
 20
10.491033
 30
0.0
 10
0.778821
 20
10.487472
 30
0.0
 10
0.781056
 20
10.484229
 30
0.0
 10
0.783577
 20
10.481354
 30
0.0
 10
0.786318
 20
10.478850
 30
0.0
 10
0.789352
 20
10.476641
 30
0.0
 10
0.792651
 20
10.474777
 30
0.0
 10
0.796166
 20
10.473281
 30
0.0
 10
0.799969
 20
10.472130
 30
0.0
 10
0.804035
 20
10.471399
 30
0.0
 10
0.808309
 20
10.470988
 30
0.0
 10
0.811170
 20
10.470830
 30
0.0
 10
0.812604
 20
10.470750
 30
0.0
 11
0.812604
 21
10.470750
 31
0.0
 11
0.816903
 21
10.471017
 31
0.0
 11
0.821170
 21
10.471458
 31
0.0
 11
0.825374
 21
10.472243
 31
0.0
 11
0.829014
 21
10.473344
 31
0.0
 11
0.832524
 21
10.474841
 31
0.0
 11
0.835847
 21
10.476722
 31
0.0
 11
0.838846
 21
10.478904
 31
0.0
 11
0.841583
 21
10.481403
 31
0.0
 11
0.844023
 21
10.484186
 31
0.0
 11
0.846325
 21
10.487507
 31
0.0
 11
0.848266
 21
10.491058
 31
0.0
 11
0.849880
 21
10.494774
 31
0.0
 11
0.851383
 21
10.499210
 31
0.0
 11
0.852539
 21
10.503746
 31
0.0
 11
0.853394
 21
10.508348
 31
0.0
 11
0.854077
 21
10.513842
 31
0.0
 11
0.854452
 21
10.519367
 31
0.0
 11
0.854565
 21
10.524907
 31
0.0
 11
0.854449
 21
10.530408
 31
0.0
 11
0.854075
 21
10.535895
 31
0.0
 11
0.853394
 21
10.541352
 31
0.0
 11
0.852540
 21
10.545932
 31
0.0
 11
0.851384
 21
10.550446
 31
0.0
 11
0.849880
 21
10.554856
 31
0.0
 11
0.848260
 21
10.558558
 31
0.0
 11
0.846316
 21
10.562099
 31
0.0
 11
0.844023
 21
10.565421
 31
0.0
 11
0.841582
 21
10.568245
 31
0.0
 11
0.838848
 21
10.570786
 31
0.0
 11
0.835847
 21
10.573001
 31
0.0
 11
0.832530
 21
10.574890
 31
0.0
 11
0.829019
 21
10.576402
 31
0.0
 11
0.825374
 21
10.577548
 31
0.0
 11
0.821171
 21
10.578426
 31
0.0
 11
0.816903
 21
10.578914
 31
0.0
 11
0.812604
 21
10.579064
 31
0.0
 11
0.808304
 21
10.578913
 31
0.0
 11
0.804037
 21
10.578426
 31
0.0
 11
0.799834
 21
10.577548
 31
0.0
 11
0.796189
 21
10.576402
 31
0.0
 11
0.792678
 21
10.574890
 31
0.0
 11
0.789361
 21
10.573001
 31
0.0
 11
0.786360
 21
10.570786
 31
0.0
 11
0.783626
 21
10.568245
 31
0.0
 11
0.781185
 21
10.565421
 31
0.0
 11
0.778892
 21
10.562099
 31
0.0
 11
0.776948
 21
10.558558
 31
0.0
 11
0.775328
 21
10.554856
 31
0.0
 11
0.773823
 21
10.550446
 31
0.0
 11
0.772668
 21
10.545932
 31
0.0
 11
0.771814
 21
10.541352
 31
0.0
 11
0.771133
 21
10.535895
 31
0.0
 11
0.770758
 21
10.530408
 31
0.0
 11
0.770643
 21
10.524907
 31
0.0
 11
0.770756
 21
10.519367
 31
0.0
 11
0.771131
 21
10.513842
 31
0.0
 11
0.771814
 21
10.508348
 31
0.0
 11
0.772669
 21
10.503746
 31
0.0
 11
0.773824
 21
10.499210
 31
0.0
 11
0.775328
 21
10.494774
 31
0.0
 11
0.776942
 21
10.491058
 31
0.0
 11
0.778883
 21
10.487507
 31
0.0
 11
0.781185
 21
10.484186
 31
0.0
 11
0.783625
 21
10.481403
 31
0.0
 11
0.786361
 21
10.478904
 31
0.0
 11
0.789361
 21
10.476722
 31
0.0
 11
0.792684
 21
10.474841
 31
0.0
 11
0.796193
 21
10.473344
 31
0.0
 11
0.799834
 21
10.472243
 31
0.0
 11
0.804038
 21
10.471458
 31
0.0
 11
0.808305
 21
10.471018
 31
0.0
 11
0.812604
 21
10.470750
 31
0.0
  0
SPLINE
  5
16d
100
AcDbEntity
  8
Layer_1
 62
7
100
AcDbSpline
 70
0
 71
3
 72
79
 73
75
 74
73
 40
0.000000
 40
0.000000
 40
0.000000
 40
0.000000
 40
0.004616
 40
0.009219
 40
0.013814
 40
0.017866
 40
0.021927
 40
0.025989
 40
0.029798
 40
0.033604
 40
0.037407
 40
0.041232
 40
0.045060
 40
0.048887
 40
0.053000
 40
0.057115
 40
0.061230
 40
0.065919
 40
0.070608
 40
0.075303
 40
0.079997
 40
0.084686
 40
0.089375
 40
0.093489
 40
0.097604
 40
0.101718
 40
0.105546
 40
0.109375
 40
0.113200
 40
0.116981
 40
0.120766
 40
0.124550
 40
0.128599
 40
0.132649
 40
0.136698
 40
0.141303
 40
0.145909
 40
0.150520
 40
0.155085
 40
0.159645
 40
0.164204
 40
0.168210
 40
0.172217
 40
0.176223
 40
0.179970
 40
0.183718
 40
0.187463
 40
0.191265
 40
0.195071
 40
0.198877
 40
0.202984
 40
0.207091
 40
0.211197
 40
0.215885
 40
0.220573
 40
0.225267
 40
0.229990
 40
0.234708
 40
0.239428
 40
0.243536
 40
0.247644
 40
0.251749
 40
0.255527
 40
0.259308
 40
0.263086
 40
0.266854
 40
0.270622
 40
0.274393
 40
0.278412
 40
0.282430
 40
0.286439
 40
0.290989
 40
0.295546
 40
0.300116
 40
0.300116
 40
0.300116
 40
0.300116
 10
2.136554
 20
10.453387
 30
0.0
 10
2.135017
 20
10.453314
 30
0.0
 10
2.131947
 20
10.453169
 30
0.0
 10
2.127356
 20
10.452796
 30
0.0
 10
2.122983
 20
10.452136
 30
0.0
 10
2.118869
 20
10.451102
 30
0.0
 10
2.115036
 20
10.449749
 30
0.0
 10
2.111426
 20
10.448064
 30
0.0
 10
2.108075
 20
10.446071
 30
0.0
 10
2.105008
 20
10.443807
 30
0.0
 10
2.102186
 20
10.441235
 30
0.0
 10
2.099655
 20
10.438366
 30
0.0
 10
2.097430
 20
10.435245
 30
0.0
 10
2.095477
 20
10.431835
 30
0.0
 10
2.093840
 20
10.428158
 30
0.0
 10
2.092523
 20
10.424254
 30
0.0
 10
2.091488
 20
10.420069
 30
0.0
 10
2.090756
 20
10.415627
 30
0.0
 10
2.090335
 20
10.410951
 30
0.0
 10
2.090210
 20
10.406258
 30
0.0
 10
2.090334
 20
10.401564
 30
0.0
 10
2.090755
 20
10.396889
 30
0.0
 10
2.091488
 20
10.392447
 30
0.0
 10
2.092524
 20
10.388263
 30
0.0
 10
2.093842
 20
10.384360
 30
0.0
 10
2.095478
 20
10.380682
 30
0.0
 10
2.097425
 20
10.377268
 30
0.0
 10
2.099648
 20
10.374144
 30
0.0
 10
2.102180
 20
10.371285
 30
0.0
 10
2.105007
 20
10.368738
 30
0.0
 10
2.108076
 20
10.366514
 30
0.0
 10
2.111430
 20
10.364565
 30
0.0
 10
2.115044
 20
10.362928
 30
0.0
 10
2.118879
 20
10.361610
 30
0.0
 10
2.122989
 20
10.360573
 30
0.0
 10
2.127352
 20
10.359839
 30
0.0
 10
2.131944
 20
10.359418
 30
0.0
 10
2.136539
 20
10.359294
 30
0.0
 10
2.141118
 20
10.359420
 30
0.0
 10
2.145664
 20
10.359840
 30
0.0
 10
2.149982
 20
10.360572
 30
0.0
 10
2.154048
 20
10.361609
 30
0.0
 10
2.157836
 20
10.362927
 30
0.0
 10
2.161405
 20
10.364566
 30
0.0
 10
2.164713
 20
10.366516
 30
0.0
 10
2.167735
 20
10.368742
 30
0.0
 10
2.170518
 20
10.371289
 30
0.0
 10
2.173008
 20
10.374149
 30
0.0
 10
2.175191
 20
10.377273
 30
0.0
 10
2.177102
 20
10.380687
 30
0.0
 10
2.178710
 20
10.384364
 30
0.0
 10
2.180004
 20
10.388267
 30
0.0
 10
2.181021
 20
10.392449
 30
0.0
 10
2.181741
 20
10.396890
 30
0.0
 10
2.182154
 20
10.401566
 30
0.0
 10
2.182277
 20
10.406268
 30
0.0
 10
2.182156
 20
10.410980
 30
0.0
 10
2.181742
 20
10.415686
 30
0.0
 10
2.181023
 20
10.420149
 30
0.0
 10
2.180010
 20
10.424344
 30
0.0
 10
2.178720
 20
10.428249
 30
0.0
 10
2.177109
 20
10.431915
 30
0.0
 10
2.175184
 20
10.435300
 30
0.0
 10
2.172995
 20
10.438388
 30
0.0
 10
2.170504
 20
10.441235
 30
0.0
 10
2.167730
 20
10.443800
 30
0.0
 10
2.164711
 20
10.446067
 30
0.0
 10
2.161409
 20
10.448064
 30
0.0
 10
2.157845
 20
10.449751
 30
0.0
 10
2.154058
 20
10.451103
 30
0.0
 10
2.149988
 20
10.452136
 30
0.0
 10
2.145660
 20
10.452796
 30
0.0
 10
2.141115
 20
10.453169
 30
0.0
 10
2.138076
 20
10.453314
 30
0.0
 10
2.136554
 20
10.453387
 30
0.0
 11
2.136554
 21
10.453387
 31
0.0
 11
2.131945
 21
10.453143
 31
0.0
 11
2.127359
 21
10.452743
 31
0.0
 11
2.122819
 21
10.452032
 31
0.0
 11
2.118890
 21
10.451042
 31
0.0
 11
2.115062
 21
10.449688
 31
0.0
 11
2.111382
 21
10.447967
 31
0.0
 11
2.108109
 21
10.446018
 31
0.0
 11
2.105049
 21
10.443756
 31
0.0
 11
2.102241
 21
10.441191
 31
0.0
 11
2.099708
 21
10.438326
 31
0.0
 11
2.097483
 21
10.435210
 31
0.0
 11
2.095580
 21
10.431890
 31
0.0
 11
2.093900
 21
10.428135
 31
0.0
 11
2.092578
 21
10.424238
 31
0.0
 11
2.091584
 21
10.420245
 31
0.0
 11
2.090813
 21
10.415620
 31
0.0
 11
2.090385
 21
10.410950
 31
0.0
 11
2.090252
 21
10.406258
 31
0.0
 11
2.090384
 21
10.401566
 31
0.0
 11
2.090812
 21
10.396896
 31
0.0
 11
2.091584
 21
10.392271
 31
0.0
 11
2.092579
 21
10.388279
 31
0.0
 11
2.093902
 21
10.384383
 31
0.0
 11
2.095580
 21
10.380627
 31
0.0
 11
2.097479
 21
10.377302
 31
0.0
 11
2.099702
 21
10.374185
 31
0.0
 11
2.102241
 21
10.371325
 31
0.0
 11
2.105048
 21
10.368791
 31
0.0
 11
2.108110
 21
10.366567
 31
0.0
 11
2.111382
 21
10.364664
 31
0.0
 11
2.115067
 21
10.362987
 31
0.0
 11
2.118895
 21
10.361664
 31
0.0
 11
2.122820
 21
10.360668
 31
0.0
 11
2.127359
 21
10.359896
 31
0.0
 11
2.131945
 21
10.359467
 31
0.0
 11
2.136554
 21
10.359336
 31
0.0
 11
2.141117
 21
10.359469
 31
0.0
 11
2.145657
 21
10.359897
 31
0.0
 11
2.150151
 21
10.360668
 31
0.0
 11
2.154031
 21
10.361663
 31
0.0
 11
2.157813
 21
10.362987
 31
0.0
 11
2.161451
 21
10.364664
 31
0.0
 11
2.164678
 21
10.366569
 31
0.0
 11
2.167694
 21
10.368794
 31
0.0
 11
2.170454
 21
10.371325
 31
0.0
 11
2.172954
 21
10.374189
 31
0.0
 11
2.175137
 21
10.377307
 31
0.0
 11
2.176999
 21
10.380627
 31
0.0
 11
2.178651
 21
10.384387
 31
0.0
 11
2.179950
 21
10.388282
 31
0.0
 11
2.180927
 21
10.392271
 31
0.0
 11
2.181685
 21
10.396897
 31
0.0
 11
2.182105
 21
10.401567
 31
0.0
 11
2.182236
 21
10.406258
 31
0.0
 11
2.182107
 21
10.410979
 31
0.0
 11
2.181686
 21
10.415679
 31
0.0
 11
2.180927
 21
10.420337
 31
0.0
 11
2.179956
 21
10.424329
 31
0.0
 11
2.178659
 21
10.428227
 31
0.0
 11
2.176999
 21
10.431981
 31
0.0
 11
2.175131
 21
10.435266
 31
0.0
 11
2.172944
 21
10.438349
 31
0.0
 11
2.170454
 21
10.441191
 31
0.0
 11
2.167689
 21
10.443751
 31
0.0
 11
2.164676
 21
10.446014
 31
0.0
 11
2.161451
 21
10.447967
 31
0.0
 11
2.157820
 21
10.449689
 31
0.0
 11
2.154037
 21
10.451043
 31
0.0
 11
2.150151
 21
10.452032
 31
0.0
 11
2.145657
 21
10.452743
 31
0.0
 11
2.141117
 21
10.453143
 31
0.0
 11
2.136554
 21
10.453387
 31
0.0
  0
LINE
  5
16e
100
AcDbEntity
  8
Layer_1
 62
7
100
AcDbLine
 10
2.078470
 20
10.479639
 30
0.0
 11
2.078470
 21
10.479639
 31
0.0
  0
LINE
  5
16f
100
AcDbEntity
  8
Layer_1
 62
7
100
AcDbLine
 10
2.097073
 20
10.541444
 30
0.0
 11
2.097073
 21
10.541444
 31
0.0
  0
LINE
  5
170
100
AcDbEntity
  8
Layer_1
 62
7
100
AcDbLine
 10
2.326723
 20
10.395303
 30
0.0
 11
2.401137
 21
10.395303
 31
0.0
  0
LINE
  5
171
100
AcDbEntity
  8
Layer_1
 62
7
100
AcDbLine
 10
2.401137
 20
10.395303
 30
0.0
 11
2.401137
 21
10.315307
 31
0.0
  0
LINE
  5
172
100
AcDbEntity
  8
Layer_1
 62
7
100
AcDbLine
 10
2.401137
 20
10.315307
 30
0.0
 11
2.326723
 21
10.315307
 31
0.0
  0
LINE
  5
173
100
AcDbEntity
  8
Layer_1
 62
7
100
AcDbLine
 10
2.326723
 20
10.315307
 30
0.0
 11
2.326723
 21
10.395303
 31
0.0
  0
LINE
  5
174
100
AcDbEntity
  8
Layer_1
 62
7
100
AcDbLine
 10
2.326723
 20
10.395303
 30
0.0
 11
2.326723
 21
10.395303
 31
0.0
  0
LINE
  5
175
100
AcDbEntity
  8
Layer_1
 62
7
100
AcDbLine
 10
2.473071
 20
10.623919
 30
0.0
 11
2.705615
 21
10.623919
 31
0.0
  0
LINE
  5
176
100
AcDbEntity
  8
Layer_1
 62
7
100
AcDbLine
 10
2.705615
 20
10.623919
 30
0.0
 11
2.705615
 21
10.579064
 31
0.0
  0
LINE
  5
177
100
AcDbEntity
  8
Layer_1
 62
7
100
AcDbLine
 10
2.705615
 20
10.579064
 30
0.0
 11
2.585312
 21
10.315307
 31
0.0
  0
LINE
  5
178
100
AcDbEntity
  8
Layer_1
 62
7
100
AcDbLine
 10
2.585312
 20
10.315307
 30
0.0
 11
2.507797
 21
10.315307
 31
0.0
  0
LINE
  5
179
100
AcDbEntity
  8
Layer_1
 62
7
100
AcDbLine
 10
2.507797
 20
10.315307
 30
0.0
 11
2.621692
 21
10.565421
 31
0.0
  0
LINE
  5
17a
100
AcDbEntity
  8
Layer_1
 62
7
100
AcDbLine
 10
2.621692
 20
10.565421
 30
0.0
 11
2.473071
 21
10.565421
 31
0.0
  0
LINE
  5
17b
100
AcDbEntity
  8
Layer_1
 62
7
100
AcDbLine
 10
2.473071
 20
10.565421
 30
0.0
 11
2.473071
 21
10.623919
 31
0.0
  0
LINE
  5
17c
100
AcDbEntity
  8
Layer_1
 62
7
100
AcDbLine
 10
2.473071
 20
10.623919
 30
0.0
 11
2.473071
 21
10.623919
 31
0.0
  0
LINE
  5
17d
100
AcDbEntity
  8
Layer_1
 62
7
100
AcDbLine
 10
2.921829
 20
10.546818
 30
0.0
 11
2.995830
 21
10.546818
 31
0.0
  0
LINE
  5
17e
100
AcDbEntity
  8
Layer_1
 62
7
100
AcDbLine
 10
2.995830
 20
10.546818
 30
0.0
 11
2.995830
 21
10.315307
 31
0.0
  0
LINE
  5
17f
100
AcDbEntity
  8
Layer_1
 62
7
100
AcDbLine
 10
2.995830
 20
10.315307
 30
0.0
 11
2.921829
 21
10.315307
 31
0.0
  0
LINE
  5
180
100
AcDbEntity
  8
Layer_1
 62
7
100
AcDbLine
 10
2.921829
 20
10.315307
 30
0.0
 11
2.921829
 21
10.546818
 31
0.0
  0
LINE
  5
181
100
AcDbEntity
  8
Layer_1
 62
7
100
AcDbLine
 10
2.921829
 20
10.546818
 30
0.0
 11
2.921829
 21
10.546818
 31
0.0
  0
LINE
  5
182
100
AcDbEntity
  8
Layer_1
 62
7
100
AcDbLine
 10
2.921829
 20
10.636942
 30
0.0
 11
2.995830
 21
10.636942
 31
0.0
  0
LINE
  5
183
100
AcDbEntity
  8
Layer_1
 62
7
100
AcDbLine
 10
2.995830
 20
10.636942
 30
0.0
 11
2.995830
 21
10.576583
 31
0.0
  0
LINE
  5
184
100
AcDbEntity
  8
Layer_1
 62
7
100
AcDbLine
 10
2.995830
 20
10.576583
 30
0.0
 11
2.921829
 21
10.576583
 31
0.0
  0
LINE
  5
185
100
AcDbEntity
  8
Layer_1
 62
7
100
AcDbLine
 10
2.921829
 20
10.576583
 30
0.0
 11
2.921829
 21
10.636942
 31
0.0
  0
LINE
  5
186
100
AcDbEntity
  8
Layer_1
 62
7
100
AcDbLine
 10
2.921829
 20
10.636942
 30
0.0
 11
2.921829
 21
10.636942
 31
0.0
  0
LINE
  5
187
100
AcDbEntity
  8
Layer_1
 62
7
100
AcDbLine
 10
3.300100
 20
10.456281
 30
0.0
 11
3.300100
 21
10.315307
 31
0.0
  0
LINE
  5
188
100
AcDbEntity
  8
Layer_1
 62
7
100
AcDbLine
 10
3.300100
 20
10.315307
 30
0.0
 11
3.225686
 21
10.315307
 31
0.0
  0
LINE
  5
189
100
AcDbEntity
  8
Layer_1
 62
7
100
AcDbLine
 10
3.225686
 20
10.315307
 30
0.0
 11
3.225686
 21
10.338252
 31
0.0
  0
LINE
  5
18a
100
AcDbEntity
  8
Layer_1
 62
7
100
AcDbLine
 10
3.225686
 20
10.338252
 30
0.0
 11
3.225686
 21
10.423208
 31
0.0
  0
SPLINE
  5
18b
100
AcDbEntity
  8
Layer_1
 62
7
100
AcDbSpline
 70
0
 71
3
 72
151
 73
147
 74
145
 40
0.000000
 40
0.000000
 40
0.000000
 40
0.000000
 40
0.006161
 40
0.012312
 40
0.018456
 40
0.023986
 40
0.029523
 40
0.035064
 40
0.040204
 40
0.045341
 40
0.050475
 40
0.055468
 40
0.060464
 40
0.065459
 40
0.070591
 40
0.075723
 40
0.080852
 40
0.086392
 40
0.091936
 40
0.097489
 40
0.105585
 40
0.113675
 40
0.121761
 40
0.129158
 40
0.136558
 40
0.143949
 40
0.151492
 40
0.159045
 40
0.166600
 40
0.175014
 40
0.183427
 40
0.191843
 40
0.201633
 40
0.211422
 40
0.221216
 40
0.232783
 40
0.244347
 40
0.255907
 40
0.267380
 40
0.278858
 40
0.290364
 40
0.300149
 40
0.309908
 40
0.319619
 40
0.327971
 40
0.336358
 40
0.344774
 40
0.352344
 40
0.359857
 40
0.367315
 40
0.374669
 40
0.382083
 40
0.389518
 40
0.397656
 40
0.405771
 40
0.413880
 40
0.419424
 40
0.424967
 40
0.430518
 40
0.435671
 40
0.440816
 40
0.445940
 40
0.450930
 40
0.455939
 40
0.460966
 40
0.466109
 40
0.471240
 40
0.476358
 40
0.481884
 40
0.487427
 40
0.492973
 40
0.499126
 40
0.505275
 40
0.511428
 40
0.518252
 40
0.525072
 40
0.531898
 40
0.538049
 40
0.544198
 40
0.550326
 40
0.556022
 40
0.561733
 40
0.567460
 40
0.573054
 40
0.578628
 40
0.584182
 40
0.589930
 40
0.595703
 40
0.601483
 40
0.607756
 40
0.614020
 40
0.620289
 40
0.629752
 40
0.639216
 40
0.648682
 40
0.657153
 40
0.665619
 40
0.674075
 40
0.682401
 40
0.690737
 40
0.699071
 40
0.708056
 40
0.717044
 40
0.726034
 40
0.736418
 40
0.746801
 40
0.757188
 40
0.769460
 40
0.781728
 40
0.793992
 40
0.806298
 40
0.818608
 40
0.830952
 40
0.841448
 40
0.851915
 40
0.862324
 40
0.871326
 40
0.880371
 40
0.889452
 40
0.897825
 40
0.906139
 40
0.914392
 40
0.922806
 40
0.931290
 40
0.939802
 40
0.949285
 40
0.958739
 40
0.968191
 40
0.974463
 40
0.980730
 40
0.986996
 40
0.992752
 40
0.998510
 40
1.004267
 40
1.009829
 40
1.015392
 40
1.020951
 40
1.026693
 40
1.032439
 40
1.038190
 40
1.044355
 40
1.050517
 40
1.056668
 40
1.063489
 40
1.070319
 40
1.077161
 40
1.077161
 40
1.077161
 40
1.077161
 10
2.078470
 20
10.479639
 30
0.0
 10
2.076528
 20
10.480307
 30
0.0
 10
2.072647
 20
10.481641
 30
0.0
 10
2.066880
 20
10.483790
 30
0.0
 10
2.061422
 20
10.486147
 30
0.0
 10
2.056330
 20
10.488800
 30
0.0
 10
2.051607
 20
10.491697
 30
0.0
 10
2.047209
 20
10.494849
 30
0.0
 10
2.043150
 20
10.498221
 30
0.0
 10
2.039446
 20
10.501788
 30
0.0
 10
2.036070
 20
10.505602
 30
0.0
 10
2.033053
 20
10.509648
 30
0.0
 10
2.030403
 20
10.513888
 30
0.0
 10
2.028088
 20
10.518373
 30
0.0
 10
2.026140
 20
10.523077
 30
0.0
 10
2.024561
 20
10.527965
 30
0.0
 10
2.023324
 20
10.533090
 30
0.0
 10
2.022453
 20
10.538428
 30
0.0
 10
2.021946
 20
10.543955
 30
0.0
 10
2.021757
 20
10.550353
 30
0.0
 10
2.022026
 20
10.557603
 30
0.0
 10
2.023060
 20
10.565640
 30
0.0
 10
2.024867
 20
10.573304
 30
0.0
 10
2.027438
 20
10.580501
 30
0.0
 10
2.030679
 20
10.587166
 30
0.0
 10
2.034691
 20
10.593458
 30
0.0
 10
2.039481
 20
10.599248
 30
0.0
 10
2.044935
 20
10.604491
 30
0.0
 10
2.051134
 20
10.609313
 30
0.0
 10
2.058040
 20
10.613626
 30
0.0
 10
2.065581
 20
10.617383
 30
0.0
 10
2.073832
 20
10.620670
 30
0.0
 10
2.082753
 20
10.623442
 30
0.0
 10
2.092295
 20
10.625666
 30
0.0
 10
2.102537
 20
10.627406
 30
0.0
 10
2.113446
 20
10.628656
 30
0.0
 10
2.124992
 20
10.629375
 30
0.0
 10
2.136526
 20
10.629573
 30
0.0
 10
2.148030
 20
10.629333
 30
0.0
 10
2.159496
 20
10.628599
 30
0.0
 10
2.170356
 20
10.627387
 30
0.0
 10
2.180580
 20
10.625753
 30
0.0
 10
2.190099
 20
10.623588
 30
0.0
 10
2.198931
 20
10.620710
 30
0.0
 10
2.207014
 20
10.617142
 30
0.0
 10
2.214345
 20
10.613101
 30
0.0
 10
2.221714
 20
10.609528
 30
0.0
 10
2.227473
 20
10.604135
 30
0.0
 10
2.233086
 20
10.599155
 30
0.0
 10
2.238032
 20
10.593555
 30
0.0
 10
2.242089
 20
10.587328
 30
0.0
 10
2.245296
 20
10.580637
 30
0.0
 10
2.247821
 20
10.573388
 30
0.0
 10
2.249624
 20
10.565685
 30
0.0
 10
2.250669
 20
10.557620
 30
0.0
 10
2.250942
 20
10.550360
 30
0.0
 10
2.250737
 20
10.543961
 30
0.0
 10
2.250216
 20
10.538436
 30
0.0
 10
2.249343
 20
10.533086
 30
0.0
 10
2.248123
 20
10.527941
 30
0.0
 10
2.246543
 20
10.523043
 30
0.0
 10
2.244529
 20
10.518363
 30
0.0
 10
2.242067
 20
10.513952
 30
0.0
 10
2.239258
 20
10.509811
 30
0.0
 10
2.236526
 20
10.505524
 30
0.0
 10
2.232823
 20
10.501981
 30
0.0
 10
2.229246
 20
10.498309
 30
0.0
 10
2.225288
 20
10.494833
 30
0.0
 10
2.220932
 20
10.491644
 30
0.0
 10
2.216173
 20
10.488769
 30
0.0
 10
2.211120
 20
10.486154
 30
0.0
 10
2.205363
 20
10.483806
 30
0.0
 10
2.200685
 20
10.481664
 30
0.0
 10
2.190465
 20
10.479529
 30
0.0
 10
2.201564
 20
10.477554
 30
0.0
 10
2.206669
 20
10.475282
 30
0.0
 10
2.213136
 20
10.472796
 30
0.0
 10
2.218777
 20
10.469980
 30
0.0
 10
2.224095
 20
10.466854
 30
0.0
 10
2.228963
 20
10.463356
 30
0.0
 10
2.233383
 20
10.459514
 30
0.0
 10
2.237374
 20
10.455437
 30
0.0
 10
2.241501
 20
10.451498
 30
0.0
 10
2.244549
 20
10.446730
 30
0.0
 10
2.247680
 20
10.442124
 30
0.0
 10
2.250428
 20
10.437203
 30
0.0
 10
2.252675
 20
10.431964
 30
0.0
 10
2.254434
 20
10.426463
 30
0.0
 10
2.255787
 20
10.420672
 30
0.0
 10
2.256750
 20
10.414637
 30
0.0
 10
2.257324
 20
10.408391
 30
0.0
 10
2.257564
 20
10.401060
 30
0.0
 10
2.257309
 20
10.392656
 30
0.0
 10
2.256216
 20
10.383242
 30
0.0
 10
2.254307
 20
10.374294
 30
0.0
 10
2.251624
 20
10.365898
 30
0.0
 10
2.248242
 20
10.358122
 30
0.0
 10
2.244045
 20
10.350805
 30
0.0
 10
2.239027
 20
10.344078
 30
0.0
 10
2.233313
 20
10.337991
 30
0.0
 10
2.226809
 20
10.332413
 30
0.0
 10
2.219553
 20
10.327459
 30
0.0
 10
2.211643
 20
10.323163
 30
0.0
 10
2.202958
 20
10.319400
 30
0.0
 10
2.193547
 20
10.316231
 30
0.0
 10
2.183468
 20
10.313691
 30
0.0
 10
2.172629
 20
10.311703
 30
0.0
 10
2.161067
 20
10.310278
 30
0.0
 10
2.148821
 20
10.309459
 30
0.0
 10
2.136540
 20
10.309230
 30
0.0
 10
2.124246
 20
10.309501
 30
0.0
 10
2.111950
 20
10.310337
 30
0.0
 10
2.100310
 20
10.311723
 30
0.0
 10
2.089361
 20
10.313597
 30
0.0
 10
2.079188
 20
10.316072
 30
0.0
 10
2.069767
 20
10.319355
 30
0.0
 10
2.061172
 20
10.323423
 30
0.0
 10
2.053417
 20
10.328036
 30
0.0
 10
2.045492
 20
10.332135
 30
0.0
 10
2.039549
 20
10.338445
 30
0.0
 10
2.033629
 20
10.344261
 30
0.0
 10
2.028413
 20
10.350794
 30
0.0
 10
2.024153
 20
10.358044
 30
0.0
 10
2.020812
 20
10.365848
 30
0.0
 10
2.018193
 20
10.374290
 30
0.0
 10
2.016303
 20
10.383257
 30
0.0
 10
2.015203
 20
10.392667
 30
0.0
 10
2.014927
 20
10.401064
 30
0.0
 10
2.015147
 20
10.408395
 30
0.0
 10
2.015708
 20
10.414642
 30
0.0
 10
2.016672
 20
10.420668
 30
0.0
 10
2.018049
 20
10.426438
 30
0.0
 10
2.019809
 20
10.431925
 30
0.0
 10
2.021985
 20
10.437193
 30
0.0
 10
2.024569
 20
10.442199
 30
0.0
 10
2.027526
 20
10.446917
 30
0.0
 10
2.030903
 20
10.451419
 30
0.0
 10
2.034698
 20
10.455658
 30
0.0
 10
2.038872
 20
10.459616
 30
0.0
 10
2.043442
 20
10.463335
 30
0.0
 10
2.048385
 20
10.466791
 30
0.0
 10
2.053684
 20
10.469942
 30
0.0
 10
2.059392
 20
10.472800
 30
0.0
 10
2.065505
 20
10.475304
 30
0.0
 10
2.071956
 20
10.477556
 30
0.0
 10
2.076297
 20
10.478944
 30
0.0
 10
2.078470
 20
10.479639
 30
0.0
 11
2.078470
 21
10.479639
 31
0.0
 11
2.072652
 21
10.481667
 31
0.0
 11
2.066897
 21
10.483839
 31
0.0
 11
2.061267
 21
10.486299
 31
0.0
 11
2.056364
 21
10.488855
 31
0.0
 11
2.051644
 21
10.491751
 31
0.0
 11
2.047142
 21
10.494981
 31
0.0
 11
2.043191
 21
10.498268
 31
0.0
 11
2.039495
 21
10.501836
 31
0.0
 11
2.036095
 21
10.505683
 31
0.0
 11
2.033110
 21
10.509686
 31
0.0
 11
2.030462
 21
10.513922
 31
0.0
 11
2.028171
 21
10.518361
 31
0.0
 11
2.026204
 21
10.523101
 31
0.0
 11
2.024623
 21
10.527983
 31
0.0
 11
2.023417
 21
10.532969
 31
0.0
 11
2.022518
 21
10.538435
 31
0.0
 11
2.022003
 21
10.543955
 31
0.0
 11
2.021832
 21
10.549505
 31
0.0
 11
2.022149
 21
10.557595
 31
0.0
 11
2.023198
 21
10.565617
 31
0.0
 11
2.025071
 21
10.573483
 31
0.0
 11
2.027563
 21
10.580448
 31
0.0
 11
2.030805
 21
10.587100
 31
0.0
 11
2.034786
 21
10.593327
 31
0.0
 11
2.039583
 21
10.599147
 31
0.0
 11
2.045020
 21
10.604390
 31
0.0
 11
2.050978
 21
10.609036
 31
0.0
 11
2.058105
 21
10.613508
 31
0.0
 11
2.065628
 21
10.617276
 31
0.0
 11
2.073440
 21
10.620405
 31
0.0
 11
2.082783
 21
10.623328
 31
0.0
 11
2.092313
 21
10.625568
 31
0.0
 11
2.101965
 21
10.627226
 31
0.0
 11
2.113456
 21
10.628556
 31
0.0
 11
2.124996
 21
10.629289
 31
0.0
 11
2.136554
 21
10.629500
 31
0.0
 11
2.148025
 21
10.629251
 31
0.0
 11
2.159479
 21
10.628510
 31
0.0
 11
2.170913
 21
10.627226
 31
0.0
 11
2.180569
 21
10.625647
 31
0.0
 11
2.190076
 21
10.623440
 31
0.0
 11
2.199301
 21
10.620405
 31
0.0
 11
2.206944
 21
10.617039
 31
0.0
 11
2.214382
 21
10.613165
 31
0.0
 11
2.221717
 21
10.609036
 31
0.0
 11
2.227502
 21
10.604155
 31
0.0
 11
2.232996
 21
10.599030
 31
0.0
 11
2.237909
 21
10.593419
 31
0.0
 11
2.241939
 21
10.587267
 31
0.0
 11
2.245165
 21
10.580592
 31
0.0
 11
2.247624
 21
10.573575
 31
0.0
 11
2.249490
 21
10.565654
 31
0.0
 11
2.250546
 21
10.557608
 31
0.0
 11
2.250862
 21
10.549505
 31
0.0
 11
2.250680
 21
10.543964
 31
0.0
 11
2.250154
 21
10.538446
 31
0.0
 11
2.249255
 21
10.532969
 31
0.0
 11
2.248057
 21
10.527957
 31
0.0
 11
2.246465
 21
10.523064
 31
0.0
 11
2.244431
 21
10.518361
 31
0.0
 11
2.242010
 21
10.513998
 31
0.0
 11
2.239279
 21
10.509799
 31
0.0
 11
2.236393
 21
10.505683
 31
0.0
 11
2.232844
 21
10.501960
 31
0.0
 11
2.229195
 21
10.498353
 31
0.0
 11
2.225346
 21
10.494981
 31
0.0
 11
2.220889
 21
10.491714
 31
0.0
 11
2.216156
 21
10.488829
 31
0.0
 11
2.211221
 21
10.486299
 31
0.0
 11
2.205574
 21
10.483853
 31
0.0
 11
2.199823
 21
10.481678
 31
0.0
 11
2.194018
 21
10.479639
 31
0.0
 11
2.200504
 21
10.477515
 31
0.0
 11
2.206931
 21
10.475233
 31
0.0
 11
2.213242
 21
10.472633
 31
0.0
 11
2.218758
 21
10.469910
 31
0.0
 11
2.224046
 21
10.466774
 31
0.0
 11
2.229020
 21
10.463194
 31
0.0
 11
2.233325
 21
10.459463
 31
0.0
 11
2.237397
 21
10.455460
 31
0.0
 11
2.241354
 21
10.451320
 31
0.0
 11
2.244572
 21
10.446743
 31
0.0
 11
2.247615
 21
10.442073
 31
0.0
 11
2.250311
 21
10.437218
 31
0.0
 11
2.252586
 21
10.431939
 31
0.0
 11
2.254359
 21
10.426446
 31
0.0
 11
2.255685
 21
10.420819
 31
0.0
 11
2.256682
 21
10.414626
 31
0.0
 11
2.257262
 21
10.408389
 31
0.0
 11
2.257477
 21
10.402124
 31
0.0
 11
2.257174
 21
10.392666
 31
0.0
 11
2.256068
 21
10.383267
 31
0.0
 11
2.254078
 21
10.374012
 31
0.0
 11
2.251490
 21
10.365946
 31
0.0
 11
2.248100
 21
10.358188
 31
0.0
 11
2.243880
 21
10.350861
 31
0.0
 11
2.238909
 21
10.344182
 31
0.0
 11
2.233209
 21
10.338099
 31
0.0
 11
2.226884
 21
10.332671
 31
0.0
 11
2.219475
 21
10.327590
 31
0.0
 11
2.211586
 21
10.323283
 31
0.0
 11
2.203343
 21
10.319694
 31
0.0
 11
2.193509
 21
10.316360
 31
0.0
 11
2.183446
 21
10.313802
 31
0.0
 11
2.173233
 21
10.311908
 31
0.0
 11
2.161055
 21
10.310391
 31
0.0
 11
2.148815
 21
10.309557
 31
0.0
 11
2.136554
 21
10.309313
 31
0.0
 11
2.124251
 21
10.309595
 31
0.0
 11
2.111971
 21
10.310440
 31
0.0
 11
2.099714
 21
10.311908
 31
0.0
 11
2.089375
 21
10.313717
 31
0.0
 11
2.079216
 21
10.316239
 31
0.0
 11
2.069398
 21
10.319694
 31
0.0
 11
2.061257
 21
10.323539
 31
0.0
 11
2.053368
 21
10.327961
 31
0.0
 11
2.045603
 21
10.332671
 31
0.0
 11
2.039507
 21
10.338411
 31
0.0
 11
2.033734
 21
10.344393
 31
0.0
 11
2.028608
 21
10.350861
 31
0.0
 11
2.024323
 21
10.358103
 31
0.0
 11
2.020954
 21
10.365889
 31
0.0
 11
2.018410
 21
10.374012
 31
0.0
 11
2.016444
 21
10.383289
 31
0.0
 11
2.015334
 21
10.392677
 31
0.0
 11
2.015011
 21
10.402124
 31
0.0
 11
2.015209
 21
10.408393
 31
0.0
 11
2.015780
 21
10.414634
 31
0.0
 11
2.016779
 21
10.420819
 31
0.0
 11
2.018119
 21
10.426417
 31
0.0
 11
2.019883
 21
10.431898
 31
0.0
 11
2.022085
 21
10.437218
 31
0.0
 11
2.024636
 21
10.442160
 31
0.0
 11
2.027590
 21
10.446874
 31
0.0
 11
2.030927
 21
10.451320
 31
0.0
 11
2.034753
 21
10.455602
 31
0.0
 11
2.038918
 21
10.459560
 31
0.0
 11
2.043376
 21
10.463194
 31
0.0
 11
2.048428
 21
10.466728
 31
0.0
 11
2.053723
 21
10.469878
 31
0.0
 11
2.059223
 21
10.472633
 31
0.0
 11
2.065523
 21
10.475247
 31
0.0
 11
2.071962
 21
10.477526
 31
0.0
 11
2.078470
 21
10.479639
 31
0.0
  0
LINE
  5
18c
100
AcDbEntity
  8
Layer_1
 62
7
100
AcDbLine
 10
3.141350
 20
10.429202
 30
0.0
 11
3.141350
 21
10.315307
 31
0.0
  0
LINE
  5
18d
100
AcDbEntity
  8
Layer_1
 62
7
100
AcDbLine
 10
3.141350
 20
10.315307
 30
0.0
 11
3.067350
 21
10.315307
 31
0.0
  0
LINE
  5
18e
100
AcDbEntity
  8
Layer_1
 62
7
100
AcDbLine
 10
3.067350
 20
10.315307
 30
0.0
 11
3.067350
 21
10.546818
 31
0.0
  0
LINE
  5
18f
100
AcDbEntity
  8
Layer_1
 62
7
100
AcDbLine
 10
3.067350
 20
10.546818
 30
0.0
 11
3.141350
 21
10.546818
 31
0.0
  0
LINE
  5
190
100
AcDbEntity
  8
Layer_1
 62
7
100
AcDbLine
 10
3.141350
 20
10.546818
 30
0.0
 11
3.141350
 21
10.512918
 31
0.0
  0
SPLINE
  5
191
100
AcDbEntity
  8
Layer_1
 62
7
100
AcDbSpline
 70
0
 71
3
 72
79
 73
75
 74
73
 40
0.000000
 40
0.000000
 40
0.000000
 40
0.000000
 40
0.003806
 40
0.007602
 40
0.011389
 40
0.014735
 40
0.018089
 40
0.021445
 40
0.024600
 40
0.027752
 40
0.030900
 40
0.034106
 40
0.037317
 40
0.040529
 40
0.043981
 40
0.047432
 40
0.050883
 40
0.054809
 40
0.058736
 40
0.062666
 40
0.066513
 40
0.070356
 40
0.074198
 40
0.077585
 40
0.080972
 40
0.084357
 40
0.087522
 40
0.090688
 40
0.093854
 40
0.097005
 40
0.100157
 40
0.103308
 40
0.106657
 40
0.110009
 40
0.113361
 40
0.117159
 40
0.120957
 40
0.124759
 40
0.128553
 40
0.132343
 40
0.136134
 40
0.139466
 40
0.142797
 40
0.146123
 40
0.149241
 40
0.152363
 40
0.155485
 40
0.158651
 40
0.161817
 40
0.164981
 40
0.168365
 40
0.171752
 40
0.175140
 40
0.178982
 40
0.182825
 40
0.186671
 40
0.190602
 40
0.194529
 40
0.198455
 40
0.201906
 40
0.205357
 40
0.208808
 40
0.212020
 40
0.215231
 40
0.218438
 40
0.221580
 40
0.224725
 40
0.227874
 40
0.231209
 40
0.234541
 40
0.237865
 40
0.241614
 40
0.245371
 40
0.249139
 40
0.249139
 40
0.249139
 40
0.249139
 10
2.097073
 20
10.541444
 30
0.0
 10
2.097134
 20
10.540176
 30
0.0
 10
2.097254
 20
10.537645
 30
0.0
 10
2.097564
 20
10.533860
 30
0.0
 10
2.098112
 20
10.530253
 30
0.0
 10
2.098973
 20
10.526860
 30
0.0
 10
2.100097
 20
10.523697
 30
0.0
 10
2.101496
 20
10.520715
 30
0.0
 10
2.103147
 20
10.517944
 30
0.0
 10
2.105026
 20
10.515406
 30
0.0
 10
2.107174
 20
10.513068
 30
0.0
 10
2.109588
 20
10.510974
 30
0.0
 10
2.112226
 20
10.509137
 30
0.0
 10
2.115104
 20
10.507529
 30
0.0
 10
2.118198
 20
10.506176
 30
0.0
 10
2.121477
 20
10.505085
 30
0.0
 10
2.124986
 20
10.504227
 30
0.0
 10
2.128708
 20
10.503618
 30
0.0
 10
2.132624
 20
10.503269
 30
0.0
 10
2.136526
 20
10.503168
 30
0.0
 10
2.140400
 20
10.503275
 30
0.0
 10
2.144231
 20
10.503622
 30
0.0
 10
2.147876
 20
10.504227
 30
0.0
 10
2.151313
 20
10.505084
 30
0.0
 10
2.154523
 20
10.506175
 30
0.0
 10
2.157552
 20
10.507530
 30
0.0
 10
2.160365
 20
10.509146
 30
0.0
 10
2.162946
 20
10.510988
 30
0.0
 10
2.165322
 20
10.513081
 30
0.0
 10
2.167459
 20
10.515412
 30
0.0
 10
2.169342
 20
10.517946
 30
0.0
 10
2.170994
 20
10.520713
 30
0.0
 10
2.172379
 20
10.523697
 30
0.0
 10
2.173493
 20
10.526863
 30
0.0
 10
2.174369
 20
10.530256
 30
0.0
 10
2.174989
 20
10.533856
 30
0.0
 10
2.175344
 20
10.537642
 30
0.0
 10
2.175450
 20
10.541441
 30
0.0
 10
2.175344
 20
10.545237
 30
0.0
 10
2.174989
 20
10.549015
 30
0.0
 10
2.174369
 20
10.552604
 30
0.0
 10
2.173496
 20
10.555981
 30
0.0
 10
2.172384
 20
10.559125
 30
0.0
 10
2.170997
 20
10.562080
 30
0.0
 10
2.169337
 20
10.564810
 30
0.0
 10
2.167451
 20
10.567302
 30
0.0
 10
2.165313
 20
10.569604
 30
0.0
 10
2.162941
 20
10.571687
 30
0.0
 10
2.160362
 20
10.573532
 30
0.0
 10
2.157552
 20
10.575150
 30
0.0
 10
2.154524
 20
10.576507
 30
0.0
 10
2.151314
 20
10.577597
 30
0.0
 10
2.147876
 20
10.578453
 30
0.0
 10
2.144231
 20
10.579058
 30
0.0
 10
2.140400
 20
10.579406
 30
0.0
 10
2.136526
 20
10.579512
 30
0.0
 10
2.132624
 20
10.579411
 30
0.0
 10
2.128709
 20
10.579062
 30
0.0
 10
2.124986
 20
10.578454
 30
0.0
 10
2.121477
 20
10.577596
 30
0.0
 10
2.118198
 20
10.576505
 30
0.0
 10
2.115104
 20
10.575152
 30
0.0
 10
2.112227
 20
10.573543
 30
0.0
 10
2.109588
 20
10.571705
 30
0.0
 10
2.107176
 20
10.569613
 30
0.0
 10
2.105028
 20
10.567280
 30
0.0
 10
2.103150
 20
10.564751
 30
0.0
 10
2.101499
 20
10.561993
 30
0.0
 10
2.100100
 20
10.559029
 30
0.0
 10
2.098974
 20
10.555889
 30
0.0
 10
2.098113
 20
10.552524
 30
0.0
 10
2.097565
 20
10.548951
 30
0.0
 10
2.097255
 20
10.545204
 30
0.0
 10
2.097134
 20
10.542698
 30
0.0
 10
2.097073
 20
10.541444
 30
0.0
 11
2.097073
 21
10.541444
 31
0.0
 11
2.097276
 21
10.537643
 31
0.0
 11
2.097608
 21
10.533862
 31
0.0
 11
2.098199
 21
10.530121
 31
0.0
 11
2.099022
 21
10.526878
 31
0.0
 11
2.100147
 21
10.523719
 31
0.0
 11
2.101575
 21
10.520681
 31
0.0
 11
2.103192
 21
10.517972
 31
0.0
 11
2.105070
 21
10.515441
 31
0.0
 11
2.107202
 21
10.513125
 31
0.0
 11
2.109621
 21
10.511020
 31
0.0
 11
2.112254
 21
10.509182
 31
0.0
 11
2.115057
 21
10.507613
 31
0.0
 11
2.118217
 21
10.506225
 31
0.0
 11
2.121490
 21
10.505130
 31
0.0
 11
2.124841
 21
10.504305
 31
0.0
 11
2.128714
 21
10.503666
 31
0.0
 11
2.132625
 21
10.503310
 31
0.0
 11
2.136554
 21
10.503203
 31
0.0
 11
2.140399
 21
10.503315
 31
0.0
 11
2.144225
 21
10.503669
 31
0.0
 11
2.148015
 21
10.504305
 31
0.0
 11
2.151300
 21
10.505129
 31
0.0
 11
2.154505
 21
10.506224
 31
0.0
 11
2.157592
 21
10.507613
 31
0.0
 11
2.160337
 21
10.509189
 31
0.0
 11
2.162913
 21
10.511031
 31
0.0
 11
2.165286
 21
10.513125
 31
0.0
 11
2.167417
 21
10.515446
 31
0.0
 11
2.169298
 21
10.517976
 31
0.0
 11
2.170913
 21
10.520681
 31
0.0
 11
2.172329
 21
10.523717
 31
0.0
 11
2.173447
 21
10.526876
 31
0.0
 11
2.174289
 21
10.530121
 31
0.0
 11
2.174940
 21
10.533862
 31
0.0
 11
2.175303
 21
10.537643
 31
0.0
 11
2.175415
 21
10.541443
 31
0.0
 11
2.175303
 21
10.545236
 31
0.0
 11
2.174940
 21
10.549009
 31
0.0
 11
2.174289
 21
10.552743
 31
0.0
 11
2.173450
 21
10.555968
 31
0.0
 11
2.172333
 21
10.559105
 31
0.0
 11
2.170913
 21
10.562114
 31
0.0
 11
2.169294
 21
10.564779
 31
0.0
 11
2.167411
 21
10.567268
 31
0.0
 11
2.165286
 21
10.569555
 31
0.0
 11
2.162908
 21
10.571646
 31
0.0
 11
2.160333
 21
10.573488
 31
0.0
 11
2.157592
 21
10.575068
 31
0.0
 11
2.154506
 21
10.576457
 31
0.0
 11
2.151301
 21
10.577552
 31
0.0
 11
2.148015
 21
10.578375
 31
0.0
 11
2.144225
 21
10.579011
 31
0.0
 11
2.140399
 21
10.579365
 31
0.0
 11
2.136554
 21
10.579477
 31
0.0
 11
2.132625
 21
10.579370
 31
0.0
 11
2.128714
 21
10.579015
 31
0.0
 11
2.124841
 21
10.578375
 31
0.0
 11
2.121490
 21
10.577551
 31
0.0
 11
2.118217
 21
10.576456
 31
0.0
 11
2.115057
 21
10.575068
 31
0.0
 11
2.112254
 21
10.573498
 31
0.0
 11
2.109622
 21
10.571659
 31
0.0
 11
2.107202
 21
10.569555
 31
0.0
 11
2.105072
 21
10.567246
 31
0.0
 11
2.103194
 21
10.564723
 31
0.0
 11
2.101575
 21
10.562022
 31
0.0
 11
2.100149
 21
10.559008
 31
0.0
 11
2.099023
 21
10.555872
 31
0.0
 11
2.098199
 21
10.552652
 31
0.0
 11
2.097609
 21
10.548949
 31
0.0
 11
2.097276
 21
10.545206
 31
0.0
 11
2.097073
 21
10.541444
 31
0.0
  0
SPLINE
  5
192
100
AcDbEntity
  8
Layer_1
 62
7
100
AcDbSpline
 70
0
 71
3
 72
61
 73
57
 74
55
 40
0.000000
 40
0.000000
 40
0.000000
 40
0.000000
 40
0.005972
 40
0.011944
 40
0.017915
 40
0.022512
 40
0.027108
 40
0.031705
 40
0.034932
 40
0.038159
 40
0.041386
 40
0.043717
 40
0.046049
 40
0.048381
 40
0.050311
 40
0.052241
 40
0.054169
 40
0.055733
 40
0.057297
 40
0.058860
 40
0.060698
 40
0.062536
 40
0.064376
 40
0.066183
 40
0.067989
 40
0.069793
 40
0.071626
 40
0.073461
 40
0.075297
 40
0.077192
 40
0.079086
 40
0.080978
 40
0.082919
 40
0.084860
 40
0.086801
 40
0.088843
 40
0.090887
 40
0.092932
 40
0.097771
 40
0.102612
 40
0.107452
 40
0.111982
 40
0.116511
 40
0.121034
 40
0.125739
 40
0.130450
 40
0.135164
 40
0.140269
 40
0.145372
 40
0.150476
 40
0.156171
 40
0.161866
 40
0.167556
 40
0.174086
 40
0.180621
 40
0.187166
 40
0.187166
 40
0.187166
 40
0.187166
 10
3.225686
 20
10.423208
 30
0.0
 10
3.225679
 20
10.425198
 30
0.0
 10
3.225664
 20
10.429180
 30
0.0
 10
3.225617
 20
10.435151
 30
0.0
 10
3.225541
 20
10.440664
 30
0.0
 10
3.225431
 20
10.445718
 30
0.0
 10
3.225279
 20
10.450312
 30
0.0
 10
3.225080
 20
10.454448
 30
0.0
 10
3.224844
 20
10.458124
 30
0.0
 10
3.224582
 20
10.461340
 30
0.0
 10
3.224283
 20
10.464254
 30
0.0
 10
3.223959
 20
10.466864
 30
0.0
 10
3.223615
 20
10.469170
 30
0.0
 10
3.223222
 20
10.471333
 30
0.0
 10
3.222780
 20
10.473350
 30
0.0
 10
3.222286
 20
10.475216
 30
0.0
 10
3.221725
 20
10.476935
 30
0.0
 10
3.221106
 20
10.478503
 30
0.0
 10
3.220448
 20
10.479923
 30
0.0
 10
3.219663
 20
10.481381
 30
0.0
 10
3.218730
 20
10.482859
 30
0.0
 10
3.217644
 20
10.484345
 30
0.0
 10
3.216474
 20
10.485751
 30
0.0
 10
3.215232
 20
10.487080
 30
0.0
 10
3.213923
 20
10.488325
 30
0.0
 10
3.212531
 20
10.489490
 30
0.0
 10
3.211057
 20
10.490566
 30
0.0
 10
3.209512
 20
10.491558
 30
0.0
 10
3.207899
 20
10.492476
 30
0.0
 10
3.206228
 20
10.493328
 30
0.0
 10
3.204497
 20
10.494099
 30
0.0
 10
3.202711
 20
10.494775
 30
0.0
 10
3.200870
 20
10.495341
 30
0.0
 10
3.198982
 20
10.495799
 30
0.0
 10
3.197038
 20
10.496153
 30
0.0
 10
3.195044
 20
10.496400
 30
0.0
 10
3.193005
 20
10.496547
 30
0.0
 10
3.190029
 20
10.496626
 30
0.0
 10
3.186117
 20
10.496483
 30
0.0
 10
3.181313
 20
10.495830
 30
0.0
 10
3.176702
 20
10.494703
 30
0.0
 10
3.172342
 20
10.493111
 30
0.0
 10
3.168273
 20
10.491107
 30
0.0
 10
3.164399
 20
10.488634
 30
0.0
 10
3.160796
 20
10.485684
 30
0.0
 10
3.157489
 20
10.482318
 30
0.0
 10
3.154442
 20
10.478545
 30
0.0
 10
3.151682
 20
10.474398
 30
0.0
 10
3.149238
 20
10.469910
 30
0.0
 10
3.147090
 20
10.465058
 30
0.0
 10
3.145271
 20
10.459863
 30
0.0
 10
3.143813
 20
10.454355
 30
0.0
 10
3.142705
 20
10.448482
 30
0.0
 10
3.141993
 20
10.442266
 30
0.0
 10
3.141588
 20
10.435740
 30
0.0
 10
3.141430
 20
10.431383
 30
0.0
 10
3.141350
 20
10.429202
 30
0.0
 11
3.225686
 21
10.423208
 31
0.0
 11
3.225660
 21
10.429180
 31
0.0
 11
3.225611
 21
10.435151
 31
0.0
 11
3.225526
 21
10.441122
 31
0.0
 11
3.225423
 21
10.445718
 31
0.0
 11
3.225268
 21
10.450312
 31
0.0
 11
3.225044
 21
10.454903
 31
0.0
 11
3.224835
 21
10.458123
 31
0.0
 11
3.224571
 21
10.461339
 31
0.0
 11
3.224239
 21
10.464549
 31
0.0
 11
3.223950
 21
10.466862
 31
0.0
 11
3.223603
 21
10.469168
 31
0.0
 11
3.223183
 21
10.471462
 31
0.0
 11
3.222767
 21
10.473347
 31
0.0
 11
3.222268
 21
10.475211
 31
0.0
 11
3.221667
 21
10.477043
 31
0.0
 11
3.221092
 21
10.478497
 31
0.0
 11
3.220434
 21
10.479916
 31
0.0
 11
3.219692
 21
10.481292
 31
0.0
 11
3.218713
 21
10.482847
 31
0.0
 11
3.217629
 21
10.484333
 31
0.0
 11
3.216454
 21
10.485748
 31
0.0
 11
3.215219
 21
10.487068
 31
0.0
 11
3.213910
 21
10.488311
 31
0.0
 11
3.212526
 21
10.489468
 31
0.0
 11
3.211047
 21
10.490551
 31
0.0
 11
3.209504
 21
10.491544
 31
0.0
 11
3.207910
 21
10.492454
 31
0.0
 11
3.206220
 21
10.493313
 31
0.0
 11
3.204490
 21
10.494082
 31
0.0
 11
3.202719
 21
10.494751
 31
0.0
 11
3.200865
 21
10.495322
 31
0.0
 11
3.198978
 21
10.495781
 31
0.0
 11
3.197069
 21
10.496129
 31
0.0
 11
3.195042
 21
10.496383
 31
0.0
 11
3.193005
 21
10.496531
 31
0.0
 11
3.190960
 21
10.496588
 31
0.0
 11
3.186125
 21
10.496404
 31
0.0
 11
3.181329
 21
10.495747
 31
0.0
 11
3.176628
 21
10.494590
 31
0.0
 11
3.172374
 21
10.493036
 31
0.0
 11
3.168312
 21
10.491033
 31
0.0
 11
3.164502
 21
10.488596
 31
0.0
 11
3.160855
 21
10.485623
 31
0.0
 11
3.157547
 21
10.482268
 31
0.0
 11
3.154580
 21
10.478605
 31
0.0
 11
3.151746
 21
10.474358
 31
0.0
 11
3.149301
 21
10.469880
 31
0.0
 11
3.147230
 21
10.465215
 31
0.0
 11
3.145342
 21
10.459842
 31
0.0
 11
3.143880
 21
10.454338
 31
0.0
 11
3.142820
 21
10.448748
 31
0.0
 11
3.142050
 21
10.442263
 31
0.0
 11
3.141616
 21
10.435742
 31
0.0
 11
3.141350
 21
10.429202
 31
0.0
  0
LINE
  5
193
100
AcDbEntity
  8
Layer_1
 62
7
100
AcDbLine
 10
3.300100
 20
10.456281
 30
0.0
 11
3.300100
 21
10.456281
 31
0.0
  0
LINE
  5
194
100
AcDbEntity
  8
Layer_1
 62
7
100
AcDbLine
 10
3.556209
 20
10.539583
 30
0.0
 11
3.556209
 21
10.479225
 31
0.0
  0
SPLINE
  5
195
100
AcDbEntity
  8
Layer_1
 62
7
100
AcDbSpline
 70
0
 71
3
 72
43
 73
39
 74
37
 40
0.000000
 40
0.000000
 40
0.000000
 40
0.000000
 40
0.005593
 40
0.011184
 40
0.016776
 40
0.021936
 40
0.027095
 40
0.032248
 40
0.037055
 40
0.041867
 40
0.046685
 40
0.051379
 40
0.056066
 40
0.060745
 40
0.065485
 40
0.070233
 40
0.074985
 40
0.079911
 40
0.084835
 40
0.089757
 40
0.098002
 40
0.106255
 40
0.114537
 40
0.121889
 40
0.129214
 40
0.136480
 40
0.143440
 40
0.150452
 40
0.157510
 40
0.164935
 40
0.172329
 40
0.179691
 40
0.187959
 40
0.196272
 40
0.204599
 40
0.214247
 40
0.223878
 40
0.233508
 40
0.233508
 40
0.233508
 40
0.233508
 10
3.141350
 20
10.512918
 30
0.0
 10
3.142582
 20
10.514317
 30
0.0
 10
3.145046
 20
10.517116
 30
0.0
 10
3.148810
 20
10.521252
 30
0.0
 10
3.152609
 20
10.525158
 30
0.0
 10
3.156485
 20
10.528782
 30
0.0
 10
3.160430
 20
10.532107
 30
0.0
 10
3.164470
 20
10.535125
 30
0.0
 10
3.168587
 20
10.537833
 30
0.0
 10
3.172738
 20
10.540265
 30
0.0
 10
3.176811
 20
10.542775
 30
0.0
 10
3.181185
 20
10.544606
 30
0.0
 10
3.185473
 20
10.546493
 30
0.0
 10
3.189883
 20
10.548138
 30
0.0
 10
3.194412
 20
10.549488
 30
0.0
 10
3.199040
 20
10.550553
 30
0.0
 10
3.203782
 20
10.551368
 30
0.0
 10
3.208616
 20
10.551951
 30
0.0
 10
3.213529
 20
10.552304
 30
0.0
 10
3.219559
 20
10.552463
 30
0.0
 10
3.226702
 20
10.552246
 30
0.0
 10
3.234923
 20
10.551360
 30
0.0
 10
3.242751
 20
10.549845
 30
0.0
 10
3.250124
 20
10.547760
 30
0.0
 10
3.256948
 20
10.545088
 30
0.0
 10
3.263285
 20
10.541660
 30
0.0
 10
3.269009
 20
10.537450
 30
0.0
 10
3.274130
 20
10.532680
 30
0.0
 10
3.279601
 20
10.527960
 30
0.0
 10
3.283362
 20
10.521635
 30
0.0
 10
3.287456
 20
10.515495
 30
0.0
 10
3.291082
 20
10.508709
 30
0.0
 10
3.294039
 20
10.501279
 30
0.0
 10
3.296289
 20
10.493274
 30
0.0
 10
3.297956
 20
10.484663
 30
0.0
 10
3.299052
 20
10.475520
 30
0.0
 10
3.299701
 20
10.465903
 30
0.0
 10
3.299967
 20
10.459488
 30
0.0
 10
3.300100
 20
10.456281
 30
0.0
 11
3.141350
 21
10.512918
 31
0.0
 11
3.145058
 21
10.517106
 31
0.0
 11
3.148832
 21
10.521230
 31
0.0
 11
3.152742
 21
10.525229
 31
0.0
 11
3.156515
 21
10.528749
 31
0.0
 11
3.160464
 21
10.532069
 31
0.0
 11
3.164593
 21
10.535150
 31
0.0
 11
3.168607
 21
10.537796
 31
0.0
 11
3.172729
 21
10.540280
 31
0.0
 11
3.176904
 21
10.542684
 31
0.0
 11
3.181180
 21
10.544619
 31
0.0
 11
3.185493
 21
10.546452
 31
0.0
 11
3.189880
 21
10.548081
 31
0.0
 11
3.194422
 21
10.549439
 31
0.0
 11
3.199048
 21
10.550509
 31
0.0
 11
3.203730
 21
10.551320
 31
0.0
 11
3.208620
 21
10.551912
 31
0.0
 11
3.213531
 21
10.552267
 31
0.0
 11
3.218452
 21
10.552399
 31
0.0
 11
3.226692
 21
10.552141
 31
0.0
 11
3.234897
 21
10.551247
 31
0.0
 11
3.243027
 21
10.549666
 31
0.0
 11
3.250095
 21
10.547643
 31
0.0
 11
3.256904
 21
10.544944
 31
0.0
 11
3.263284
 21
10.541467
 31
0.0
 11
3.268905
 21
10.537361
 31
0.0
 11
3.274156
 21
10.532716
 31
0.0
 11
3.279223
 21
10.527801
 31
0.0
 11
3.283414
 21
10.521672
 31
0.0
 11
3.287361
 21
10.515420
 31
0.0
 11
3.290822
 21
10.508922
 31
0.0
 11
3.293897
 21
10.501247
 31
0.0
 11
3.296176
 21
10.493253
 31
0.0
 11
3.297781
 21
10.485082
 31
0.0
 11
3.298970
 21
10.475507
 31
0.0
 11
3.299660
 21
10.465902
 31
0.0
 11
3.300100
 21
10.456281
 31
0.0
  0
LINE
  5
196
100
AcDbEntity
  8
Layer_1
 62
7
100
AcDbLine
 10
3.556209
 20
10.382694
 30
0.0
 11
3.556209
 21
10.322129
 31
0.0
  0
SPLINE
  5
197
100
AcDbEntity
  8
Layer_1
 62
7
100
AcDbSpline
 70
0
 71
3
 72
79
 73
75
 74
73
 40
0.000000
 40
0.000000
 40
0.000000
 40
0.000000
 40
0.003964
 40
0.007926
 40
0.011887
 40
0.015667
 40
0.019449
 40
0.023231
 40
0.026865
 40
0.030499
 40
0.034133
 40
0.037655
 40
0.041178
 40
0.044701
 40
0.048237
 40
0.051773
 40
0.055308
 40
0.058896
 40
0.062484
 40
0.066075
 40
0.072507
 40
0.078940
 40
0.085373
 40
0.091133
 40
0.096892
 40
0.102648
 40
0.108177
 40
0.113710
 40
0.119243
 40
0.124796
 40
0.130350
 40
0.135901
 40
0.141832
 40
0.147767
 40
0.153704
 40
0.160421
 40
0.167137
 40
0.173853
 40
0.180571
 40
0.187288
 40
0.194023
 40
0.200006
 40
0.205972
 40
0.211902
 40
0.217446
 40
0.223019
 40
0.228621
 40
0.234149
 40
0.239646
 40
0.245112
 40
0.250835
 40
0.256596
 40
0.262373
 40
0.268817
 40
0.275243
 40
0.281665
 40
0.285461
 40
0.289257
 40
0.293053
 40
0.296752
 40
0.300450
 40
0.304148
 40
0.307791
 40
0.311435
 40
0.315078
 40
0.318730
 40
0.322383
 40
0.326036
 40
0.329676
 40
0.333316
 40
0.336953
 40
0.340620
 40
0.344290
 40
0.347963
 40
0.347963
 40
0.347963
 40
0.347963
 10
3.556209
 20
10.479225
 30
0.0
 10
3.555102
 20
10.479946
 30
0.0
 10
3.552888
 20
10.481388
 30
0.0
 10
3.549540
 20
10.483508
 30
0.0
 10
3.546191
 20
10.485509
 30
0.0
 10
3.542821
 20
10.487355
 30
0.0
 10
3.539442
 20
10.489053
 30
0.0
 10
3.536051
 20
10.490615
 30
0.0
 10
3.532657
 20
10.492048
 30
0.0
 10
3.529264
 20
10.493352
 30
0.0
 10
3.525865
 20
10.494529
 30
0.0
 10
3.522463
 20
10.495578
 30
0.0
 10
3.519062
 20
10.496499
 30
0.0
 10
3.515626
 20
10.497299
 30
0.0
 10
3.512159
 20
10.497975
 30
0.0
 10
3.508665
 20
10.498525
 30
0.0
 10
3.505137
 20
10.498954
 30
0.0
 10
3.501579
 20
10.499260
 30
0.0
 10
3.497994
 20
10.499442
 30
0.0
 10
3.493457
 20
10.499518
 30
0.0
 10
3.487970
 20
10.499354
 30
0.0
 10
3.481564
 20
10.498712
 30
0.0
 10
3.475448
 20
10.497597
 30
0.0
 10
3.469669
 20
10.496016
 30
0.0
 10
3.464263
 20
10.494009
 30
0.0
 10
3.459145
 20
10.491520
 30
0.0
 10
3.454376
 20
10.488554
 30
0.0
 10
3.449990
 20
10.485169
 30
0.0
 10
3.445961
 20
10.481353
 30
0.0
 10
3.442341
 20
10.477137
 30
0.0
 10
3.439155
 20
10.472579
 30
0.0
 10
3.436362
 20
10.467624
 30
0.0
 10
3.434019
 20
10.462302
 30
0.0
 10
3.432134
 20
10.456668
 30
0.0
 10
3.430652
 20
10.450645
 30
0.0
 10
3.429599
 20
10.444268
 30
0.0
 10
3.428993
 20
10.437573
 30
0.0
 10
3.428816
 20
10.430855
 30
0.0
 10
3.429012
 20
10.424137
 30
0.0
 10
3.429625
 20
10.417437
 30
0.0
 10
3.430662
 20
10.411037
 30
0.0
 10
3.432092
 20
10.404970
 30
0.0
 10
3.433947
 20
10.399297
 30
0.0
 10
3.436342
 20
10.393986
 30
0.0
 10
3.439285
 20
10.389106
 30
0.0
 10
3.442635
 20
10.384664
 30
0.0
 10
3.445798
 20
10.380021
 30
0.0
 10
3.450260
 20
10.376652
 30
0.0
 10
3.454487
 20
10.373153
 30
0.0
 10
3.459143
 20
10.370078
 30
0.0
 10
3.464220
 20
10.367569
 30
0.0
 10
3.469643
 20
10.365615
 30
0.0
 10
3.475449
 20
10.364101
 30
0.0
 10
3.481575
 20
10.363013
 30
0.0
 10
3.487979
 20
10.362372
 30
0.0
 10
3.493529
 20
10.362194
 30
0.0
 10
3.498200
 20
10.362266
 30
0.0
 10
3.501992
 20
10.362457
 30
0.0
 10
3.505743
 20
10.362779
 30
0.0
 10
3.509447
 20
10.363226
 30
0.0
 10
3.513102
 20
10.363798
 30
0.0
 10
3.516715
 20
10.364500
 30
0.0
 10
3.520282
 20
10.365333
 30
0.0
 10
3.523798
 20
10.366292
 30
0.0
 10
3.527280
 20
10.367377
 30
0.0
 10
3.530723
 20
10.368587
 30
0.0
 10
3.534125
 20
10.369920
 30
0.0
 10
3.537473
 20
10.371372
 30
0.0
 10
3.540763
 20
10.372941
 30
0.0
 10
3.543984
 20
10.374636
 30
0.0
 10
3.547138
 20
10.376473
 30
0.0
 10
3.550209
 20
10.378462
 30
0.0
 10
3.553225
 20
10.380554
 30
0.0
 10
3.555214
 20
10.381980
 30
0.0
 10
3.556209
 20
10.382693
 30
0.0
 11
3.556209
 21
10.479225
 31
0.0
 11
3.552883
 21
10.481381
 31
0.0
 11
3.549530
 21
10.483493
 31
0.0
 11
3.546126
 21
10.485518
 31
0.0
 11
3.542811
 21
10.487335
 31
0.0
 11
3.539433
 21
10.489034
 31
0.0
 11
3.535998
 21
10.490617
 31
0.0
 11
3.532649
 21
10.492030
 31
0.0
 11
3.529257
 21
10.493333
 31
0.0
 11
3.525823
 21
10.494521
 31
0.0
 11
3.522457
 21
10.495559
 31
0.0
 11
3.519057
 21
10.496479
 31
0.0
 11
3.515626
 21
10.497277
 31
0.0
 11
3.512155
 21
10.497954
 31
0.0
 11
3.508662
 21
10.498505
 31
0.0
 11
3.505153
 21
10.498931
 31
0.0
 11
3.501578
 21
10.499239
 31
0.0
 11
3.497994
 21
10.499422
 31
0.0
 11
3.494404
 21
10.499482
 31
0.0
 11
3.487975
 21
10.499279
 31
0.0
 11
3.481575
 21
10.498626
 31
0.0
 11
3.475249
 21
10.497461
 31
0.0
 11
3.469694
 21
10.495935
 31
0.0
 11
3.464298
 21
10.493922
 31
0.0
 11
3.459126
 21
10.491398
 31
0.0
 11
3.454430
 21
10.488478
 31
0.0
 11
3.450050
 21
10.485098
 31
0.0
 11
3.446035
 21
10.481292
 31
0.0
 11
3.442414
 21
10.477081
 31
0.0
 11
3.439230
 21
10.472530
 31
0.0
 11
3.436503
 21
10.467695
 31
0.0
 11
3.434105
 21
10.462271
 31
0.0
 11
3.432212
 21
10.456646
 31
0.0
 11
3.430785
 21
10.450883
 31
0.0
 11
3.429680
 21
10.444257
 31
0.0
 11
3.429064
 21
10.437569
 31
0.0
 11
3.428878
 21
10.430856
 31
0.0
 11
3.429081
 21
10.424141
 31
0.0
 11
3.429702
 21
10.417453
 31
0.0
 11
3.430785
 21
10.410805
 31
0.0
 11
3.432175
 21
10.404987
 31
0.0
 11
3.434051
 21
10.399323
 31
0.0
 11
3.436503
 21
10.393924
 31
0.0
 11
3.439357
 21
10.389171
 31
0.0
 11
3.442599
 21
10.384637
 31
0.0
 11
3.446035
 21
10.380213
 31
0.0
 11
3.450235
 21
10.376619
 31
0.0
 11
3.454558
 21
10.373223
 31
0.0
 11
3.459126
 21
10.370222
 31
0.0
 11
3.464251
 21
10.367674
 31
0.0
 11
3.469663
 21
10.365700
 31
0.0
 11
3.475249
 21
10.364228
 31
0.0
 11
3.481592
 21
10.363093
 31
0.0
 11
3.487985
 21
10.362444
 31
0.0
 11
3.494404
 21
10.362230
 31
0.0
 11
3.498199
 21
10.362288
 31
0.0
 11
3.501991
 21
10.362479
 31
0.0
 11
3.505773
 21
10.362804
 31
0.0
 11
3.509445
 21
10.363247
 31
0.0
 11
3.513098
 21
10.363820
 31
0.0
 11
3.516728
 21
10.364526
 31
0.0
 11
3.520276
 21
10.365355
 31
0.0
 11
3.523792
 21
10.366313
 31
0.0
 11
3.527270
 21
10.367397
 31
0.0
 11
3.530716
 21
10.368607
 31
0.0
 11
3.534116
 21
10.369940
 31
0.0
 11
3.537468
 21
10.371393
 31
0.0
 11
3.540753
 21
10.372963
 31
0.0
 11
3.543973
 21
10.374659
 31
0.0
 11
3.547114
 21
10.376492
 31
0.0
 11
3.550197
 21
10.378478
 31
0.0
 11
3.553219
 21
10.380561
 31
0.0
 11
3.556209
 21
10.382693
 31
0.0
  0
LINE
  5
198
100
AcDbEntity
  8
Layer_1
 62
7
100
AcDbLine
 10
3.556209
 20
10.539583
 30
0.0
 11
3.556209
 21
10.539583
 31
0.0
  0
LINE
  5
199
100
AcDbEntity
  8
Layer_1
 62
7
100
AcDbLine
 10
3.853245
 20
10.456281
 30
0.0
 11
3.853245
 21
10.315307
 31
0.0
  0
LINE
  5
19a
100
AcDbEntity
  8
Layer_1
 62
7
100
AcDbLine
 10
3.853245
 20
10.315307
 30
0.0
 11
3.778831
 21
10.315307
 31
0.0
  0
LINE
  5
19b
100
AcDbEntity
  8
Layer_1
 62
7
100
AcDbLine
 10
3.778831
 20
10.315307
 30
0.0
 11
3.778831
 21
10.338252
 31
0.0
  0
LINE
  5
19c
100
AcDbEntity
  8
Layer_1
 62
7
100
AcDbLine
 10
3.778831
 20
10.338252
 30
0.0
 11
3.778831
 21
10.422794
 31
0.0
  0
LINE
  5
19d
100
AcDbEntity
  8
Layer_1
 62
7
100
AcDbLine
 10
3.694495
 20
10.429202
 30
0.0
 11
3.694495
 21
10.315307
 31
0.0
  0
LINE
  5
19e
100
AcDbEntity
  8
Layer_1
 62
7
100
AcDbLine
 10
3.694495
 20
10.315307
 30
0.0
 11
3.620494
 21
10.315307
 31
0.0
  0
LINE
  5
19f
100
AcDbEntity
  8
Layer_1
 62
7
100
AcDbLine
 10
3.620494
 20
10.315307
 30
0.0
 11
3.620494
 21
10.636942
 31
0.0
  0
LINE
  5
1a0
100
AcDbEntity
  8
Layer_1
 62
7
100
AcDbLine
 10
3.620494
 20
10.636942
 30
0.0
 11
3.694495
 21
10.636942
 31
0.0
  0
LINE
  5
1a1
100
AcDbEntity
  8
Layer_1
 62
7
100
AcDbLine
 10
3.694495
 20
10.636942
 30
0.0
 11
3.694495
 21
10.512918
 31
0.0
  0
SPLINE
  5
1a2
100
AcDbEntity
  8
Layer_1
 62
7
100
AcDbSpline
 70
0
 71
3
 72
79
 73
75
 74
73
 40
0.000000
 40
0.000000
 40
0.000000
 40
0.000000
 40
0.004095
 40
0.008189
 40
0.012282
 40
0.016350
 40
0.020418
 40
0.024486
 40
0.028541
 40
0.032596
 40
0.036652
 40
0.040659
 40
0.044664
 40
0.048669
 40
0.052659
 40
0.056650
 40
0.060642
 40
0.064633
 40
0.068624
 40
0.072615
 40
0.085575
 40
0.098547
 40
0.111556
 40
0.123089
 40
0.134588
 40
0.146016
 40
0.156642
 40
0.167323
 40
0.178057
 40
0.188541
 40
0.198965
 40
0.209327
 40
0.220001
 40
0.230747
 40
0.241523
 40
0.253440
 40
0.265325
 40
0.277204
 40
0.289075
 40
0.300953
 40
0.312862
 40
0.323618
 40
0.334343
 40
0.344994
 40
0.355326
 40
0.365721
 40
0.376176
 40
0.386931
 40
0.397634
 40
0.408281
 40
0.419717
 40
0.431224
 40
0.442764
 40
0.455774
 40
0.468747
 40
0.481708
 40
0.485729
 40
0.489751
 40
0.493773
 40
0.497764
 40
0.501756
 40
0.505746
 40
0.509720
 40
0.513695
 40
0.517671
 40
0.521697
 40
0.525723
 40
0.529748
 40
0.533815
 40
0.537883
 40
0.541951
 40
0.546074
 40
0.550197
 40
0.554321
 40
0.554321
 40
0.554321
 40
0.554321
 10
3.556209
 20
10.322129
 30
0.0
 10
3.554920
 20
10.321679
 30
0.0
 10
3.552343
 20
10.320780
 30
0.0
 10
3.548467
 20
10.319463
 30
0.0
 10
3.544578
 20
10.318211
 30
0.0
 10
3.540668
 20
10.317056
 30
0.0
 10
3.536739
 20
10.315999
 30
0.0
 10
3.532790
 20
10.315040
 30
0.0
 10
3.528823
 20
10.314176
 30
0.0
 10
3.524845
 20
10.313390
 30
0.0
 10
3.520883
 20
10.312597
 30
0.0
 10
3.516910
 20
10.311964
 30
0.0
 10
3.512956
 20
10.311326
 30
0.0
 10
3.508995
 20
10.310767
 30
0.0
 10
3.505026
 20
10.310308
 30
0.0
 10
3.501051
 20
10.309945
 30
0.0
 10
3.497069
 20
10.309667
 30
0.0
 10
3.493082
 20
10.309469
 30
0.0
 10
3.489093
 20
10.309348
 30
0.0
 10
3.482113
 20
10.309265
 30
0.0
 10
3.472135
 20
10.309534
 30
0.0
 10
3.459198
 20
10.310692
 30
0.0
 10
3.446836
 20
10.312644
 30
0.0
 10
3.435113
 20
10.315313
 30
0.0
 10
3.424141
 20
10.318770
 30
0.0
 10
3.413863
 20
10.323239
 30
0.0
 10
3.404404
 20
10.328740
 30
0.0
 10
3.395769
 20
10.334996
 30
0.0
 10
3.386819
 20
10.340893
 30
0.0
 10
3.380125
 20
10.349151
 30
0.0
 10
3.373269
 20
10.356980
 30
0.0
 10
3.367240
 20
10.365602
 30
0.0
 10
3.362315
 20
10.375011
 30
0.0
 10
3.358461
 20
10.385048
 30
0.0
 10
3.355462
 20
10.395798
 30
0.0
 10
3.353306
 20
10.407134
 30
0.0
 10
3.352039
 20
10.418972
 30
0.0
 10
3.351646
 20
10.430853
 30
0.0
 10
3.352038
 20
10.442732
 30
0.0
 10
3.353305
 20
10.454562
 30
0.0
 10
3.355461
 20
10.465887
 30
0.0
 10
3.358459
 20
10.476620
 30
0.0
 10
3.362313
 20
10.486635
 30
0.0
 10
3.367237
 20
10.496017
 30
0.0
 10
3.373269
 20
10.504603
 30
0.0
 10
3.380121
 20
10.512399
 30
0.0
 10
3.386843
 20
10.520610
 30
0.0
 10
3.395763
 20
10.526553
 30
0.0
 10
3.404400
 20
10.532844
 30
0.0
 10
3.413857
 20
10.538380
 30
0.0
 10
3.424136
 20
10.542878
 30
0.0
 10
3.435109
 20
10.546359
 30
0.0
 10
3.446834
 20
10.549046
 30
0.0
 10
3.459196
 20
10.551010
 30
0.0
 10
3.472134
 20
10.552177
 30
0.0
 10
3.482122
 20
10.552445
 30
0.0
 10
3.489123
 20
10.552365
 30
0.0
 10
3.493144
 20
10.552243
 30
0.0
 10
3.497151
 20
10.552045
 30
0.0
 10
3.501143
 20
10.551768
 30
0.0
 10
3.505118
 20
10.551405
 30
0.0
 10
3.509077
 20
10.550946
 30
0.0
 10
3.513018
 20
10.550387
 30
0.0
 10
3.516941
 20
10.549748
 30
0.0
 10
3.520883
 20
10.549115
 30
0.0
 10
3.524814
 20
10.548320
 30
0.0
 10
3.528761
 20
10.547534
 30
0.0
 10
3.532708
 20
10.546669
 30
0.0
 10
3.536646
 20
10.545709
 30
0.0
 10
3.540575
 20
10.544652
 30
0.0
 10
3.544495
 20
10.543497
 30
0.0
 10
3.548405
 20
10.542247
 30
0.0
 10
3.552312
 20
10.540930
 30
0.0
 10
3.554910
 20
10.540032
 30
0.0
 10
3.556209
 20
10.539583
 30
0.0
 11
3.556209
 21
10.322129
 31
0.0
 11
3.552341
 21
10.320785
 31
0.0
 11
3.548463
 21
10.319473
 31
0.0
 11
3.544564
 21
10.318224
 31
0.0
 11
3.540663
 21
10.317072
 31
0.0
 11
3.536735
 21
10.316015
 31
0.0
 11
3.532782
 21
10.315055
 31
0.0
 11
3.528821
 21
10.314189
 31
0.0
 11
3.524845
 21
10.313388
 31
0.0
 11
3.520862
 21
10.312620
 31
0.0
 11
3.516910
 21
10.311962
 31
0.0
 11
3.512954
 21
10.311339
 31
0.0
 11
3.508988
 21
10.310783
 31
0.0
 11
3.505024
 21
10.310324
 31
0.0
 11
3.501050
 21
10.309959
 31
0.0
 11
3.497068
 21
10.309680
 31
0.0
 11
3.493082
 21
10.309482
 31
0.0
 11
3.489093
 21
10.309360
 31
0.0
 11
3.485102
 21
10.309313
 31
0.0
 11
3.472147
 21
10.309668
 31
0.0
 11
3.459228
 21
10.310835
 31
0.0
 11
3.446379
 21
10.312873
 31
0.0
 11
3.435142
 21
10.315467
 31
0.0
 11
3.424188
 21
10.318967
 31
0.0
 11
3.413720
 21
10.323553
 31
0.0
 11
3.404523
 21
10.328875
 31
0.0
 11
3.395724
 21
10.334930
 31
0.0
 11
3.387124
 21
10.341352
 31
0.0
 11
3.380072
 21
10.349111
 31
0.0
 11
3.373400
 21
10.357119
 31
0.0
 11
3.367487
 21
10.365629
 31
0.0
 11
3.362514
 21
10.375073
 31
0.0
 11
3.358625
 21
10.385091
 31
0.0
 11
3.355704
 21
10.395463
 31
0.0
 11
3.353464
 21
10.407168
 31
0.0
 11
3.352184
 21
10.418984
 31
0.0
 11
3.351777
 21
10.430856
 31
0.0
 11
3.352184
 21
10.442720
 31
0.0
 11
3.353463
 21
10.454528
 31
0.0
 11
3.355704
 21
10.466226
 31
0.0
 11
3.358624
 21
10.476577
 31
0.0
 11
3.362512
 21
10.486572
 31
0.0
 11
3.367487
 21
10.495991
 31
0.0
 11
3.373399
 21
10.504464
 31
0.0
 11
3.380071
 21
10.512434
 31
0.0
 11
3.387124
 21
10.520153
 31
0.0
 11
3.395721
 21
10.526615
 31
0.0
 11
3.404520
 21
10.532710
 31
0.0
 11
3.413720
 21
10.538067
 31
0.0
 11
3.424184
 21
10.542681
 31
0.0
 11
3.435138
 21
10.546203
 31
0.0
 11
3.446379
 21
10.548816
 31
0.0
 11
3.459227
 21
10.550866
 31
0.0
 11
3.472146
 21
10.552041
 31
0.0
 11
3.485102
 21
10.552399
 31
0.0
 11
3.489123
 21
10.552352
 31
0.0
 11
3.493143
 21
10.552230
 31
0.0
 11
3.497160
 21
10.552031
 31
0.0
 11
3.501142
 21
10.551754
 31
0.0
 11
3.505116
 21
10.551389
 31
0.0
 11
3.509080
 21
10.550929
 31
0.0
 11
3.513015
 21
10.550374
 31
0.0
 11
3.516941
 21
10.549750
 31
0.0
 11
3.520862
 21
10.549091
 31
0.0
 11
3.524814
 21
10.548322
 31
0.0
 11
3.528759
 21
10.547521
 31
0.0
 11
3.532690
 21
10.546657
 31
0.0
 11
3.536642
 21
10.545694
 31
0.0
 11
3.540571
 21
10.544636
 31
0.0
 11
3.544473
 21
10.543488
 31
0.0
 11
3.548401
 21
10.542237
 31
0.0
 11
3.552310
 21
10.540925
 31
0.0
 11
3.556209
 21
10.539583
 31
0.0
  0
SPLINE
  5
1a3
100
AcDbEntity
  8
Layer_1
 62
7
100
AcDbSpline
 70
0
 71
3
 72
61
 73
57
 74
55
 40
0.000000
 40
0.000000
 40
0.000000
 40
0.000000
 40
0.006048
 40
0.012097
 40
0.018145
 40
0.022787
 40
0.027430
 40
0.032072
 40
0.035315
 40
0.038557
 40
0.041799
 40
0.044131
 40
0.046462
 40
0.048794
 40
0.050725
 40
0.052654
 40
0.054583
 40
0.056146
 40
0.057710
 40
0.059273
 40
0.061111
 40
0.062950
 40
0.064790
 40
0.066597
 40
0.068402
 40
0.070206
 40
0.072039
 40
0.073874
 40
0.075710
 40
0.077605
 40
0.079499
 40
0.081392
 40
0.083332
 40
0.085273
 40
0.087214
 40
0.089257
 40
0.091300
 40
0.093345
 40
0.098184
 40
0.103025
 40
0.107865
 40
0.112395
 40
0.116924
 40
0.121447
 40
0.126152
 40
0.130863
 40
0.135578
 40
0.140683
 40
0.145785
 40
0.150889
 40
0.156585
 40
0.162280
 40
0.167969
 40
0.174499
 40
0.181035
 40
0.187580
 40
0.187580
 40
0.187580
 40
0.187580
 10
3.778831
 20
10.422794
 30
0.0
 10
3.778823
 20
10.424811
 30
0.0
 10
3.778808
 20
10.428843
 30
0.0
 10
3.778761
 20
10.434891
 30
0.0
 10
3.778686
 20
10.440470
 30
0.0
 10
3.778576
 20
10.445580
 30
0.0
 10
3.778424
 20
10.450220
 30
0.0
 10
3.778225
 20
10.454391
 30
0.0
 10
3.777989
 20
10.458093
 30
0.0
 10
3.777727
 20
10.461325
 30
0.0
 10
3.777428
 20
10.464249
 30
0.0
 10
3.777104
 20
10.466864
 30
0.0
 10
3.776760
 20
10.469170
 30
0.0
 10
3.776366
 20
10.471333
 30
0.0
 10
3.775925
 20
10.473350
 30
0.0
 10
3.775430
 20
10.475216
 30
0.0
 10
3.774870
 20
10.476935
 30
0.0
 10
3.774250
 20
10.478503
 30
0.0
 10
3.773592
 20
10.479923
 30
0.0
 10
3.772807
 20
10.481381
 30
0.0
 10
3.771875
 20
10.482859
 30
0.0
 10
3.770789
 20
10.484345
 30
0.0
 10
3.769618
 20
10.485751
 30
0.0
 10
3.768377
 20
10.487080
 30
0.0
 10
3.767067
 20
10.488325
 30
0.0
 10
3.765675
 20
10.489490
 30
0.0
 10
3.764201
 20
10.490566
 30
0.0
 10
3.762656
 20
10.491558
 30
0.0
 10
3.761044
 20
10.492476
 30
0.0
 10
3.759372
 20
10.493328
 30
0.0
 10
3.757642
 20
10.494099
 30
0.0
 10
3.755855
 20
10.494775
 30
0.0
 10
3.754014
 20
10.495341
 30
0.0
 10
3.752127
 20
10.495799
 30
0.0
 10
3.750183
 20
10.496153
 30
0.0
 10
3.748188
 20
10.496400
 30
0.0
 10
3.746149
 20
10.496547
 30
0.0
 10
3.743174
 20
10.496626
 30
0.0
 10
3.739262
 20
10.496483
 30
0.0
 10
3.734458
 20
10.495830
 30
0.0
 10
3.729847
 20
10.494703
 30
0.0
 10
3.725486
 20
10.493111
 30
0.0
 10
3.721417
 20
10.491107
 30
0.0
 10
3.717544
 20
10.488634
 30
0.0
 10
3.713940
 20
10.485684
 30
0.0
 10
3.710633
 20
10.482318
 30
0.0
 10
3.707586
 20
10.478545
 30
0.0
 10
3.704826
 20
10.474398
 30
0.0
 10
3.702383
 20
10.469910
 30
0.0
 10
3.700235
 20
10.465058
 30
0.0
 10
3.698416
 20
10.459863
 30
0.0
 10
3.696957
 20
10.454355
 30
0.0
 10
3.695849
 20
10.448482
 30
0.0
 10
3.695139
 20
10.442266
 30
0.0
 10
3.694733
 20
10.435740
 30
0.0
 10
3.694574
 20
10.431383
 30
0.0
 10
3.694495
 20
10.429202
 30
0.0
 11
3.778831
 21
10.422794
 31
0.0
 11
3.778804
 21
10.428843
 31
0.0
 11
3.778756
 21
10.434891
 31
0.0
 11
3.778670
 21
10.440939
 31
0.0
 11
3.778567
 21
10.445580
 31
0.0
 11
3.778412
 21
10.450220
 31
0.0
 11
3.778188
 21
10.454857
 31
0.0
 11
3.777979
 21
10.458092
 31
0.0
 11
3.777716
 21
10.461324
 31
0.0
 11
3.777384
 21
10.464549
 31
0.0
 11
3.777095
 21
10.466862
 31
0.0
 11
3.776748
 21
10.469168
 31
0.0
 11
3.776327
 21
10.471462
 31
0.0
 11
3.775911
 21
10.473347
 31
0.0
 11
3.775413
 21
10.475211
 31
0.0
 11
3.774812
 21
10.477043
 31
0.0
 11
3.774236
 21
10.478497
 31
0.0
 11
3.773578
 21
10.479916
 31
0.0
 11
3.772836
 21
10.481292
 31
0.0
 11
3.771858
 21
10.482847
 31
0.0
 11
3.770774
 21
10.484333
 31
0.0
 11
3.769598
 21
10.485748
 31
0.0
 11
3.768364
 21
10.487068
 31
0.0
 11
3.767054
 21
10.488311
 31
0.0
 11
3.765671
 21
10.489468
 31
0.0
 11
3.764191
 21
10.490551
 31
0.0
 11
3.762648
 21
10.491544
 31
0.0
 11
3.761054
 21
10.492454
 31
0.0
 11
3.759365
 21
10.493313
 31
0.0
 11
3.757634
 21
10.494082
 31
0.0
 11
3.755864
 21
10.494751
 31
0.0
 11
3.754009
 21
10.495322
 31
0.0
 11
3.752123
 21
10.495781
 31
0.0
 11
3.750214
 21
10.496129
 31
0.0
 11
3.748187
 21
10.496383
 31
0.0
 11
3.746149
 21
10.496531
 31
0.0
 11
3.744104
 21
10.496588
 31
0.0
 11
3.739269
 21
10.496404
 31
0.0
 11
3.734473
 21
10.495747
 31
0.0
 11
3.729773
 21
10.494590
 31
0.0
 11
3.725518
 21
10.493036
 31
0.0
 11
3.721456
 21
10.491033
 31
0.0
 11
3.717646
 21
10.488596
 31
0.0
 11
3.713999
 21
10.485623
 31
0.0
 11
3.710691
 21
10.482268
 31
0.0
 11
3.707724
 21
10.478605
 31
0.0
 11
3.704890
 21
10.474359
 31
0.0
 11
3.702445
 21
10.469880
 31
0.0
 11
3.700374
 21
10.465215
 31
0.0
 11
3.698487
 21
10.459842
 31
0.0
 11
3.697024
 21
10.454338
 31
0.0
 11
3.695965
 21
10.448748
 31
0.0
 11
3.695195
 21
10.442263
 31
0.0
 11
3.694761
 21
10.435742
 31
0.0
 11
3.694495
 21
10.429202
 31
0.0
  0
LINE
  5
1a4
100
AcDbEntity
  8
Layer_1
 62
7
100
AcDbLine
 10
3.853245
 20
10.456281
 30
0.0
 11
3.853245
 21
10.456281
 31
0.0
  0
LINE
  5
1a5
100
AcDbEntity
  8
Layer_1
 62
7
100
AcDbLine
 10
4.153382
 20
10.431683
 30
0.0
 11
4.153382
 21
10.410599
 31
0.0
  0
LINE
  5
1a6
100
AcDbEntity
  8
Layer_1
 62
7
100
AcDbLine
 10
4.153382
 20
10.410599
 30
0.0
 11
3.980369
 21
10.410599
 31
0.0
  0
SPLINE
  5
1a7
100
AcDbEntity
  8
Layer_1
 62
7
100
AcDbSpline
 70
0
 71
3
 72
43
 73
39
 74
37
 40
0.000000
 40
0.000000
 40
0.000000
 40
0.000000
 40
0.005593
 40
0.011184
 40
0.016776
 40
0.021936
 40
0.027095
 40
0.032248
 40
0.037055
 40
0.041867
 40
0.046685
 40
0.051379
 40
0.056065
 40
0.060745
 40
0.065485
 40
0.070233
 40
0.074985
 40
0.079911
 40
0.084835
 40
0.089757
 40
0.098002
 40
0.106255
 40
0.114537
 40
0.121889
 40
0.129214
 40
0.136480
 40
0.143440
 40
0.150451
 40
0.157510
 40
0.164935
 40
0.172329
 40
0.179691
 40
0.187959
 40
0.196272
 40
0.204599
 40
0.214247
 40
0.223877
 40
0.233508
 40
0.233508
 40
0.233508
 40
0.233508
 10
3.694495
 20
10.512918
 30
0.0
 10
3.695727
 20
10.514317
 30
0.0
 10
3.698190
 20
10.517116
 30
0.0
 10
3.701955
 20
10.521252
 30
0.0
 10
3.705754
 20
10.525158
 30
0.0
 10
3.709630
 20
10.528782
 30
0.0
 10
3.713575
 20
10.532107
 30
0.0
 10
3.717615
 20
10.535125
 30
0.0
 10
3.721732
 20
10.537833
 30
0.0
 10
3.725882
 20
10.540265
 30
0.0
 10
3.729955
 20
10.542775
 30
0.0
 10
3.734330
 20
10.544606
 30
0.0
 10
3.738618
 20
10.546493
 30
0.0
 10
3.743027
 20
10.548138
 30
0.0
 10
3.747556
 20
10.549488
 30
0.0
 10
3.752185
 20
10.550553
 30
0.0
 10
3.756926
 20
10.551368
 30
0.0
 10
3.761760
 20
10.551951
 30
0.0
 10
3.766673
 20
10.552304
 30
0.0
 10
3.772703
 20
10.552463
 30
0.0
 10
3.779847
 20
10.552246
 30
0.0
 10
3.788068
 20
10.551360
 30
0.0
 10
3.795895
 20
10.549845
 30
0.0
 10
3.803268
 20
10.547760
 30
0.0
 10
3.810093
 20
10.545088
 30
0.0
 10
3.816430
 20
10.541660
 30
0.0
 10
3.822153
 20
10.537450
 30
0.0
 10
3.827274
 20
10.532680
 30
0.0
 10
3.832745
 20
10.527960
 30
0.0
 10
3.836506
 20
10.521635
 30
0.0
 10
3.840600
 20
10.515495
 30
0.0
 10
3.844227
 20
10.508709
 30
0.0
 10
3.847184
 20
10.501279
 30
0.0
 10
3.849434
 20
10.493274
 30
0.0
 10
3.851100
 20
10.484663
 30
0.0
 10
3.852197
 20
10.475520
 30
0.0
 10
3.852846
 20
10.465903
 30
0.0
 10
3.853112
 20
10.459488
 30
0.0
 10
3.853245
 20
10.456281
 30
0.0
 11
3.694495
 21
10.512918
 31
0.0
 11
3.698202
 21
10.517106
 31
0.0
 11
3.701977
 21
10.521230
 31
0.0
 11
3.705887
 21
10.525229
 31
0.0
 11
3.709659
 21
10.528749
 31
0.0
 11
3.713608
 21
10.532069
 31
0.0
 11
3.717738
 21
10.535150
 31
0.0
 11
3.721752
 21
10.537796
 31
0.0
 11
3.725873
 21
10.540280
 31
0.0
 11
3.730048
 21
10.542684
 31
0.0
 11
3.734324
 21
10.544619
 31
0.0
 11
3.738638
 21
10.546452
 31
0.0
 11
3.743025
 21
10.548081
 31
0.0
 11
3.747566
 21
10.549439
 31
0.0
 11
3.752192
 21
10.550509
 31
0.0
 11
3.756874
 21
10.551320
 31
0.0
 11
3.761765
 21
10.551912
 31
0.0
 11
3.766675
 21
10.552267
 31
0.0
 11
3.771596
 21
10.552399
 31
0.0
 11
3.779837
 21
10.552141
 31
0.0
 11
3.788041
 21
10.551247
 31
0.0
 11
3.796171
 21
10.549666
 31
0.0
 11
3.803240
 21
10.547643
 31
0.0
 11
3.810049
 21
10.544944
 31
0.0
 11
3.816428
 21
10.541467
 31
0.0
 11
3.822049
 21
10.537361
 31
0.0
 11
3.827301
 21
10.532716
 31
0.0
 11
3.832368
 21
10.527801
 31
0.0
 11
3.836559
 21
10.521672
 31
0.0
 11
3.840506
 21
10.515420
 31
0.0
 11
3.843966
 21
10.508922
 31
0.0
 11
3.847042
 21
10.501247
 31
0.0
 11
3.849321
 21
10.493253
 31
0.0
 11
3.850925
 21
10.485082
 31
0.0
 11
3.852114
 21
10.475507
 31
0.0
 11
3.852804
 21
10.465902
 31
0.0
 11
3.853245
 21
10.456281
 31
0.0
  0
LINE
  5
1a8
100
AcDbEntity
  8
Layer_1
 62
7
100
AcDbLine
 10
4.142426
 20
10.386414
 30
0.0
 11
4.142426
 21
10.329363
 31
0.0
  0
SPLINE
  5
1a9
100
AcDbEntity
  8
Layer_1
 62
7
100
AcDbSpline
 70
0
 71
3
 72
43
 73
39
 74
37
 40
0.000000
 40
0.000000
 40
0.000000
 40
0.000000
 40
0.005436
 40
0.010857
 40
0.016267
 40
0.021091
 40
0.025926
 40
0.030764
 40
0.035356
 40
0.039945
 40
0.044529
 40
0.049259
 40
0.053994
 40
0.058730
 40
0.063952
 40
0.069174
 40
0.074396
 40
0.080377
 40
0.086359
 40
0.092342
 40
0.097580
 40
0.102816
 40
0.108053
 40
0.113415
 40
0.118777
 40
0.124136
 40
0.129663
 40
0.135192
 40
0.140723
 40
0.146530
 40
0.152336
 40
0.158141
 40
0.164215
 40
0.170292
 40
0.176368
 40
0.182743
 40
0.189118
 40
0.195494
 40
0.195494
 40
0.195494
 40
0.195494
 10
3.980369
 20
10.410599
 30
0.0
 10
3.980643
 20
10.408808
 30
0.0
 10
3.981191
 20
10.405230
 30
0.0
 10
3.982194
 20
10.399899
 30
0.0
 10
3.983515
 20
10.394844
 30
0.0
 10
3.985256
 20
10.390124
 30
0.0
 10
3.987348
 20
10.385760
 30
0.0
 10
3.989813
 20
10.381685
 30
0.0
 10
3.992617
 20
10.377938
 30
0.0
 10
3.995714
 20
10.374542
 30
0.0
 10
3.999166
 20
10.371438
 30
0.0
 10
4.002960
 20
10.368679
 30
0.0
 10
4.007044
 20
10.366273
 30
0.0
 10
4.011473
 20
10.364167
 30
0.0
 10
4.016219
 20
10.362394
 30
0.0
 10
4.021247
 20
10.360966
 30
0.0
 10
4.026611
 20
10.359850
 30
0.0
 10
4.032290
 20
10.359063
 30
0.0
 10
4.038258
 20
10.358610
 30
0.0
 10
4.043993
 20
10.358472
 30
0.0
 10
4.049478
 20
10.358562
 30
0.0
 10
4.054710
 20
10.358820
 30
0.0
 10
4.059972
 20
10.359246
 30
0.0
 10
4.065261
 20
10.359827
 30
0.0
 10
4.070570
 20
10.360578
 30
0.0
 10
4.075905
 20
10.361520
 30
0.0
 10
4.081257
 20
10.362663
 30
0.0
 10
4.086624
 20
10.363987
 30
0.0
 10
4.092103
 20
10.365270
 30
0.0
 10
4.097524
 20
10.367091
 30
0.0
 10
4.103055
 20
10.368854
 30
0.0
 10
4.108621
 20
10.370800
 30
0.0
 10
4.114210
 20
10.372943
 30
0.0
 10
4.119814
 20
10.375294
 30
0.0
 10
4.125441
 20
10.377842
 30
0.0
 10
4.131086
 20
10.380583
 30
0.0
 10
4.136769
 20
10.383473
 30
0.0
 10
4.140541
 20
10.385434
 30
0.0
 10
4.142426
 20
10.386414
 30
0.0
 11
3.980369
 21
10.410599
 31
0.0
 11
3.981222
 21
10.405230
 31
0.0
 11
3.982256
 21
10.399909
 31
0.0
 11
3.983653
 21
10.394682
 31
0.0
 11
3.985324
 21
10.390157
 31
0.0
 11
3.987417
 21
10.385798
 31
0.0
 11
3.989923
 21
10.381660
 31
0.0
 11
3.992675
 21
10.377984
 31
0.0
 11
3.995769
 21
10.374595
 31
0.0
 11
3.999179
 21
10.371531
 31
0.0
 11
4.003000
 21
10.368744
 31
0.0
 11
4.007077
 21
10.366335
 31
0.0
 11
4.011352
 21
10.364297
 31
0.0
 11
4.016241
 21
10.362461
 31
0.0
 11
4.021262
 21
10.361027
 31
0.0
 11
4.026372
 21
10.359956
 31
0.0
 11
4.032296
 21
10.359125
 31
0.0
 11
4.038260
 21
10.358662
 31
0.0
 11
4.044241
 21
10.358509
 31
0.0
 11
4.049478
 21
10.358591
 31
0.0
 11
4.054708
 21
10.358848
 31
0.0
 11
4.059928
 21
10.359267
 31
0.0
 11
4.065258
 21
10.359855
 31
0.0
 11
4.070566
 21
10.360608
 31
0.0
 11
4.075844
 21
10.361541
 31
0.0
 11
4.081250
 21
10.362691
 31
0.0
 11
4.086627
 21
10.363977
 31
0.0
 11
4.091990
 21
10.365331
 31
0.0
 11
4.097529
 21
10.367077
 31
0.0
 11
4.103048
 21
10.368880
 31
0.0
 11
4.108526
 21
10.370797
 31
0.0
 11
4.114198
 21
10.372972
 31
0.0
 11
4.119803
 21
10.375320
 31
0.0
 11
4.125339
 21
10.377824
 31
0.0
 11
4.131078
 21
10.380601
 31
0.0
 11
4.136765
 21
10.383481
 31
0.0
 11
4.142426
 21
10.386414
 31
0.0
  0
LINE
  5
1aa
100
AcDbEntity
  8
Layer_1
 62
7
100
AcDbLine
 10
4.153382
 20
10.431683
 30
0.0
 11
4.153382
 21
10.431683
 31
0.0
  0
SPLINE
  5
1ab
100
AcDbEntity
  8
Layer_1
 62
7
100
AcDbSpline
 70
0
 71
3
 72
79
 73
75
 74
73
 40
0.000000
 40
0.000000
 40
0.000000
 40
0.000000
 40
0.006175
 40
0.012349
 40
0.018522
 40
0.024587
 40
0.030652
 40
0.036716
 40
0.042690
 40
0.048664
 40
0.054639
 40
0.060552
 40
0.066464
 40
0.072375
 40
0.078236
 40
0.084100
 40
0.089964
 40
0.095802
 40
0.101640
 40
0.107477
 40
0.120459
 40
0.133452
 40
0.146481
 40
0.157986
 40
0.169457
 40
0.180857
 40
0.191404
 40
0.202007
 40
0.212662
 40
0.223056
 40
0.233390
 40
0.243662
 40
0.254330
 40
0.265072
 40
0.275845
 40
0.287829
 40
0.299779
 40
0.311722
 40
0.323487
 40
0.335260
 40
0.347063
 40
0.357742
 40
0.368392
 40
0.378973
 40
0.389207
 40
0.399499
 40
0.409848
 40
0.420386
 40
0.430871
 40
0.441300
 40
0.452353
 40
0.463475
 40
0.474630
 40
0.487107
 40
0.499548
 40
0.511981
 40
0.523368
 40
0.534762
 40
0.546182
 40
0.556609
 40
0.567013
 40
0.577358
 40
0.587427
 40
0.597547
 40
0.607718
 40
0.617921
 40
0.628082
 40
0.638206
 40
0.648635
 40
0.659111
 40
0.669586
 40
0.681055
 40
0.692522
 40
0.704009
 40
0.704009
 40
0.704009
 40
0.704009
 10
4.142426
 20
10.329363
 30
0.0
 10
4.140489
 20
10.328668
 30
0.0
 10
4.136615
 20
10.327276
 30
0.0
 10
4.130789
 20
10.325232
 30
0.0
 10
4.124967
 20
10.323289
 30
0.0
 10
4.119137
 20
10.321489
 30
0.0
 10
4.113302
 20
10.319833
 30
0.0
 10
4.107459
 20
10.318324
 30
0.0
 10
4.101612
 20
10.316957
 30
0.0
 10
4.095770
 20
10.315710
 30
0.0
 10
4.089952
 20
10.314436
 30
0.0
 10
4.084099
 20
10.313456
 30
0.0
 10
4.078272
 20
10.312457
 30
0.0
 10
4.072442
 20
10.311586
 30
0.0
 10
4.066606
 20
10.310872
 30
0.0
 10
4.060770
 20
10.310305
 30
0.0
 10
4.054931
 20
10.309868
 30
0.0
 10
4.049092
 20
10.309549
 30
0.0
 10
4.043257
 20
10.309353
 30
0.0
 10
4.035038
 20
10.309265
 30
0.0
 10
4.024432
 20
10.309556
 30
0.0
 10
4.011472
 20
10.310698
 30
0.0
 10
3.999102
 20
10.312619
 30
0.0
 10
3.987384
 20
10.315260
 30
0.0
 10
3.976434
 20
10.318693
 30
0.0
 10
3.966195
 20
10.323140
 30
0.0
 10
3.956791
 20
10.328612
 30
0.0
 10
3.948229
 20
10.334832
 30
0.0
 10
3.939334
 20
10.340674
 30
0.0
 10
3.932770
 20
10.348932
 30
0.0
 10
3.926026
 20
10.356738
 30
0.0
 10
3.920094
 20
10.365353
 30
0.0
 10
3.915255
 20
10.374768
 30
0.0
 10
3.911475
 20
10.384829
 30
0.0
 10
3.908538
 20
10.395615
 30
0.0
 10
3.906419
 20
10.407003
 30
0.0
 10
3.905174
 20
10.418908
 30
0.0
 10
3.904794
 20
10.430797
 30
0.0
 10
3.905179
 20
10.442626
 30
0.0
 10
3.906402
 20
10.454354
 30
0.0
 10
3.908479
 20
10.465595
 30
0.0
 10
3.911365
 20
10.476268
 30
0.0
 10
3.915081
 20
10.486255
 30
0.0
 10
3.919833
 20
10.495633
 30
0.0
 10
3.925653
 20
10.504254
 30
0.0
 10
3.932274
 20
10.512113
 30
0.0
 10
3.938711
 20
10.520372
 30
0.0
 10
3.947367
 20
10.526382
 30
0.0
 10
3.955709
 20
10.532706
 30
0.0
 10
3.964836
 20
10.538262
 30
0.0
 10
3.974745
 20
10.542782
 30
0.0
 10
3.985304
 20
10.546295
 30
0.0
 10
3.996574
 20
10.549018
 30
0.0
 10
4.008443
 20
10.551013
 30
0.0
 10
4.020847
 20
10.552196
 30
0.0
 10
4.032938
 20
10.552524
 30
0.0
 10
4.044676
 20
10.552113
 30
0.0
 10
4.056027
 20
10.550945
 30
0.0
 10
4.066941
 20
10.548965
 30
0.0
 10
4.077339
 20
10.546186
 30
0.0
 10
4.087110
 20
10.542596
 30
0.0
 10
4.096329
 20
10.538015
 30
0.0
 10
4.104862
 20
10.532414
 30
0.0
 10
4.112705
 20
10.526039
 30
0.0
 10
4.120860
 20
10.519860
 30
0.0
 10
4.127006
 20
10.511664
 30
0.0
 10
4.133379
 20
10.503765
 30
0.0
 10
4.138998
 20
10.495174
 30
0.0
 10
4.143631
 20
10.485902
 30
0.0
 10
4.147251
 20
10.476068
 30
0.0
 10
4.149971
 20
10.465592
 30
0.0
 10
4.151719
 20
10.454579
 30
0.0
 10
4.152744
 20
10.443146
 30
0.0
 10
4.153169
 20
10.435506
 30
0.0
 10
4.153382
 20
10.431683
 30
0.0
 11
4.142426
 21
10.329363
 31
0.0
 11
4.136612
 21
10.327283
 31
0.0
 11
4.130784
 21
10.325247
 31
0.0
 11
4.124925
 21
10.323300
 31
0.0
 11
4.119130
 21
10.321511
 31
0.0
 11
4.113295
 21
10.319856
 31
0.0
 11
4.107424
 21
10.318339
 31
0.0
 11
4.101608
 21
10.316976
 31
0.0
 11
4.095771
 21
10.315705
 31
0.0
 11
4.089923
 21
10.314481
 31
0.0
 11
4.084100
 21
10.313452
 31
0.0
 11
4.078268
 21
10.312478
 31
0.0
 11
4.072422
 21
10.311610
 31
0.0
 11
4.066604
 21
10.310896
 31
0.0
 11
4.060768
 21
10.310327
 31
0.0
 11
4.054921
 21
10.309887
 31
0.0
 11
4.049091
 21
10.309569
 31
0.0
 11
4.043256
 21
10.309375
 31
0.0
 11
4.037420
 21
10.309313
 31
0.0
 11
4.024443
 21
10.309687
 31
0.0
 11
4.011501
 21
10.310839
 31
0.0
 11
3.998628
 21
10.312850
 31
0.0
 11
3.987413
 21
10.315415
 31
0.0
 11
3.976482
 21
10.318891
 31
0.0
 11
3.966037
 21
10.323461
 31
0.0
 11
3.956911
 21
10.328747
 31
0.0
 11
3.948180
 21
10.334764
 31
0.0
 11
3.939648
 21
10.341146
 31
0.0
 11
3.932713
 21
10.348889
 31
0.0
 11
3.926157
 21
10.356877
 31
0.0
 11
3.920355
 21
10.365353
 31
0.0
 11
3.915454
 21
10.374828
 31
0.0
 11
3.911638
 21
10.384870
 31
0.0
 11
3.908780
 21
10.395257
 31
0.0
 11
3.906575
 21
10.407036
 31
0.0
 11
3.905317
 21
10.418920
 31
0.0
 11
3.904921
 21
10.430856
 31
0.0
 11
3.905319
 21
10.442615
 31
0.0
 11
3.906554
 21
10.454322
 31
0.0
 11
3.908711
 21
10.465927
 31
0.0
 11
3.911524
 21
10.476229
 31
0.0
 11
3.915274
 21
10.486197
 31
0.0
 11
3.920080
 21
10.495624
 31
0.0
 11
3.925782
 21
10.504122
 31
0.0
 11
3.932220
 21
10.512151
 31
0.0
 11
3.939028
 21
10.519946
 31
0.0
 11
3.947326
 21
10.526442
 31
0.0
 11
3.955831
 21
10.532574
 31
0.0
 11
3.964751
 21
10.537975
 31
0.0
 11
3.974795
 21
10.542590
 31
0.0
 11
3.985335
 21
10.546141
 31
0.0
 11
3.996170
 21
10.548793
 31
0.0
 11
4.008474
 21
10.550868
 31
0.0
 11
4.020858
 21
10.552056
 31
0.0
 11
4.033286
 21
10.552399
 31
0.0
 11
4.044666
 21
10.551985
 31
0.0
 11
4.055998
 21
10.550801
 31
0.0
 11
4.067231
 21
10.548747
 31
0.0
 11
4.077299
 21
10.546033
 31
0.0
 11
4.087054
 21
10.542414
 31
0.0
 11
4.096308
 21
10.537792
 31
0.0
 11
4.104741
 21
10.532290
 31
0.0
 11
4.112738
 21
10.526087
 31
0.0
 11
4.120515
 21
10.519533
 31
0.0
 11
4.127054
 21
10.511700
 31
0.0
 11
4.133254
 21
10.503650
 31
0.0
 11
4.138774
 21
10.495164
 31
0.0
 11
4.143448
 21
10.485840
 31
0.0
 11
4.147086
 21
10.476016
 31
0.0
 11
4.149730
 21
10.465881
 31
0.0
 11
4.151590
 21
10.454564
 31
0.0
 11
4.152679
 21
10.443148
 31
0.0
 11
4.153382
 21
10.431683
 31
0.0
  0
LINE
  5
1ac
100
AcDbEntity
  8
Layer_1
 62
7
100
AcDbLine
 10
3.981196
 20
10.456281
 30
0.0
 11
4.077314
 21
10.456281
 31
0.0
  0
LINE
  5
1ad
100
AcDbEntity
  8
Layer_1
 62
7
100
AcDbLine
 10
4.077314
 20
10.456281
 30
0.0
 11
4.077314
 21
10.456281
 31
0.0
  0
LINE
  5
1ae
100
AcDbEntity
  8
Layer_1
 62
7
100
AcDbLine
 10
4.390060
 20
10.539583
 30
0.0
 11
4.390060
 21
10.483359
 31
0.0
  0
LINE
  5
1af
100
AcDbEntity
  8
Layer_1
 62
7
100
AcDbLine
 10
4.296422
 20
10.461035
 30
0.0
 11
4.309444
 21
10.459175
 31
0.0
  0
SPLINE
  5
1b0
100
AcDbEntity
  8
Layer_1
 62
7
100
AcDbSpline
 70
0
 71
3
 72
43
 73
39
 74
37
 40
0.000000
 40
0.000000
 40
0.000000
 40
0.000000
 40
0.004411
 40
0.008816
 40
0.013221
 40
0.017251
 40
0.021282
 40
0.025295
 40
0.029187
 40
0.033093
 40
0.037014
 40
0.040883
 40
0.044732
 40
0.048562
 40
0.052402
 40
0.056264
 40
0.060131
 40
0.064298
 40
0.068459
 40
0.072620
 40
0.077130
 40
0.081639
 40
0.086149
 40
0.090272
 40
0.094393
 40
0.098512
 40
0.102506
 40
0.106503
 40
0.110501
 40
0.114535
 40
0.118568
 40
0.122603
 40
0.126899
 40
0.131195
 40
0.135484
 40
0.140265
 40
0.145052
 40
0.149850
 40
0.149850
 40
0.149850
 40
0.149850
 10
4.077314
 20
10.456281
 30
0.0
 10
4.077233
 20
10.457749
 30
0.0
 10
4.077072
 20
10.460683
 30
0.0
 10
4.076685
 20
10.465075
 30
0.0
 10
4.076026
 20
10.469309
 30
0.0
 10
4.075001
 20
10.473342
 30
0.0
 10
4.073635
 20
10.477136
 30
0.0
 10
4.071887
 20
10.480719
 30
0.0
 10
4.069766
 20
10.484047
 30
0.0
 10
4.067364
 20
10.487123
 30
0.0
 10
4.065041
 20
10.490279
 30
0.0
 10
4.062030
 20
10.492756
 30
0.0
 10
4.059121
 20
10.495272
 30
0.0
 10
4.055969
 20
10.497483
 30
0.0
 10
4.052570
 20
10.499298
 30
0.0
 10
4.048981
 20
10.500728
 30
0.0
 10
4.045169
 20
10.501838
 30
0.0
 10
4.041175
 20
10.502623
 30
0.0
 10
4.037033
 20
10.503085
 30
0.0
 10
4.032756
 20
10.503251
 30
0.0
 10
4.028361
 20
10.503133
 30
0.0
 10
4.023869
 20
10.502691
 30
0.0
 10
4.019551
 20
10.501930
 30
0.0
 10
4.015430
 20
10.500868
 30
0.0
 10
4.011530
 20
10.499522
 30
0.0
 10
4.007800
 20
10.497858
 30
0.0
 10
4.004279
 20
10.495872
 30
0.0
 10
4.000983
 20
10.493602
 30
0.0
 10
3.997891
 20
10.491043
 30
0.0
 10
3.995025
 20
10.488214
 30
0.0
 10
3.992407
 20
10.485138
 30
0.0
 10
3.990009
 20
10.481780
 30
0.0
 10
3.987866
 20
10.478151
 30
0.0
 10
3.986005
 20
10.474276
 30
0.0
 10
3.984412
 20
10.470110
 30
0.0
 10
3.983137
 20
10.465665
 30
0.0
 10
3.982097
 20
10.460990
 30
0.0
 10
3.981496
 20
10.457852
 30
0.0
 10
3.981196
 20
10.456281
 30
0.0
 11
4.077314
 21
10.456281
 31
0.0
 11
4.077047
 21
10.460684
 31
0.0
 11
4.076636
 21
10.465069
 31
0.0
 11
4.075936
 21
10.469418
 31
0.0
 11
4.074939
 21
10.473323
 31
0.0
 11
4.073566
 21
10.477113
 31
0.0
 11
4.071802
 21
10.480718
 31
0.0
 11
4.069719
 21
10.484006
 31
0.0
 11
4.067379
 21
10.487133
 31
0.0
 11
4.064912
 21
10.490180
 31
0.0
 11
4.062038
 21
10.492770
 31
0.0
 11
4.059074
 21
10.495226
 31
0.0
 11
4.055931
 21
10.497415
 31
0.0
 11
4.052547
 21
10.499230
 31
0.0
 11
4.048963
 21
10.500669
 31
0.0
 11
4.045252
 21
10.501756
 31
0.0
 11
4.041164
 21
10.502566
 31
0.0
 11
4.037030
 21
10.503035
 31
0.0
 11
4.032872
 21
10.503203
 31
0.0
 11
4.028364
 21
10.503080
 31
0.0
 11
4.023877
 21
10.502634
 31
0.0
 11
4.019436
 21
10.501848
 31
0.0
 11
4.015445
 21
10.500815
 31
0.0
 11
4.011551
 21
10.499466
 31
0.0
 11
4.007792
 21
10.497783
 31
0.0
 11
4.004311
 21
10.495822
 31
0.0
 11
4.001019
 21
10.493556
 31
0.0
 11
3.997939
 21
10.491007
 31
0.0
 11
3.995068
 21
10.488174
 31
0.0
 11
3.992453
 21
10.485103
 31
0.0
 11
3.990107
 21
10.481820
 31
0.0
 11
3.987920
 21
10.478122
 31
0.0
 11
3.986058
 21
10.474251
 31
0.0
 11
3.984526
 21
10.470245
 31
0.0
 11
3.983185
 21
10.465656
 31
0.0
 11
3.982121
 21
10.460988
 31
0.0
 11
3.981196
 21
10.456281
 31
0.0
  0
SPLINE
  5
1b1
100
AcDbEntity
  8
Layer_1
 62
7
100
AcDbSpline
 70
0
 71
3
 72
61
 73
57
 74
55
 40
0.000000
 40
0.000000
 40
0.000000
 40
0.000000
 40
0.005600
 40
0.011199
 40
0.016797
 40
0.022157
 40
0.027518
 40
0.032880
 40
0.038021
 40
0.043161
 40
0.048302
 40
0.053212
 40
0.058123
 40
0.063034
 40
0.067707
 40
0.072380
 40
0.077052
 40
0.081513
 40
0.085973
 40
0.090434
 40
0.094727
 40
0.099020
 40
0.103314
 40
0.106860
 40
0.110404
 40
0.113949
 40
0.116826
 40
0.119703
 40
0.122583
 40
0.124915
 40
0.127244
 40
0.129567
 40
0.131694
 40
0.133824
 40
0.135951
 40
0.138208
 40
0.140471
 40
0.142740
 40
0.144597
 40
0.146447
 40
0.148293
 40
0.150036
 40
0.151784
 40
0.153532
 40
0.155401
 40
0.157272
 40
0.159141
 40
0.161543
 40
0.163947
 40
0.166355
 40
0.169559
 40
0.172757
 40
0.175953
 40
0.180000
 40
0.184049
 40
0.188100
 40
0.188100
 40
0.188100
 40
0.188100
 10
4.390060
 20
10.483359
 30
0.0
 10
4.388327
 20
10.484053
 30
0.0
 10
4.384862
 20
10.485442
 30
0.0
 10
4.379648
 20
10.487483
 30
0.0
 10
4.374478
 20
10.489415
 30
0.0
 10
4.369339
 20
10.491202
 30
0.0
 10
4.364239
 20
10.492854
 30
0.0
 10
4.359175
 20
10.494379
 30
0.0
 10
4.354154
 20
10.495787
 30
0.0
 10
4.349178
 20
10.497077
 30
0.0
 10
4.344250
 20
10.498243
 30
0.0
 10
4.339372
 20
10.499286
 30
0.0
 10
4.334548
 20
10.500207
 30
0.0
 10
4.329783
 20
10.501004
 30
0.0
 10
4.325078
 20
10.501680
 30
0.0
 10
4.320438
 20
10.502235
 30
0.0
 10
4.315856
 20
10.502666
 30
0.0
 10
4.311334
 20
10.502972
 30
0.0
 10
4.306877
 20
10.503157
 30
0.0
 10
4.302472
 20
10.503222
 30
0.0
 10
4.298123
 20
10.503170
 30
0.0
 10
4.293833
 20
10.502983
 30
0.0
 10
4.289801
 20
10.502656
 30
0.0
 10
4.286032
 20
10.502204
 30
0.0
 10
4.282534
 20
10.501624
 30
0.0
 10
4.279289
 20
10.500900
 30
0.0
 10
4.276308
 20
10.500048
 30
0.0
 10
4.273597
 20
10.499071
 30
0.0
 10
4.271142
 20
10.497947
 30
0.0
 10
4.268955
 20
10.496701
 30
0.0
 10
4.267052
 20
10.495352
 30
0.0
 10
4.265378
 20
10.493824
 30
0.0
 10
4.263975
 20
10.492129
 30
0.0
 10
4.262839
 20
10.490323
 30
0.0
 10
4.261930
 20
10.488344
 30
0.0
 10
4.261296
 20
10.486213
 30
0.0
 10
4.260934
 20
10.483974
 30
0.0
 10
4.260836
 20
10.481843
 30
0.0
 10
4.260930
 20
10.479850
 30
0.0
 10
4.261200
 20
10.478015
 30
0.0
 10
4.261671
 20
10.476259
 30
0.0
 10
4.262351
 20
10.474610
 30
0.0
 10
4.263208
 20
10.473084
 30
0.0
 10
4.264265
 20
10.471637
 30
0.0
 10
4.265522
 20
10.470301
 30
0.0
 10
4.266954
 20
10.469093
 30
0.0
 10
4.268649
 20
10.467939
 30
0.0
 10
4.270613
 20
10.466884
 30
0.0
 10
4.272830
 20
10.465946
 30
0.0
 10
4.275354
 20
10.465067
 30
0.0
 10
4.278170
 20
10.464230
 30
0.0
 10
4.281276
 20
10.463459
 30
0.0
 10
4.284685
 20
10.462752
 30
0.0
 10
4.288396
 20
10.462122
 30
0.0
 10
4.292405
 20
10.461552
 30
0.0
 10
4.295083
 20
10.461207
 30
0.0
 10
4.296422
 20
10.461035
 30
0.0
 11
4.390060
 21
10.483359
 31
0.0
 11
4.384859
 21
10.485435
 31
0.0
 11
4.379643
 21
10.487470
 31
0.0
 11
4.374396
 21
10.489423
 31
0.0
 11
4.369333
 21
10.491184
 31
0.0
 11
4.364233
 21
10.492836
 31
0.0
 11
4.359100
 21
10.494383
 31
0.0
 11
4.354150
 21
10.495771
 31
0.0
 11
4.349173
 21
10.497059
 31
0.0
 11
4.344171
 21
10.498242
 31
0.0
 11
4.339369
 21
10.499268
 31
0.0
 11
4.334545
 21
10.500188
 31
0.0
 11
4.329702
 21
10.500998
 31
0.0
 11
4.325076
 21
10.501662
 31
0.0
 11
4.320436
 21
10.502216
 31
0.0
 11
4.315783
 21
10.502652
 31
0.0
 11
4.311333
 21
10.502953
 31
0.0
 11
4.306877
 21
10.503137
 31
0.0
 11
4.302416
 21
10.503203
 31
0.0
 11
4.298123
 21
10.503147
 31
0.0
 11
4.293834
 21
10.502956
 31
0.0
 11
4.289555
 21
10.502606
 31
0.0
 11
4.286035
 21
10.502178
 31
0.0
 11
4.282540
 21
10.501592
 31
0.0
 11
4.279082
 21
10.500815
 31
0.0
 11
4.276317
 21
10.500017
 31
0.0
 11
4.273614
 21
10.499034
 31
0.0
 11
4.270997
 21
10.497829
 31
0.0
 11
4.268974
 21
10.496668
 31
0.0
 11
4.267081
 21
10.495313
 31
0.0
 11
4.265370
 21
10.493741
 31
0.0
 11
4.264013
 21
10.492103
 31
0.0
 11
4.262879
 21
10.490300
 31
0.0
 11
4.261994
 21
10.488366
 31
0.0
 11
4.261344
 21
10.486204
 31
0.0
 11
4.260977
 21
10.483972
 31
0.0
 11
4.260869
 21
10.481706
 31
0.0
 11
4.260961
 21
10.479851
 31
0.0
 11
4.261235
 21
10.478021
 31
0.0
 11
4.261719
 21
10.476239
 31
0.0
 11
4.262382
 21
10.474627
 31
0.0
 11
4.263237
 21
10.473103
 31
0.0
 11
4.264268
 21
10.471692
 31
0.0
 11
4.265546
 21
10.470327
 31
0.0
 11
4.266974
 21
10.469119
 31
0.0
 11
4.268517
 21
10.468063
 31
0.0
 11
4.270628
 21
10.466918
 31
0.0
 11
4.272838
 21
10.465971
 31
0.0
 11
4.275109
 21
10.465169
 31
0.0
 11
4.278178
 21
10.464253
 31
0.0
 11
4.281281
 21
10.463479
 31
0.0
 11
4.284410
 21
10.462827
 31
0.0
 11
4.288398
 21
10.462140
 31
0.0
 11
4.292405
 21
10.461561
 31
0.0
 11
4.296422
 21
10.461035
 31
0.0
  0
LINE
  5
1b2
100
AcDbEntity
  8
Layer_1
 62
7
100
AcDbLine
 10
4.199064
 20
10.323782
 30
0.0
 11
4.199064
 21
10.380006
 31
0.0
  0
LINE
  5
1b3
100
AcDbEntity
  8
Layer_1
 62
7
100
AcDbLine
 10
4.297662
 20
10.404604
 30
0.0
 11
4.284640
 21
10.406258
 31
0.0
  0
SPLINE
  5
1b4
100
AcDbEntity
  8
Layer_1
 62
7
100
AcDbSpline
 70
0
 71
3
 72
61
 73
57
 74
55
 40
0.000000
 40
0.000000
 40
0.000000
 40
0.000000
 40
0.011434
 40
0.022858
 40
0.034274
 40
0.043171
 40
0.052074
 40
0.061001
 40
0.067683
 40
0.074344
 40
0.080981
 40
0.086682
 40
0.092400
 40
0.098117
 40
0.104300
 40
0.110484
 40
0.116670
 40
0.123875
 40
0.131079
 40
0.138298
 40
0.145939
 40
0.153568
 40
0.161189
 40
0.168100
 40
0.175018
 40
0.181927
 40
0.188930
 40
0.195942
 40
0.202954
 40
0.210828
 40
0.218703
 40
0.226582
 40
0.235878
 40
0.245171
 40
0.254467
 40
0.265538
 40
0.276606
 40
0.287674
 40
0.292837
 40
0.297999
 40
0.303161
 40
0.308460
 40
0.313759
 40
0.319058
 40
0.324507
 40
0.329955
 40
0.335405
 40
0.340956
 40
0.346507
 40
0.352057
 40
0.357765
 40
0.363473
 40
0.369181
 40
0.375056
 40
0.380931
 40
0.386807
 40
0.386807
 40
0.386807
 40
0.386807
 10
4.309444
 20
10.459175
 30
0.0
 10
4.313215
 20
10.458619
 30
0.0
 10
4.320753
 20
10.457510
 30
0.0
 10
4.332027
 20
10.455653
 30
0.0
 10
4.342404
 20
10.453578
 30
0.0
 10
4.351860
 20
10.451234
 30
0.0
 10
4.360388
 20
10.448641
 30
0.0
 10
4.368042
 20
10.445762
 30
0.0
 10
4.374807
 20
10.442692
 30
0.0
 10
4.380627
 20
10.439432
 30
0.0
 10
4.385776
 20
10.435711
 30
0.0
 10
4.390144
 20
10.431549
 30
0.0
 10
4.393796
 20
10.427141
 30
0.0
 10
4.397013
 20
10.422213
 30
0.0
 10
4.399701
 20
10.416802
 30
0.0
 10
4.401850
 20
10.410992
 30
0.0
 10
4.403548
 20
10.404684
 30
0.0
 10
4.404768
 20
10.397920
 30
0.0
 10
4.405463
 20
10.390737
 30
0.0
 10
4.405641
 20
10.383379
 30
0.0
 10
4.405340
 20
10.375882
 30
0.0
 10
4.404394
 20
10.368299
 30
0.0
 10
4.402731
 20
10.361085
 30
0.0
 10
4.400333
 20
10.354334
 30
0.0
 10
4.397299
 20
10.348107
 30
0.0
 10
4.393536
 20
10.342251
 30
0.0
 10
4.389043
 20
10.336892
 30
0.0
 10
4.383936
 20
10.332071
 30
0.0
 10
4.378114
 20
10.327646
 30
0.0
 10
4.371611
 20
10.323711
 30
0.0
 10
4.364498
 20
10.320304
 30
0.0
 10
4.356689
 20
10.317327
 30
0.0
 10
4.348224
 20
10.314810
 30
0.0
 10
4.339144
 20
10.312791
 30
0.0
 10
4.329380
 20
10.311213
 30
0.0
 10
4.318958
 20
10.310078
 30
0.0
 10
4.307904
 20
10.309426
 30
0.0
 10
4.298804
 20
10.309279
 30
0.0
 10
4.291673
 20
10.309351
 30
0.0
 10
4.286512
 20
10.309489
 30
0.0
 10
4.281309
 20
10.309714
 30
0.0
 10
4.276065
 20
10.310029
 30
0.0
 10
4.270781
 20
10.310439
 30
0.0
 10
4.265457
 20
10.310955
 30
0.0
 10
4.260094
 20
10.311580
 30
0.0
 10
4.254693
 20
10.312298
 30
0.0
 10
4.249255
 20
10.313007
 30
0.0
 10
4.243812
 20
10.313912
 30
0.0
 10
4.238334
 20
10.314803
 30
0.0
 10
4.232817
 20
10.315783
 30
0.0
 10
4.227267
 20
10.316870
 30
0.0
 10
4.221685
 20
10.318067
 30
0.0
 10
4.216070
 20
10.319370
 30
0.0
 10
4.210424
 20
10.320779
 30
0.0
 10
4.204740
 20
10.322265
 30
0.0
 10
4.200956
 20
10.323277
 30
0.0
 10
4.199064
 20
10.323782
 30
0.0
 11
4.309444
 21
10.459175
 31
0.0
 11
4.320752
 21
10.457477
 31
0.0
 11
4.332019
 21
10.455589
 31
0.0
 11
4.343206
 21
10.453318
 31
0.0
 11
4.351837
 21
10.451160
 31
0.0
 11
4.360350
 21
10.448552
 31
0.0
 11
4.368700
 21
10.445394
 31
0.0
 11
4.374771
 21
10.442604
 31
0.0
 11
4.380567
 21
10.439319
 31
0.0
 11
4.385926
 21
10.435403
 31
0.0
 11
4.390058
 21
10.431477
 31
0.0
 11
4.393709
 21
10.427076
 31
0.0
 11
4.396835
 21
10.422289
 31
0.0
 11
4.399600
 21
10.416759
 31
0.0
 11
4.401760
 21
10.410965
 31
0.0
 11
4.403381
 21
10.404995
 31
0.0
 11
4.404670
 21
10.397906
 31
0.0
 11
4.405376
 21
10.390736
 31
0.0
 11
4.405563
 21
10.383520
 31
0.0
 11
4.405233
 21
10.375886
 31
0.0
 11
4.404265
 21
10.368318
 31
0.0
 11
4.402531
 21
10.360898
 31
0.0
 11
4.400215
 21
10.354386
 31
0.0
 11
4.397179
 21
10.348170
 31
0.0
 11
4.393436
 21
10.342363
 31
0.0
 11
4.388946
 21
10.336988
 31
0.0
 11
4.383855
 21
10.332166
 31
0.0
 11
4.378277
 21
10.327917
 31
0.0
 11
4.371551
 21
10.323824
 31
0.0
 11
4.364457
 21
10.320404
 31
0.0
 11
4.357102
 21
10.317581
 31
0.0
 11
4.348196
 21
10.314916
 31
0.0
 11
4.339128
 21
10.312881
 31
0.0
 11
4.329954
 21
10.311380
 31
0.0
 11
4.318950
 21
10.310169
 31
0.0
 11
4.307901
 21
10.309505
 31
0.0
 11
4.296836
 21
10.309313
 31
0.0
 11
4.291673
 21
10.309365
 31
0.0
 11
4.286513
 21
10.309503
 31
0.0
 11
4.281356
 21
10.309727
 31
0.0
 11
4.276066
 21
10.310044
 31
0.0
 11
4.270782
 21
10.310456
 31
0.0
 11
4.265508
 21
10.310967
 31
0.0
 11
4.260096
 21
10.311594
 31
0.0
 11
4.254692
 21
10.312296
 31
0.0
 11
4.249293
 21
10.313034
 31
0.0
 11
4.243811
 21
10.313909
 31
0.0
 11
4.238336
 21
10.314817
 31
0.0
 11
4.232871
 21
10.315790
 31
0.0
 11
4.227270
 21
10.316887
 31
0.0
 11
4.221689
 21
10.318082
 31
0.0
 11
4.216128
 21
10.319373
 31
0.0
 11
4.210427
 21
10.320790
 31
0.0
 11
4.204741
 21
10.322270
 31
0.0
 11
4.199064
 21
10.323782
 31
0.0
  0
LINE
  5
1b5
100
AcDbEntity
  8
Layer_1
 62
7
100
AcDbLine
 10
4.390060
 20
10.539583
 30
0.0
 11
4.390060
 21
10.539583
 31
0.0
  0
SPLINE
  5
1b6
100
AcDbEntity
  8
Layer_1
 62
7
100
AcDbSpline
 70
0
 71
3
 72
61
 73
57
 74
55
 40
0.000000
 40
0.000000
 40
0.000000
 40
0.000000
 40
0.005418
 40
0.010834
 40
0.016248
 40
0.021588
 40
0.026929
 40
0.032270
 40
0.037565
 40
0.042859
 40
0.048153
 40
0.053461
 40
0.058770
 40
0.064080
 40
0.069374
 40
0.074669
 40
0.079963
 40
0.085273
 40
0.090583
 40
0.095894
 40
0.100327
 40
0.104759
 40
0.109191
 40
0.112884
 40
0.116577
 40
0.120270
 40
0.123319
 40
0.126366
 40
0.129416
 40
0.131979
 40
0.134541
 40
0.137099
 40
0.139433
 40
0.141768
 40
0.144098
 40
0.146541
 40
0.148990
 40
0.151446
 40
0.153491
 40
0.155530
 40
0.157567
 40
0.159415
 40
0.161265
 40
0.163110
 40
0.165002
 40
0.166899
 40
0.168797
 40
0.171237
 40
0.173677
 40
0.176119
 40
0.179560
 40
0.182999
 40
0.186437
 40
0.190937
 40
0.195437
 40
0.199939
 40
0.199939
 40
0.199939
 40
0.199939
 10
4.199064
 20
10.380006
 30
0.0
 10
4.200704
 20
10.379250
 30
0.0
 10
4.203983
 20
10.377739
 30
0.0
 10
4.208926
 20
10.375523
 30
0.0
 10
4.213890
 20
10.373421
 30
0.0
 10
4.218893
 20
10.371484
 30
0.0
 10
4.223927
 20
10.369698
 30
0.0
 10
4.228992
 20
10.368048
 30
0.0
 10
4.234079
 20
10.366522
 30
0.0
 10
4.239186
 20
10.365126
 30
0.0
 10
4.244332
 20
10.363859
 30
0.0
 10
4.249514
 20
10.362730
 30
0.0
 10
4.254730
 20
10.361736
 30
0.0
 10
4.259965
 20
10.360876
 30
0.0
 10
4.265214
 20
10.360149
 30
0.0
 10
4.270476
 20
10.359552
 30
0.0
 10
4.275755
 20
10.359084
 30
0.0
 10
4.281050
 20
10.358745
 30
0.0
 10
4.286357
 20
10.358543
 30
0.0
 10
4.291375
 20
10.358488
 30
0.0
 10
4.296101
 20
10.358556
 30
0.0
 10
4.300529
 20
10.358762
 30
0.0
 10
4.304701
 20
10.359119
 30
0.0
 10
4.308609
 20
10.359624
 30
0.0
 10
4.312246
 20
10.360273
 30
0.0
 10
4.315631
 20
10.361083
 30
0.0
 10
4.318754
 20
10.362036
 30
0.0
 10
4.321604
 20
10.363128
 30
0.0
 10
4.324205
 20
10.364388
 30
0.0
 10
4.326542
 20
10.365797
 30
0.0
 10
4.328597
 20
10.367334
 30
0.0
 10
4.330402
 20
10.369051
 30
0.0
 10
4.331920
 20
10.370930
 30
0.0
 10
4.333151
 20
10.372919
 30
0.0
 10
4.334131
 20
10.375084
 30
0.0
 10
4.334811
 20
10.377401
 30
0.0
 10
4.335200
 20
10.379825
 30
0.0
 10
4.335315
 20
10.382143
 30
0.0
 10
4.335232
 20
10.384324
 30
0.0
 10
4.334962
 20
10.386350
 30
0.0
 10
4.334488
 20
10.388272
 30
0.0
 10
4.333813
 20
10.390065
 30
0.0
 10
4.332963
 20
10.391710
 30
0.0
 10
4.331907
 20
10.393251
 30
0.0
 10
4.330641
 20
10.394645
 30
0.0
 10
4.329205
 20
10.395889
 30
0.0
 10
4.327501
 20
10.397083
 30
0.0
 10
4.325527
 20
10.398190
 30
0.0
 10
4.323296
 20
10.399186
 30
0.0
 10
4.320690
 20
10.400143
 30
0.0
 10
4.317717
 20
10.401052
 30
0.0
 10
4.314378
 20
10.401882
 30
0.0
 10
4.310662
 20
10.402647
 30
0.0
 10
4.306576
 20
10.403351
 30
0.0
 10
4.302123
 20
10.404005
 30
0.0
 10
4.299149
 20
10.404404
 30
0.0
 10
4.297662
 20
10.404604
 30
0.0
 11
4.199064
 21
10.380006
 31
0.0
 11
4.203988
 21
10.377747
 31
0.0
 11
4.208934
 21
10.375540
 31
0.0
 11
4.213923
 21
10.373438
 31
0.0
 11
4.218902
 21
10.371508
 31
0.0
 11
4.223935
 21
10.369720
 31
0.0
 11
4.229013
 21
10.368063
 31
0.0
 11
4.234085
 21
10.366543
 31
0.0
 11
4.239192
 21
10.365147
 31
0.0
 11
4.244332
 21
10.363883
 31
0.0
 11
4.249519
 21
10.362753
 31
0.0
 11
4.254734
 21
10.361758
 31
0.0
 11
4.259973
 21
10.360898
 31
0.0
 11
4.265217
 21
10.360170
 31
0.0
 11
4.270478
 21
10.359573
 31
0.0
 11
4.275751
 21
10.359106
 31
0.0
 11
4.281051
 21
10.358768
 31
0.0
 11
4.286357
 21
10.358567
 31
0.0
 11
4.291668
 21
10.358509
 31
0.0
 11
4.296100
 21
10.358579
 31
0.0
 11
4.300527
 21
10.358791
 31
0.0
 11
4.304943
 21
10.359175
 31
0.0
 11
4.308605
 21
10.359653
 31
0.0
 11
4.312239
 21
10.360308
 31
0.0
 11
4.315829
 21
10.361173
 31
0.0
 11
4.318743
 21
10.362070
 31
0.0
 11
4.321586
 21
10.363168
 31
0.0
 11
4.324327
 21
10.364503
 31
0.0
 11
4.326519
 21
10.365833
 31
0.0
 11
4.328566
 21
10.367373
 31
0.0
 11
4.330414
 21
10.369143
 31
0.0
 11
4.331879
 21
10.370958
 31
0.0
 11
4.333107
 21
10.372945
 31
0.0
 11
4.334065
 21
10.375068
 31
0.0
 11
4.334760
 21
10.377411
 31
0.0
 11
4.335155
 21
10.379828
 31
0.0
 11
4.335283
 21
10.382280
 31
0.0
 11
4.335200
 21
10.384324
 31
0.0
 11
4.334926
 21
10.386344
 31
0.0
 11
4.334433
 21
10.388320
 31
0.0
 11
4.333780
 21
10.390050
 31
0.0
 11
4.332929
 21
10.391692
 31
0.0
 11
4.331883
 21
10.393212
 31
0.0
 11
4.330616
 21
10.394617
 31
0.0
 11
4.329186
 21
10.395863
 31
0.0
 11
4.327634
 21
10.396956
 31
0.0
 11
4.325510
 21
10.398157
 31
0.0
 11
4.323286
 21
10.399160
 31
0.0
 11
4.320997
 21
10.400011
 31
0.0
 11
4.317708
 21
10.401023
 31
0.0
 11
4.314372
 21
10.401859
 31
0.0
 11
4.311006
 21
10.402560
 31
0.0
 11
4.306573
 21
10.403333
 31
0.0
 11
4.302122
 21
10.403996
 31
0.0
 11
4.297662
 21
10.404604
 31
0.0
  0
SPLINE
  5
1b7
100
AcDbEntity
  8
Layer_1
 62
7
100
AcDbSpline
 70
0
 71
3
 72
61
 73
57
 74
55
 40
0.000000
 40
0.000000
 40
0.000000
 40
0.000000
 40
0.010052
 40
0.020094
 40
0.030130
 40
0.038238
 40
0.046351
 40
0.054478
 40
0.060943
 40
0.067397
 40
0.073835
 40
0.079558
 40
0.085291
 40
0.091022
 40
0.097104
 40
0.103190
 40
0.109278
 40
0.116262
 40
0.123247
 40
0.130245
 40
0.137804
 40
0.145352
 40
0.152895
 40
0.159605
 40
0.166317
 40
0.173019
 40
0.179636
 40
0.186263
 40
0.192887
 40
0.200279
 40
0.207675
 40
0.215077
 40
0.223906
 40
0.232730
 40
0.241557
 40
0.252166
 40
0.262774
 40
0.273381
 40
0.278008
 40
0.282634
 40
0.287259
 40
0.292049
 40
0.296839
 40
0.301629
 40
0.306593
 40
0.311557
 40
0.316521
 40
0.321738
 40
0.326955
 40
0.332173
 40
0.337723
 40
0.343272
 40
0.348822
 40
0.354710
 40
0.360599
 40
0.366488
 40
0.366488
 40
0.366488
 40
0.366488
 10
4.284640
 20
10.406258
 30
0.0
 10
4.281326
 20
10.406753
 30
0.0
 10
4.274701
 20
10.407742
 30
0.0
 10
4.264797
 20
10.409415
 30
0.0
 10
4.255596
 20
10.411338
 30
0.0
 10
4.247131
 20
10.413574
 30
0.0
 10
4.239409
 20
10.416088
 30
0.0
 10
4.232379
 20
10.418910
 30
0.0
 10
4.226059
 20
10.421967
 30
0.0
 10
4.220492
 20
10.425248
 30
0.0
 10
4.215496
 20
10.428954
 30
0.0
 10
4.211162
 20
10.433071
 30
0.0
 10
4.207465
 20
10.437463
 30
0.0
 10
4.204211
 20
10.442337
 30
0.0
 10
4.201490
 20
10.447662
 30
0.0
 10
4.199311
 20
10.453354
 30
0.0
 10
4.197592
 20
10.459513
 30
0.0
 10
4.196371
 20
10.466095
 30
0.0
 10
4.195674
 20
10.473057
 30
0.0
 10
4.195473
 20
10.480239
 30
0.0
 10
4.195735
 20
10.487609
 30
0.0
 10
4.196611
 20
10.495118
 30
0.0
 10
4.198155
 20
10.502234
 30
0.0
 10
4.200362
 20
10.508878
 30
0.0
 10
4.203153
 20
10.514992
 30
0.0
 10
4.206625
 20
10.520716
 30
0.0
 10
4.210779
 20
10.525930
 30
0.0
 10
4.215495
 20
10.530599
 30
0.0
 10
4.220901
 20
10.534878
 30
0.0
 10
4.226973
 20
10.538658
 30
0.0
 10
4.233629
 20
10.541909
 30
0.0
 10
4.240981
 20
10.544752
 30
0.0
 10
4.248988
 20
10.547157
 30
0.0
 10
4.257609
 20
10.549083
 30
0.0
 10
4.266912
 20
10.550588
 30
0.0
 10
4.276873
 20
10.551670
 30
0.0
 10
4.287467
 20
10.552290
 30
0.0
 10
4.296082
 20
10.552429
 30
0.0
 10
4.302702
 20
10.552368
 30
0.0
 10
4.307327
 20
10.552254
 30
0.0
 10
4.312003
 20
10.552064
 30
0.0
 10
4.316731
 20
10.551796
 30
0.0
 10
4.321509
 20
10.551449
 30
0.0
 10
4.326338
 20
10.551027
 30
0.0
 10
4.331219
 20
10.550529
 30
0.0
 10
4.336150
 20
10.549954
 30
0.0
 10
4.341156
 20
10.549299
 30
0.0
 10
4.346235
 20
10.548560
 30
0.0
 10
4.351388
 20
10.547738
 30
0.0
 10
4.356638
 20
10.546832
 30
0.0
 10
4.361987
 20
10.545843
 30
0.0
 10
4.367431
 20
10.544764
 30
0.0
 10
4.372970
 20
10.543591
 30
0.0
 10
4.378604
 20
10.542317
 30
0.0
 10
4.384335
 20
10.540964
 30
0.0
 10
4.388151
 20
10.540043
 30
0.0
 10
4.390060
 20
10.539583
 30
0.0
 11
4.284640
 21
10.406258
 31
0.0
 11
4.274703
 21
10.407774
 31
0.0
 11
4.264806
 21
10.409479
 31
0.0
 11
4.254989
 21
10.411563
 31
0.0
 11
4.247154
 21
10.413647
 31
0.0
 11
4.239444
 21
10.416172
 31
0.0
 11
4.231907
 21
10.419212
 31
0.0
 11
4.226096
 21
10.422047
 31
0.0
 11
4.220550
 21
10.425346
 31
0.0
 11
4.215393
 21
10.429202
 31
0.0
 11
4.211242
 21
10.433141
 31
0.0
 11
4.207550
 21
10.437527
 31
0.0
 11
4.204369
 21
10.442294
 31
0.0
 11
4.201590
 21
10.447704
 31
0.0
 11
4.199401
 21
10.453383
 31
0.0
 11
4.197755
 21
10.459244
 31
0.0
 11
4.196468
 21
10.466109
 31
0.0
 11
4.195758
 21
10.473058
 31
0.0
 11
4.195550
 21
10.480052
 31
0.0
 11
4.195837
 21
10.487606
 31
0.0
 11
4.196733
 21
10.495100
 31
0.0
 11
4.198352
 21
10.502468
 31
0.0
 11
4.200474
 21
10.508833
 31
0.0
 11
4.203271
 21
10.514934
 31
0.0
 11
4.206758
 21
10.520658
 31
0.0
 11
4.210873
 21
10.525840
 31
0.0
 11
4.215577
 21
10.530507
 31
0.0
 11
4.220768
 21
10.534622
 31
0.0
 11
4.227032
 21
10.538546
 31
0.0
 11
4.233669
 21
10.541812
 31
0.0
 11
4.240566
 21
10.544498
 31
0.0
 11
4.249016
 21
10.547055
 31
0.0
 11
4.257624
 21
10.548997
 31
0.0
 11
4.266335
 21
10.550424
 31
0.0
 11
4.276881
 21
10.551582
 31
0.0
 11
4.287470
 21
10.552215
 31
0.0
 11
4.298076
 21
10.552399
 31
0.0
 11
4.302702
 21
10.552356
 31
0.0
 11
4.307326
 21
10.552242
 31
0.0
 11
4.311948
 21
10.552054
 31
0.0
 11
4.316730
 21
10.551783
 31
0.0
 11
4.321508
 21
10.551438
 31
0.0
 11
4.326280
 21
10.551021
 31
0.0
 11
4.331218
 21
10.550517
 31
0.0
 11
4.336149
 21
10.549943
 31
0.0
 11
4.341070
 21
10.549298
 31
0.0
 11
4.346233
 21
10.548548
 31
0.0
 11
4.351386
 21
10.547727
 31
0.0
 11
4.356527
 21
10.546841
 31
0.0
 11
4.361985
 21
10.545831
 31
0.0
 11
4.367428
 21
10.544752
 31
0.0
 11
4.372857
 21
10.543602
 31
0.0
 11
4.378602
 21
10.542308
 31
0.0
 11
4.384334
 21
10.540959
 31
0.0
 11
4.390060
 21
10.539583
 31
0.0
  0
ENDSEC
  0
SECTION
  2
OBJECTS
  0
DICTIONARY
  5
C
330
0
100
AcDbDictionary
  3
ACAD_GROUP
350
D
  3
ACAD_MLINESTYLE
350
17
  0
DICTIONARY
  5
D
330
C
100
AcDbDictionary
  0
DICTIONARY
  5
1A
330
C
100
AcDbDictionary
  0
DICTIONARY
  5
17
330
C
100
AcDbDictionary
  3
STANDARD
350
18
  0
DICTIONARY
  5
19
330
C
100
AcDbDictionary
  0
ENDSEC
  0
EOF
